G04 #@! TF.GenerationSoftware,KiCad,Pcbnew,5.0.0-fee4fd1~66~ubuntu16.04.1*
G04 #@! TF.CreationDate,2018-10-18T20:33:51-03:00*
G04 #@! TF.ProjectId,pap,7061702E6B696361645F706362000000,1.0*
G04 #@! TF.SameCoordinates,Original*
G04 #@! TF.FileFunction,Other,Fab,Top*
%FSLAX46Y46*%
G04 Gerber Fmt 4.6, Leading zero omitted, Abs format (unit mm)*
G04 Created by KiCad (PCBNEW 5.0.0-fee4fd1~66~ubuntu16.04.1) date Thu Oct 18 20:33:51 2018*
%MOMM*%
%LPD*%
G01*
G04 APERTURE LIST*
%ADD10C,0.300000*%
%ADD11C,0.100000*%
%ADD12C,0.150000*%
%ADD13C,0.304800*%
G04 APERTURE END LIST*
D10*
X188732452Y-92582650D02*
X188732452Y-91082650D01*
X189303881Y-91082650D01*
X189446738Y-91154079D01*
X189518167Y-91225507D01*
X189589595Y-91368364D01*
X189589595Y-91582650D01*
X189518167Y-91725507D01*
X189446738Y-91796936D01*
X189303881Y-91868364D01*
X188732452Y-91868364D01*
X190875310Y-92582650D02*
X190875310Y-91796936D01*
X190803881Y-91654079D01*
X190661024Y-91582650D01*
X190375310Y-91582650D01*
X190232452Y-91654079D01*
X190875310Y-92511221D02*
X190732452Y-92582650D01*
X190375310Y-92582650D01*
X190232452Y-92511221D01*
X190161024Y-92368364D01*
X190161024Y-92225507D01*
X190232452Y-92082650D01*
X190375310Y-92011221D01*
X190732452Y-92011221D01*
X190875310Y-91939793D01*
X191518167Y-92511221D02*
X191661024Y-92582650D01*
X191946738Y-92582650D01*
X192089595Y-92511221D01*
X192161024Y-92368364D01*
X192161024Y-92296936D01*
X192089595Y-92154079D01*
X191946738Y-92082650D01*
X191732452Y-92082650D01*
X191589595Y-92011221D01*
X191518167Y-91868364D01*
X191518167Y-91796936D01*
X191589595Y-91654079D01*
X191732452Y-91582650D01*
X191946738Y-91582650D01*
X192089595Y-91654079D01*
X192589595Y-91582650D02*
X193161024Y-91582650D01*
X192803881Y-91082650D02*
X192803881Y-92368364D01*
X192875310Y-92511221D01*
X193018167Y-92582650D01*
X193161024Y-92582650D01*
X194232452Y-92511221D02*
X194089595Y-92582650D01*
X193803881Y-92582650D01*
X193661024Y-92511221D01*
X193589595Y-92368364D01*
X193589595Y-91796936D01*
X193661024Y-91654079D01*
X193803881Y-91582650D01*
X194089595Y-91582650D01*
X194232452Y-91654079D01*
X194303881Y-91796936D01*
X194303881Y-91939793D01*
X193589595Y-92082650D01*
X196089595Y-92582650D02*
X196089595Y-91082650D01*
X196589595Y-92154079D01*
X197089595Y-91082650D01*
X197089595Y-92582650D01*
X198446738Y-92582650D02*
X198446738Y-91796936D01*
X198375310Y-91654079D01*
X198232452Y-91582650D01*
X197946738Y-91582650D01*
X197803881Y-91654079D01*
X198446738Y-92511221D02*
X198303881Y-92582650D01*
X197946738Y-92582650D01*
X197803881Y-92511221D01*
X197732452Y-92368364D01*
X197732452Y-92225507D01*
X197803881Y-92082650D01*
X197946738Y-92011221D01*
X198303881Y-92011221D01*
X198446738Y-91939793D01*
X199089595Y-92511221D02*
X199232452Y-92582650D01*
X199518167Y-92582650D01*
X199661024Y-92511221D01*
X199732452Y-92368364D01*
X199732452Y-92296936D01*
X199661024Y-92154079D01*
X199518167Y-92082650D01*
X199303881Y-92082650D01*
X199161024Y-92011221D01*
X199089595Y-91868364D01*
X199089595Y-91796936D01*
X199161024Y-91654079D01*
X199303881Y-91582650D01*
X199518167Y-91582650D01*
X199661024Y-91654079D01*
X200375310Y-92582650D02*
X200375310Y-91082650D01*
X200518167Y-92011221D02*
X200946738Y-92582650D01*
X200946738Y-91582650D02*
X200375310Y-92154079D01*
X202518167Y-91082650D02*
X203375310Y-91082650D01*
X202946738Y-92582650D02*
X202946738Y-91082650D01*
X204089595Y-92582650D02*
X203946738Y-92511221D01*
X203875310Y-92439793D01*
X203803881Y-92296936D01*
X203803881Y-91868364D01*
X203875310Y-91725507D01*
X203946738Y-91654079D01*
X204089595Y-91582650D01*
X204303881Y-91582650D01*
X204446738Y-91654079D01*
X204518167Y-91725507D01*
X204589595Y-91868364D01*
X204589595Y-92296936D01*
X204518167Y-92439793D01*
X204446738Y-92511221D01*
X204303881Y-92582650D01*
X204089595Y-92582650D01*
X205232452Y-91582650D02*
X205232452Y-93082650D01*
X205232452Y-91654079D02*
X205375310Y-91582650D01*
X205661024Y-91582650D01*
X205803881Y-91654079D01*
X205875310Y-91725507D01*
X205946738Y-91868364D01*
X205946738Y-92296936D01*
X205875310Y-92439793D01*
X205803881Y-92511221D01*
X205661024Y-92582650D01*
X205375310Y-92582650D01*
X205232452Y-92511221D01*
X188732452Y-94561221D02*
X189875310Y-94561221D01*
X190589595Y-94561221D02*
X191732452Y-94561221D01*
X192446738Y-94561221D02*
X193589595Y-94561221D01*
X194303881Y-94561221D02*
X195446738Y-94561221D01*
X196161024Y-94561221D02*
X197303881Y-94561221D01*
X198018167Y-94561221D02*
X199161024Y-94561221D01*
X199875310Y-94561221D02*
X201018167Y-94561221D01*
X201732452Y-94561221D02*
X202875310Y-94561221D01*
X203589595Y-94561221D02*
X204732452Y-94561221D01*
X205446738Y-94561221D02*
X206589595Y-94561221D01*
X207303881Y-94561221D02*
X208446738Y-94561221D01*
X209161024Y-94561221D02*
X210303881Y-94561221D01*
X211018167Y-94561221D02*
X212161024Y-94561221D01*
X212875310Y-94561221D02*
X214018167Y-94561221D01*
X214732452Y-94561221D02*
X215875310Y-94561221D01*
X216589595Y-94561221D02*
X217732452Y-94561221D01*
X218446738Y-94561221D02*
X219589595Y-94561221D01*
X220303881Y-94561221D02*
X221446738Y-94561221D01*
X222161024Y-94561221D02*
X223303881Y-94561221D01*
X224018167Y-94561221D02*
X225161024Y-94561221D01*
X225875310Y-94561221D02*
X227018167Y-94561221D01*
X227732452Y-94561221D02*
X228875310Y-94561221D01*
X229589595Y-94561221D02*
X230732452Y-94561221D01*
X231446738Y-94561221D02*
X232589595Y-94561221D01*
X233303881Y-94561221D02*
X234446738Y-94561221D01*
X188661024Y-97611221D02*
X188875310Y-97682650D01*
X189232452Y-97682650D01*
X189375310Y-97611221D01*
X189446738Y-97539793D01*
X189518167Y-97396936D01*
X189518167Y-97254079D01*
X189446738Y-97111221D01*
X189375310Y-97039793D01*
X189232452Y-96968364D01*
X188946738Y-96896936D01*
X188803881Y-96825507D01*
X188732452Y-96754079D01*
X188661024Y-96611221D01*
X188661024Y-96468364D01*
X188732452Y-96325507D01*
X188803881Y-96254079D01*
X188946738Y-96182650D01*
X189303881Y-96182650D01*
X189518167Y-96254079D01*
X190161024Y-97682650D02*
X190161024Y-96682650D01*
X190161024Y-96182650D02*
X190089595Y-96254079D01*
X190161024Y-96325507D01*
X190232452Y-96254079D01*
X190161024Y-96182650D01*
X190161024Y-96325507D01*
X191089595Y-97682650D02*
X190946738Y-97611221D01*
X190875310Y-97468364D01*
X190875310Y-96182650D01*
X191661024Y-97682650D02*
X191661024Y-96182650D01*
X191803881Y-97111221D02*
X192232452Y-97682650D01*
X192232452Y-96682650D02*
X191661024Y-97254079D01*
X192803881Y-97611221D02*
X192946738Y-97682650D01*
X193232452Y-97682650D01*
X193375310Y-97611221D01*
X193446738Y-97468364D01*
X193446738Y-97396936D01*
X193375310Y-97254079D01*
X193232452Y-97182650D01*
X193018167Y-97182650D01*
X192875310Y-97111221D01*
X192803881Y-96968364D01*
X192803881Y-96896936D01*
X192875310Y-96754079D01*
X193018167Y-96682650D01*
X193232452Y-96682650D01*
X193375310Y-96754079D01*
X194732452Y-97611221D02*
X194589595Y-97682650D01*
X194303881Y-97682650D01*
X194161024Y-97611221D01*
X194089595Y-97539793D01*
X194018167Y-97396936D01*
X194018167Y-96968364D01*
X194089595Y-96825507D01*
X194161024Y-96754079D01*
X194303881Y-96682650D01*
X194589595Y-96682650D01*
X194732452Y-96754079D01*
X195375310Y-97682650D02*
X195375310Y-96682650D01*
X195375310Y-96968364D02*
X195446738Y-96825507D01*
X195518167Y-96754079D01*
X195661024Y-96682650D01*
X195803881Y-96682650D01*
X196875310Y-97611221D02*
X196732452Y-97682650D01*
X196446738Y-97682650D01*
X196303881Y-97611221D01*
X196232452Y-97468364D01*
X196232452Y-96896936D01*
X196303881Y-96754079D01*
X196446738Y-96682650D01*
X196732452Y-96682650D01*
X196875310Y-96754079D01*
X196946738Y-96896936D01*
X196946738Y-97039793D01*
X196232452Y-97182650D01*
X198161024Y-97611221D02*
X198018167Y-97682650D01*
X197732452Y-97682650D01*
X197589595Y-97611221D01*
X197518167Y-97468364D01*
X197518167Y-96896936D01*
X197589595Y-96754079D01*
X197732452Y-96682650D01*
X198018167Y-96682650D01*
X198161024Y-96754079D01*
X198232452Y-96896936D01*
X198232452Y-97039793D01*
X197518167Y-97182650D01*
X198875310Y-96682650D02*
X198875310Y-97682650D01*
X198875310Y-96825507D02*
X198946738Y-96754079D01*
X199089595Y-96682650D01*
X199303881Y-96682650D01*
X199446738Y-96754079D01*
X199518167Y-96896936D01*
X199518167Y-97682650D01*
X201161024Y-96182650D02*
X202018167Y-96182650D01*
X201589595Y-97682650D02*
X201589595Y-96182650D01*
X202732452Y-97682650D02*
X202589595Y-97611221D01*
X202518167Y-97539793D01*
X202446738Y-97396936D01*
X202446738Y-96968364D01*
X202518167Y-96825507D01*
X202589595Y-96754079D01*
X202732452Y-96682650D01*
X202946738Y-96682650D01*
X203089595Y-96754079D01*
X203161024Y-96825507D01*
X203232452Y-96968364D01*
X203232452Y-97396936D01*
X203161024Y-97539793D01*
X203089595Y-97611221D01*
X202946738Y-97682650D01*
X202732452Y-97682650D01*
X203875310Y-96682650D02*
X203875310Y-98182650D01*
X203875310Y-96754079D02*
X204018167Y-96682650D01*
X204303881Y-96682650D01*
X204446738Y-96754079D01*
X204518167Y-96825507D01*
X204589595Y-96968364D01*
X204589595Y-97396936D01*
X204518167Y-97539793D01*
X204446738Y-97611221D01*
X204303881Y-97682650D01*
X204018167Y-97682650D01*
X203875310Y-97611221D01*
X188732452Y-99661221D02*
X189875310Y-99661221D01*
X190589595Y-99661221D02*
X191732452Y-99661221D01*
X192446738Y-99661221D02*
X193589595Y-99661221D01*
X194303881Y-99661221D02*
X195446738Y-99661221D01*
X196161024Y-99661221D02*
X197303881Y-99661221D01*
X198018167Y-99661221D02*
X199161024Y-99661221D01*
X199875310Y-99661221D02*
X201018167Y-99661221D01*
X201732452Y-99661221D02*
X202875310Y-99661221D01*
X203589595Y-99661221D02*
X204732452Y-99661221D01*
X205446738Y-99661221D02*
X206589595Y-99661221D01*
X207303881Y-99661221D02*
X208446738Y-99661221D01*
X209161024Y-99661221D02*
X210303881Y-99661221D01*
X211018167Y-99661221D02*
X212161024Y-99661221D01*
X212875310Y-99661221D02*
X214018167Y-99661221D01*
X214732452Y-99661221D02*
X215875310Y-99661221D01*
X216589595Y-99661221D02*
X217732452Y-99661221D01*
X218446738Y-99661221D02*
X219589595Y-99661221D01*
X220303881Y-99661221D02*
X221446738Y-99661221D01*
X222161024Y-99661221D02*
X223303881Y-99661221D01*
X224018167Y-99661221D02*
X225161024Y-99661221D01*
X225875310Y-99661221D02*
X227018167Y-99661221D01*
X227732452Y-99661221D02*
X228875310Y-99661221D01*
X229589595Y-99661221D02*
X230732452Y-99661221D01*
X231446738Y-99661221D02*
X232589595Y-99661221D01*
X233303881Y-99661221D02*
X234446738Y-99661221D01*
X188661024Y-102711221D02*
X188875310Y-102782650D01*
X189232452Y-102782650D01*
X189375310Y-102711221D01*
X189446738Y-102639793D01*
X189518167Y-102496936D01*
X189518167Y-102354079D01*
X189446738Y-102211221D01*
X189375310Y-102139793D01*
X189232452Y-102068364D01*
X188946738Y-101996936D01*
X188803881Y-101925507D01*
X188732452Y-101854079D01*
X188661024Y-101711221D01*
X188661024Y-101568364D01*
X188732452Y-101425507D01*
X188803881Y-101354079D01*
X188946738Y-101282650D01*
X189303881Y-101282650D01*
X189518167Y-101354079D01*
X190375310Y-102782650D02*
X190232452Y-102711221D01*
X190161024Y-102639793D01*
X190089595Y-102496936D01*
X190089595Y-102068364D01*
X190161024Y-101925507D01*
X190232452Y-101854079D01*
X190375310Y-101782650D01*
X190589595Y-101782650D01*
X190732452Y-101854079D01*
X190803881Y-101925507D01*
X190875310Y-102068364D01*
X190875310Y-102496936D01*
X190803881Y-102639793D01*
X190732452Y-102711221D01*
X190589595Y-102782650D01*
X190375310Y-102782650D01*
X191732452Y-102782650D02*
X191589595Y-102711221D01*
X191518167Y-102568364D01*
X191518167Y-101282650D01*
X192946738Y-102782650D02*
X192946738Y-101282650D01*
X192946738Y-102711221D02*
X192803881Y-102782650D01*
X192518167Y-102782650D01*
X192375310Y-102711221D01*
X192303881Y-102639793D01*
X192232452Y-102496936D01*
X192232452Y-102068364D01*
X192303881Y-101925507D01*
X192375310Y-101854079D01*
X192518167Y-101782650D01*
X192803881Y-101782650D01*
X192946738Y-101854079D01*
X194232452Y-102711221D02*
X194089595Y-102782650D01*
X193803881Y-102782650D01*
X193661024Y-102711221D01*
X193589595Y-102568364D01*
X193589595Y-101996936D01*
X193661024Y-101854079D01*
X193803881Y-101782650D01*
X194089595Y-101782650D01*
X194232452Y-101854079D01*
X194303881Y-101996936D01*
X194303881Y-102139793D01*
X193589595Y-102282650D01*
X194946738Y-102782650D02*
X194946738Y-101782650D01*
X194946738Y-102068364D02*
X195018167Y-101925507D01*
X195089595Y-101854079D01*
X195232452Y-101782650D01*
X195375310Y-101782650D01*
X197018167Y-102782650D02*
X197018167Y-101282650D01*
X197518167Y-102354079D01*
X198018167Y-101282650D01*
X198018167Y-102782650D01*
X199375310Y-102782650D02*
X199375310Y-101996936D01*
X199303881Y-101854079D01*
X199161024Y-101782650D01*
X198875310Y-101782650D01*
X198732452Y-101854079D01*
X199375310Y-102711221D02*
X199232452Y-102782650D01*
X198875310Y-102782650D01*
X198732452Y-102711221D01*
X198661024Y-102568364D01*
X198661024Y-102425507D01*
X198732452Y-102282650D01*
X198875310Y-102211221D01*
X199232452Y-102211221D01*
X199375310Y-102139793D01*
X200018167Y-102711221D02*
X200161024Y-102782650D01*
X200446738Y-102782650D01*
X200589595Y-102711221D01*
X200661024Y-102568364D01*
X200661024Y-102496936D01*
X200589595Y-102354079D01*
X200446738Y-102282650D01*
X200232452Y-102282650D01*
X200089595Y-102211221D01*
X200018167Y-102068364D01*
X200018167Y-101996936D01*
X200089595Y-101854079D01*
X200232452Y-101782650D01*
X200446738Y-101782650D01*
X200589595Y-101854079D01*
X201303881Y-102782650D02*
X201303881Y-101282650D01*
X201446738Y-102211221D02*
X201875310Y-102782650D01*
X201875310Y-101782650D02*
X201303881Y-102354079D01*
X203446738Y-101282650D02*
X204303881Y-101282650D01*
X203875310Y-102782650D02*
X203875310Y-101282650D01*
X205018167Y-102782650D02*
X204875310Y-102711221D01*
X204803881Y-102639793D01*
X204732452Y-102496936D01*
X204732452Y-102068364D01*
X204803881Y-101925507D01*
X204875310Y-101854079D01*
X205018167Y-101782650D01*
X205232452Y-101782650D01*
X205375310Y-101854079D01*
X205446738Y-101925507D01*
X205518167Y-102068364D01*
X205518167Y-102496936D01*
X205446738Y-102639793D01*
X205375310Y-102711221D01*
X205232452Y-102782650D01*
X205018167Y-102782650D01*
X206161024Y-101782650D02*
X206161024Y-103282650D01*
X206161024Y-101854079D02*
X206303881Y-101782650D01*
X206589595Y-101782650D01*
X206732452Y-101854079D01*
X206803881Y-101925507D01*
X206875310Y-102068364D01*
X206875310Y-102496936D01*
X206803881Y-102639793D01*
X206732452Y-102711221D01*
X206589595Y-102782650D01*
X206303881Y-102782650D01*
X206161024Y-102711221D01*
X188732452Y-104761221D02*
X189875310Y-104761221D01*
X190589595Y-104761221D02*
X191732452Y-104761221D01*
X192446738Y-104761221D02*
X193589595Y-104761221D01*
X194303881Y-104761221D02*
X195446738Y-104761221D01*
X196161024Y-104761221D02*
X197303881Y-104761221D01*
X198018167Y-104761221D02*
X199161024Y-104761221D01*
X199875310Y-104761221D02*
X201018167Y-104761221D01*
X201732452Y-104761221D02*
X202875310Y-104761221D01*
X203589595Y-104761221D02*
X204732452Y-104761221D01*
X205446738Y-104761221D02*
X206589595Y-104761221D01*
X207303881Y-104761221D02*
X208446738Y-104761221D01*
X209161024Y-104761221D02*
X210303881Y-104761221D01*
X211018167Y-104761221D02*
X212161024Y-104761221D01*
X212875310Y-104761221D02*
X214018167Y-104761221D01*
X214732452Y-104761221D02*
X215875310Y-104761221D01*
X216589595Y-104761221D02*
X217732452Y-104761221D01*
X218446738Y-104761221D02*
X219589595Y-104761221D01*
X220303881Y-104761221D02*
X221446738Y-104761221D01*
X222161024Y-104761221D02*
X223303881Y-104761221D01*
X224018167Y-104761221D02*
X225161024Y-104761221D01*
X225875310Y-104761221D02*
X227018167Y-104761221D01*
X227732452Y-104761221D02*
X228875310Y-104761221D01*
X229589595Y-104761221D02*
X230732452Y-104761221D01*
X231446738Y-104761221D02*
X232589595Y-104761221D01*
X233303881Y-104761221D02*
X234446738Y-104761221D01*
X188518167Y-106382650D02*
X189375310Y-106382650D01*
X188946738Y-107882650D02*
X188946738Y-106382650D01*
X190161024Y-106382650D02*
X190446738Y-106382650D01*
X190589595Y-106454079D01*
X190732452Y-106596936D01*
X190803881Y-106882650D01*
X190803881Y-107382650D01*
X190732452Y-107668364D01*
X190589595Y-107811221D01*
X190446738Y-107882650D01*
X190161024Y-107882650D01*
X190018167Y-107811221D01*
X189875310Y-107668364D01*
X189803881Y-107382650D01*
X189803881Y-106882650D01*
X189875310Y-106596936D01*
X190018167Y-106454079D01*
X190161024Y-106382650D01*
X191446738Y-107882650D02*
X191446738Y-106382650D01*
X192018167Y-106382650D01*
X192161024Y-106454079D01*
X192232452Y-106525507D01*
X192303881Y-106668364D01*
X192303881Y-106882650D01*
X192232452Y-107025507D01*
X192161024Y-107096936D01*
X192018167Y-107168364D01*
X191446738Y-107168364D01*
X194018167Y-106525507D02*
X194089595Y-106454079D01*
X194232452Y-106382650D01*
X194589595Y-106382650D01*
X194732452Y-106454079D01*
X194803881Y-106525507D01*
X194875310Y-106668364D01*
X194875310Y-106811221D01*
X194803881Y-107025507D01*
X193946738Y-107882650D01*
X194875310Y-107882650D01*
X195803881Y-106382650D02*
X196089595Y-106382650D01*
X196232452Y-106454079D01*
X196375310Y-106596936D01*
X196446738Y-106882650D01*
X196446738Y-107382650D01*
X196375310Y-107668364D01*
X196232452Y-107811221D01*
X196089595Y-107882650D01*
X195803881Y-107882650D01*
X195661024Y-107811221D01*
X195518167Y-107668364D01*
X195446738Y-107382650D01*
X195446738Y-106882650D01*
X195518167Y-106596936D01*
X195661024Y-106454079D01*
X195803881Y-106382650D01*
X196946738Y-106882650D02*
X197732452Y-106882650D01*
X196946738Y-107882650D01*
X197732452Y-107882650D01*
X188732452Y-109861221D02*
X189875310Y-109861221D01*
X190589595Y-109861221D02*
X191732452Y-109861221D01*
X192446738Y-109861221D02*
X193589595Y-109861221D01*
X194303881Y-109861221D02*
X195446738Y-109861221D01*
X196161024Y-109861221D02*
X197303881Y-109861221D01*
X198018167Y-109861221D02*
X199161024Y-109861221D01*
X199875310Y-109861221D02*
X201018167Y-109861221D01*
X201732452Y-109861221D02*
X202875310Y-109861221D01*
X203589595Y-109861221D02*
X204732452Y-109861221D01*
X205446738Y-109861221D02*
X206589595Y-109861221D01*
X207303881Y-109861221D02*
X208446738Y-109861221D01*
X209161024Y-109861221D02*
X210303881Y-109861221D01*
X211018167Y-109861221D02*
X212161024Y-109861221D01*
X212875310Y-109861221D02*
X214018167Y-109861221D01*
X214732452Y-109861221D02*
X215875310Y-109861221D01*
X216589595Y-109861221D02*
X217732452Y-109861221D01*
X218446738Y-109861221D02*
X219589595Y-109861221D01*
X220303881Y-109861221D02*
X221446738Y-109861221D01*
X222161024Y-109861221D02*
X223303881Y-109861221D01*
X224018167Y-109861221D02*
X225161024Y-109861221D01*
X225875310Y-109861221D02*
X227018167Y-109861221D01*
X227732452Y-109861221D02*
X228875310Y-109861221D01*
X229589595Y-109861221D02*
X230732452Y-109861221D01*
X231446738Y-109861221D02*
X232589595Y-109861221D01*
X233303881Y-109861221D02*
X234446738Y-109861221D01*
X189232452Y-112196936D02*
X188732452Y-112196936D01*
X188732452Y-112982650D02*
X188732452Y-111482650D01*
X189446738Y-111482650D01*
X190875310Y-112982650D02*
X190375310Y-112268364D01*
X190018167Y-112982650D02*
X190018167Y-111482650D01*
X190589595Y-111482650D01*
X190732452Y-111554079D01*
X190803881Y-111625507D01*
X190875310Y-111768364D01*
X190875310Y-111982650D01*
X190803881Y-112125507D01*
X190732452Y-112196936D01*
X190589595Y-112268364D01*
X190018167Y-112268364D01*
X192161024Y-111982650D02*
X192161024Y-112982650D01*
X191803881Y-111411221D02*
X191446738Y-112482650D01*
X192375310Y-112482650D01*
X194875310Y-112982650D02*
X194018167Y-112982650D01*
X194446738Y-112982650D02*
X194446738Y-111482650D01*
X194303881Y-111696936D01*
X194161024Y-111839793D01*
X194018167Y-111911221D01*
X195518167Y-112839793D02*
X195589595Y-112911221D01*
X195518167Y-112982650D01*
X195446738Y-112911221D01*
X195518167Y-112839793D01*
X195518167Y-112982650D01*
X196875310Y-111482650D02*
X196589595Y-111482650D01*
X196446738Y-111554079D01*
X196375310Y-111625507D01*
X196232452Y-111839793D01*
X196161024Y-112125507D01*
X196161024Y-112696936D01*
X196232452Y-112839793D01*
X196303881Y-112911221D01*
X196446738Y-112982650D01*
X196732452Y-112982650D01*
X196875310Y-112911221D01*
X196946738Y-112839793D01*
X197018167Y-112696936D01*
X197018167Y-112339793D01*
X196946738Y-112196936D01*
X196875310Y-112125507D01*
X196732452Y-112054079D01*
X196446738Y-112054079D01*
X196303881Y-112125507D01*
X196232452Y-112196936D01*
X196161024Y-112339793D01*
X197661024Y-112982650D02*
X197661024Y-111982650D01*
X197661024Y-112125507D02*
X197732452Y-112054079D01*
X197875310Y-111982650D01*
X198089595Y-111982650D01*
X198232452Y-112054079D01*
X198303881Y-112196936D01*
X198303881Y-112982650D01*
X198303881Y-112196936D02*
X198375310Y-112054079D01*
X198518167Y-111982650D01*
X198732452Y-111982650D01*
X198875310Y-112054079D01*
X198946738Y-112196936D01*
X198946738Y-112982650D01*
X199661024Y-112982650D02*
X199661024Y-111982650D01*
X199661024Y-112125507D02*
X199732452Y-112054079D01*
X199875310Y-111982650D01*
X200089595Y-111982650D01*
X200232452Y-112054079D01*
X200303881Y-112196936D01*
X200303881Y-112982650D01*
X200303881Y-112196936D02*
X200375310Y-112054079D01*
X200518167Y-111982650D01*
X200732452Y-111982650D01*
X200875310Y-112054079D01*
X200946738Y-112196936D01*
X200946738Y-112982650D01*
X188732452Y-114961221D02*
X189875310Y-114961221D01*
X190589595Y-114961221D02*
X191732452Y-114961221D01*
X192446738Y-114961221D02*
X193589595Y-114961221D01*
X194303881Y-114961221D02*
X195446738Y-114961221D01*
X196161024Y-114961221D02*
X197303881Y-114961221D01*
X198018167Y-114961221D02*
X199161024Y-114961221D01*
X199875310Y-114961221D02*
X201018167Y-114961221D01*
X201732452Y-114961221D02*
X202875310Y-114961221D01*
X203589595Y-114961221D02*
X204732452Y-114961221D01*
X205446738Y-114961221D02*
X206589595Y-114961221D01*
X207303881Y-114961221D02*
X208446738Y-114961221D01*
X209161024Y-114961221D02*
X210303881Y-114961221D01*
X211018167Y-114961221D02*
X212161024Y-114961221D01*
X212875310Y-114961221D02*
X214018167Y-114961221D01*
X214732452Y-114961221D02*
X215875310Y-114961221D01*
X216589595Y-114961221D02*
X217732452Y-114961221D01*
X218446738Y-114961221D02*
X219589595Y-114961221D01*
X220303881Y-114961221D02*
X221446738Y-114961221D01*
X222161024Y-114961221D02*
X223303881Y-114961221D01*
X224018167Y-114961221D02*
X225161024Y-114961221D01*
X225875310Y-114961221D02*
X227018167Y-114961221D01*
X227732452Y-114961221D02*
X228875310Y-114961221D01*
X229589595Y-114961221D02*
X230732452Y-114961221D01*
X231446738Y-114961221D02*
X232589595Y-114961221D01*
X233303881Y-114961221D02*
X234446738Y-114961221D01*
X189232452Y-117296936D02*
X189446738Y-117368364D01*
X189518167Y-117439793D01*
X189589595Y-117582650D01*
X189589595Y-117796936D01*
X189518167Y-117939793D01*
X189446738Y-118011221D01*
X189303881Y-118082650D01*
X188732452Y-118082650D01*
X188732452Y-116582650D01*
X189232452Y-116582650D01*
X189375310Y-116654079D01*
X189446738Y-116725507D01*
X189518167Y-116868364D01*
X189518167Y-117011221D01*
X189446738Y-117154079D01*
X189375310Y-117225507D01*
X189232452Y-117296936D01*
X188732452Y-117296936D01*
X190446738Y-118082650D02*
X190303881Y-118011221D01*
X190232452Y-117939793D01*
X190161024Y-117796936D01*
X190161024Y-117368364D01*
X190232452Y-117225507D01*
X190303881Y-117154079D01*
X190446738Y-117082650D01*
X190661024Y-117082650D01*
X190803881Y-117154079D01*
X190875310Y-117225507D01*
X190946738Y-117368364D01*
X190946738Y-117796936D01*
X190875310Y-117939793D01*
X190803881Y-118011221D01*
X190661024Y-118082650D01*
X190446738Y-118082650D01*
X191375310Y-117082650D02*
X191946738Y-117082650D01*
X191589595Y-116582650D02*
X191589595Y-117868364D01*
X191661024Y-118011221D01*
X191803881Y-118082650D01*
X191946738Y-118082650D01*
X192232452Y-117082650D02*
X192803881Y-117082650D01*
X192446738Y-116582650D02*
X192446738Y-117868364D01*
X192518167Y-118011221D01*
X192661024Y-118082650D01*
X192803881Y-118082650D01*
X193518167Y-118082650D02*
X193375310Y-118011221D01*
X193303881Y-117939793D01*
X193232452Y-117796936D01*
X193232452Y-117368364D01*
X193303881Y-117225507D01*
X193375310Y-117154079D01*
X193518167Y-117082650D01*
X193732452Y-117082650D01*
X193875310Y-117154079D01*
X193946738Y-117225507D01*
X194018167Y-117368364D01*
X194018167Y-117796936D01*
X193946738Y-117939793D01*
X193875310Y-118011221D01*
X193732452Y-118082650D01*
X193518167Y-118082650D01*
X194661024Y-118082650D02*
X194661024Y-117082650D01*
X194661024Y-117225507D02*
X194732452Y-117154079D01*
X194875310Y-117082650D01*
X195089595Y-117082650D01*
X195232452Y-117154079D01*
X195303881Y-117296936D01*
X195303881Y-118082650D01*
X195303881Y-117296936D02*
X195375310Y-117154079D01*
X195518167Y-117082650D01*
X195732452Y-117082650D01*
X195875310Y-117154079D01*
X195946738Y-117296936D01*
X195946738Y-118082650D01*
X197732452Y-116725507D02*
X197803881Y-116654079D01*
X197946738Y-116582650D01*
X198303881Y-116582650D01*
X198446738Y-116654079D01*
X198518167Y-116725507D01*
X198589595Y-116868364D01*
X198589595Y-117011221D01*
X198518167Y-117225507D01*
X197661024Y-118082650D01*
X198589595Y-118082650D01*
X200661024Y-116582650D02*
X200946738Y-116582650D01*
X201089595Y-116654079D01*
X201232452Y-116796936D01*
X201303881Y-117082650D01*
X201303881Y-117582650D01*
X201232452Y-117868364D01*
X201089595Y-118011221D01*
X200946738Y-118082650D01*
X200661024Y-118082650D01*
X200518167Y-118011221D01*
X200375310Y-117868364D01*
X200303881Y-117582650D01*
X200303881Y-117082650D01*
X200375310Y-116796936D01*
X200518167Y-116654079D01*
X200661024Y-116582650D01*
X201803881Y-117082650D02*
X202589595Y-117082650D01*
X201803881Y-118082650D01*
X202589595Y-118082650D01*
X188732452Y-120061221D02*
X189875310Y-120061221D01*
X190589595Y-120061221D02*
X191732452Y-120061221D01*
X192446738Y-120061221D02*
X193589595Y-120061221D01*
X194303881Y-120061221D02*
X195446738Y-120061221D01*
X196161024Y-120061221D02*
X197303881Y-120061221D01*
X198018167Y-120061221D02*
X199161024Y-120061221D01*
X199875310Y-120061221D02*
X201018167Y-120061221D01*
X201732452Y-120061221D02*
X202875310Y-120061221D01*
X203589595Y-120061221D02*
X204732452Y-120061221D01*
X205446738Y-120061221D02*
X206589595Y-120061221D01*
X207303881Y-120061221D02*
X208446738Y-120061221D01*
X209161024Y-120061221D02*
X210303881Y-120061221D01*
X211018167Y-120061221D02*
X212161024Y-120061221D01*
X212875310Y-120061221D02*
X214018167Y-120061221D01*
X214732452Y-120061221D02*
X215875310Y-120061221D01*
X216589595Y-120061221D02*
X217732452Y-120061221D01*
X218446738Y-120061221D02*
X219589595Y-120061221D01*
X220303881Y-120061221D02*
X221446738Y-120061221D01*
X222161024Y-120061221D02*
X223303881Y-120061221D01*
X224018167Y-120061221D02*
X225161024Y-120061221D01*
X225875310Y-120061221D02*
X227018167Y-120061221D01*
X227732452Y-120061221D02*
X228875310Y-120061221D01*
X229589595Y-120061221D02*
X230732452Y-120061221D01*
X231446738Y-120061221D02*
X232589595Y-120061221D01*
X233303881Y-120061221D02*
X234446738Y-120061221D01*
X188661024Y-123111221D02*
X188875310Y-123182650D01*
X189232452Y-123182650D01*
X189375310Y-123111221D01*
X189446738Y-123039793D01*
X189518167Y-122896936D01*
X189518167Y-122754079D01*
X189446738Y-122611221D01*
X189375310Y-122539793D01*
X189232452Y-122468364D01*
X188946738Y-122396936D01*
X188803881Y-122325507D01*
X188732452Y-122254079D01*
X188661024Y-122111221D01*
X188661024Y-121968364D01*
X188732452Y-121825507D01*
X188803881Y-121754079D01*
X188946738Y-121682650D01*
X189303881Y-121682650D01*
X189518167Y-121754079D01*
X190375310Y-123182650D02*
X190232452Y-123111221D01*
X190161024Y-123039793D01*
X190089595Y-122896936D01*
X190089595Y-122468364D01*
X190161024Y-122325507D01*
X190232452Y-122254079D01*
X190375310Y-122182650D01*
X190589595Y-122182650D01*
X190732452Y-122254079D01*
X190803881Y-122325507D01*
X190875310Y-122468364D01*
X190875310Y-122896936D01*
X190803881Y-123039793D01*
X190732452Y-123111221D01*
X190589595Y-123182650D01*
X190375310Y-123182650D01*
X191732452Y-123182650D02*
X191589595Y-123111221D01*
X191518167Y-122968364D01*
X191518167Y-121682650D01*
X192946738Y-123182650D02*
X192946738Y-121682650D01*
X192946738Y-123111221D02*
X192803881Y-123182650D01*
X192518167Y-123182650D01*
X192375310Y-123111221D01*
X192303881Y-123039793D01*
X192232452Y-122896936D01*
X192232452Y-122468364D01*
X192303881Y-122325507D01*
X192375310Y-122254079D01*
X192518167Y-122182650D01*
X192803881Y-122182650D01*
X192946738Y-122254079D01*
X194232452Y-123111221D02*
X194089595Y-123182650D01*
X193803881Y-123182650D01*
X193661024Y-123111221D01*
X193589595Y-122968364D01*
X193589595Y-122396936D01*
X193661024Y-122254079D01*
X193803881Y-122182650D01*
X194089595Y-122182650D01*
X194232452Y-122254079D01*
X194303881Y-122396936D01*
X194303881Y-122539793D01*
X193589595Y-122682650D01*
X194946738Y-123182650D02*
X194946738Y-122182650D01*
X194946738Y-122468364D02*
X195018167Y-122325507D01*
X195089595Y-122254079D01*
X195232452Y-122182650D01*
X195375310Y-122182650D01*
X197018167Y-123182650D02*
X197018167Y-121682650D01*
X197518167Y-122754079D01*
X198018167Y-121682650D01*
X198018167Y-123182650D01*
X199375310Y-123182650D02*
X199375310Y-122396936D01*
X199303881Y-122254079D01*
X199161024Y-122182650D01*
X198875310Y-122182650D01*
X198732452Y-122254079D01*
X199375310Y-123111221D02*
X199232452Y-123182650D01*
X198875310Y-123182650D01*
X198732452Y-123111221D01*
X198661024Y-122968364D01*
X198661024Y-122825507D01*
X198732452Y-122682650D01*
X198875310Y-122611221D01*
X199232452Y-122611221D01*
X199375310Y-122539793D01*
X200018167Y-123111221D02*
X200161024Y-123182650D01*
X200446738Y-123182650D01*
X200589595Y-123111221D01*
X200661024Y-122968364D01*
X200661024Y-122896936D01*
X200589595Y-122754079D01*
X200446738Y-122682650D01*
X200232452Y-122682650D01*
X200089595Y-122611221D01*
X200018167Y-122468364D01*
X200018167Y-122396936D01*
X200089595Y-122254079D01*
X200232452Y-122182650D01*
X200446738Y-122182650D01*
X200589595Y-122254079D01*
X201303881Y-123182650D02*
X201303881Y-121682650D01*
X201446738Y-122611221D02*
X201875310Y-123182650D01*
X201875310Y-122182650D02*
X201303881Y-122754079D01*
X204161024Y-122396936D02*
X204375310Y-122468364D01*
X204446738Y-122539793D01*
X204518167Y-122682650D01*
X204518167Y-122896936D01*
X204446738Y-123039793D01*
X204375310Y-123111221D01*
X204232452Y-123182650D01*
X203661024Y-123182650D01*
X203661024Y-121682650D01*
X204161024Y-121682650D01*
X204303881Y-121754079D01*
X204375310Y-121825507D01*
X204446738Y-121968364D01*
X204446738Y-122111221D01*
X204375310Y-122254079D01*
X204303881Y-122325507D01*
X204161024Y-122396936D01*
X203661024Y-122396936D01*
X205375310Y-123182650D02*
X205232452Y-123111221D01*
X205161024Y-123039793D01*
X205089595Y-122896936D01*
X205089595Y-122468364D01*
X205161024Y-122325507D01*
X205232452Y-122254079D01*
X205375310Y-122182650D01*
X205589595Y-122182650D01*
X205732452Y-122254079D01*
X205803881Y-122325507D01*
X205875310Y-122468364D01*
X205875310Y-122896936D01*
X205803881Y-123039793D01*
X205732452Y-123111221D01*
X205589595Y-123182650D01*
X205375310Y-123182650D01*
X206303881Y-122182650D02*
X206875310Y-122182650D01*
X206518167Y-121682650D02*
X206518167Y-122968364D01*
X206589595Y-123111221D01*
X206732452Y-123182650D01*
X206875310Y-123182650D01*
X207161024Y-122182650D02*
X207732452Y-122182650D01*
X207375310Y-121682650D02*
X207375310Y-122968364D01*
X207446738Y-123111221D01*
X207589595Y-123182650D01*
X207732452Y-123182650D01*
X208446738Y-123182650D02*
X208303881Y-123111221D01*
X208232452Y-123039793D01*
X208161024Y-122896936D01*
X208161024Y-122468364D01*
X208232452Y-122325507D01*
X208303881Y-122254079D01*
X208446738Y-122182650D01*
X208661024Y-122182650D01*
X208803881Y-122254079D01*
X208875310Y-122325507D01*
X208946738Y-122468364D01*
X208946738Y-122896936D01*
X208875310Y-123039793D01*
X208803881Y-123111221D01*
X208661024Y-123182650D01*
X208446738Y-123182650D01*
X209589595Y-123182650D02*
X209589595Y-122182650D01*
X209589595Y-122325507D02*
X209661024Y-122254079D01*
X209803881Y-122182650D01*
X210018167Y-122182650D01*
X210161024Y-122254079D01*
X210232452Y-122396936D01*
X210232452Y-123182650D01*
X210232452Y-122396936D02*
X210303881Y-122254079D01*
X210446738Y-122182650D01*
X210661024Y-122182650D01*
X210803881Y-122254079D01*
X210875310Y-122396936D01*
X210875310Y-123182650D01*
X188732452Y-125161221D02*
X189875310Y-125161221D01*
X190589595Y-125161221D02*
X191732452Y-125161221D01*
X192446738Y-125161221D02*
X193589595Y-125161221D01*
X194303881Y-125161221D02*
X195446738Y-125161221D01*
X196161024Y-125161221D02*
X197303881Y-125161221D01*
X198018167Y-125161221D02*
X199161024Y-125161221D01*
X199875310Y-125161221D02*
X201018167Y-125161221D01*
X201732452Y-125161221D02*
X202875310Y-125161221D01*
X203589595Y-125161221D02*
X204732452Y-125161221D01*
X205446738Y-125161221D02*
X206589595Y-125161221D01*
X207303881Y-125161221D02*
X208446738Y-125161221D01*
X209161024Y-125161221D02*
X210303881Y-125161221D01*
X211018167Y-125161221D02*
X212161024Y-125161221D01*
X212875310Y-125161221D02*
X214018167Y-125161221D01*
X214732452Y-125161221D02*
X215875310Y-125161221D01*
X216589595Y-125161221D02*
X217732452Y-125161221D01*
X218446738Y-125161221D02*
X219589595Y-125161221D01*
X220303881Y-125161221D02*
X221446738Y-125161221D01*
X222161024Y-125161221D02*
X223303881Y-125161221D01*
X224018167Y-125161221D02*
X225161024Y-125161221D01*
X225875310Y-125161221D02*
X227018167Y-125161221D01*
X227732452Y-125161221D02*
X228875310Y-125161221D01*
X229589595Y-125161221D02*
X230732452Y-125161221D01*
X231446738Y-125161221D02*
X232589595Y-125161221D01*
X233303881Y-125161221D02*
X234446738Y-125161221D01*
X188661024Y-128211221D02*
X188875310Y-128282650D01*
X189232452Y-128282650D01*
X189375310Y-128211221D01*
X189446738Y-128139793D01*
X189518167Y-127996936D01*
X189518167Y-127854079D01*
X189446738Y-127711221D01*
X189375310Y-127639793D01*
X189232452Y-127568364D01*
X188946738Y-127496936D01*
X188803881Y-127425507D01*
X188732452Y-127354079D01*
X188661024Y-127211221D01*
X188661024Y-127068364D01*
X188732452Y-126925507D01*
X188803881Y-126854079D01*
X188946738Y-126782650D01*
X189303881Y-126782650D01*
X189518167Y-126854079D01*
X190161024Y-128282650D02*
X190161024Y-127282650D01*
X190161024Y-126782650D02*
X190089595Y-126854079D01*
X190161024Y-126925507D01*
X190232452Y-126854079D01*
X190161024Y-126782650D01*
X190161024Y-126925507D01*
X191089595Y-128282650D02*
X190946738Y-128211221D01*
X190875310Y-128068364D01*
X190875310Y-126782650D01*
X191661024Y-128282650D02*
X191661024Y-126782650D01*
X191803881Y-127711221D02*
X192232452Y-128282650D01*
X192232452Y-127282650D02*
X191661024Y-127854079D01*
X192803881Y-128211221D02*
X192946738Y-128282650D01*
X193232452Y-128282650D01*
X193375310Y-128211221D01*
X193446738Y-128068364D01*
X193446738Y-127996936D01*
X193375310Y-127854079D01*
X193232452Y-127782650D01*
X193018167Y-127782650D01*
X192875310Y-127711221D01*
X192803881Y-127568364D01*
X192803881Y-127496936D01*
X192875310Y-127354079D01*
X193018167Y-127282650D01*
X193232452Y-127282650D01*
X193375310Y-127354079D01*
X194732452Y-128211221D02*
X194589595Y-128282650D01*
X194303881Y-128282650D01*
X194161024Y-128211221D01*
X194089595Y-128139793D01*
X194018167Y-127996936D01*
X194018167Y-127568364D01*
X194089595Y-127425507D01*
X194161024Y-127354079D01*
X194303881Y-127282650D01*
X194589595Y-127282650D01*
X194732452Y-127354079D01*
X195375310Y-128282650D02*
X195375310Y-127282650D01*
X195375310Y-127568364D02*
X195446738Y-127425507D01*
X195518167Y-127354079D01*
X195661024Y-127282650D01*
X195803881Y-127282650D01*
X196875310Y-128211221D02*
X196732452Y-128282650D01*
X196446738Y-128282650D01*
X196303881Y-128211221D01*
X196232452Y-128068364D01*
X196232452Y-127496936D01*
X196303881Y-127354079D01*
X196446738Y-127282650D01*
X196732452Y-127282650D01*
X196875310Y-127354079D01*
X196946738Y-127496936D01*
X196946738Y-127639793D01*
X196232452Y-127782650D01*
X198161024Y-128211221D02*
X198018167Y-128282650D01*
X197732452Y-128282650D01*
X197589595Y-128211221D01*
X197518167Y-128068364D01*
X197518167Y-127496936D01*
X197589595Y-127354079D01*
X197732452Y-127282650D01*
X198018167Y-127282650D01*
X198161024Y-127354079D01*
X198232452Y-127496936D01*
X198232452Y-127639793D01*
X197518167Y-127782650D01*
X198875310Y-127282650D02*
X198875310Y-128282650D01*
X198875310Y-127425507D02*
X198946738Y-127354079D01*
X199089595Y-127282650D01*
X199303881Y-127282650D01*
X199446738Y-127354079D01*
X199518167Y-127496936D01*
X199518167Y-128282650D01*
X201875310Y-127496936D02*
X202089595Y-127568364D01*
X202161024Y-127639793D01*
X202232452Y-127782650D01*
X202232452Y-127996936D01*
X202161024Y-128139793D01*
X202089595Y-128211221D01*
X201946738Y-128282650D01*
X201375310Y-128282650D01*
X201375310Y-126782650D01*
X201875310Y-126782650D01*
X202018167Y-126854079D01*
X202089595Y-126925507D01*
X202161024Y-127068364D01*
X202161024Y-127211221D01*
X202089595Y-127354079D01*
X202018167Y-127425507D01*
X201875310Y-127496936D01*
X201375310Y-127496936D01*
X203089595Y-128282650D02*
X202946738Y-128211221D01*
X202875310Y-128139793D01*
X202803881Y-127996936D01*
X202803881Y-127568364D01*
X202875310Y-127425507D01*
X202946738Y-127354079D01*
X203089595Y-127282650D01*
X203303881Y-127282650D01*
X203446738Y-127354079D01*
X203518167Y-127425507D01*
X203589595Y-127568364D01*
X203589595Y-127996936D01*
X203518167Y-128139793D01*
X203446738Y-128211221D01*
X203303881Y-128282650D01*
X203089595Y-128282650D01*
X204018167Y-127282650D02*
X204589595Y-127282650D01*
X204232452Y-126782650D02*
X204232452Y-128068364D01*
X204303881Y-128211221D01*
X204446738Y-128282650D01*
X204589595Y-128282650D01*
X204875310Y-127282650D02*
X205446738Y-127282650D01*
X205089595Y-126782650D02*
X205089595Y-128068364D01*
X205161024Y-128211221D01*
X205303881Y-128282650D01*
X205446738Y-128282650D01*
X206161024Y-128282650D02*
X206018167Y-128211221D01*
X205946738Y-128139793D01*
X205875310Y-127996936D01*
X205875310Y-127568364D01*
X205946738Y-127425507D01*
X206018167Y-127354079D01*
X206161024Y-127282650D01*
X206375310Y-127282650D01*
X206518167Y-127354079D01*
X206589595Y-127425507D01*
X206661024Y-127568364D01*
X206661024Y-127996936D01*
X206589595Y-128139793D01*
X206518167Y-128211221D01*
X206375310Y-128282650D01*
X206161024Y-128282650D01*
X207303881Y-128282650D02*
X207303881Y-127282650D01*
X207303881Y-127425507D02*
X207375310Y-127354079D01*
X207518167Y-127282650D01*
X207732452Y-127282650D01*
X207875310Y-127354079D01*
X207946738Y-127496936D01*
X207946738Y-128282650D01*
X207946738Y-127496936D02*
X208018167Y-127354079D01*
X208161024Y-127282650D01*
X208375310Y-127282650D01*
X208518167Y-127354079D01*
X208589595Y-127496936D01*
X208589595Y-128282650D01*
X188732452Y-130261221D02*
X189875310Y-130261221D01*
X190589595Y-130261221D02*
X191732452Y-130261221D01*
X192446738Y-130261221D02*
X193589595Y-130261221D01*
X194303881Y-130261221D02*
X195446738Y-130261221D01*
X196161024Y-130261221D02*
X197303881Y-130261221D01*
X198018167Y-130261221D02*
X199161024Y-130261221D01*
X199875310Y-130261221D02*
X201018167Y-130261221D01*
X201732452Y-130261221D02*
X202875310Y-130261221D01*
X203589595Y-130261221D02*
X204732452Y-130261221D01*
X205446738Y-130261221D02*
X206589595Y-130261221D01*
X207303881Y-130261221D02*
X208446738Y-130261221D01*
X209161024Y-130261221D02*
X210303881Y-130261221D01*
X211018167Y-130261221D02*
X212161024Y-130261221D01*
X212875310Y-130261221D02*
X214018167Y-130261221D01*
X214732452Y-130261221D02*
X215875310Y-130261221D01*
X216589595Y-130261221D02*
X217732452Y-130261221D01*
X218446738Y-130261221D02*
X219589595Y-130261221D01*
X220303881Y-130261221D02*
X221446738Y-130261221D01*
X222161024Y-130261221D02*
X223303881Y-130261221D01*
X224018167Y-130261221D02*
X225161024Y-130261221D01*
X225875310Y-130261221D02*
X227018167Y-130261221D01*
X227732452Y-130261221D02*
X228875310Y-130261221D01*
X229589595Y-130261221D02*
X230732452Y-130261221D01*
X231446738Y-130261221D02*
X232589595Y-130261221D01*
X233303881Y-130261221D02*
X234446738Y-130261221D01*
X188732452Y-133382650D02*
X188732452Y-131882650D01*
X189303881Y-131882650D01*
X189446738Y-131954079D01*
X189518167Y-132025507D01*
X189589595Y-132168364D01*
X189589595Y-132382650D01*
X189518167Y-132525507D01*
X189446738Y-132596936D01*
X189303881Y-132668364D01*
X188732452Y-132668364D01*
X190875310Y-133382650D02*
X190875310Y-132596936D01*
X190803881Y-132454079D01*
X190661024Y-132382650D01*
X190375310Y-132382650D01*
X190232452Y-132454079D01*
X190875310Y-133311221D02*
X190732452Y-133382650D01*
X190375310Y-133382650D01*
X190232452Y-133311221D01*
X190161024Y-133168364D01*
X190161024Y-133025507D01*
X190232452Y-132882650D01*
X190375310Y-132811221D01*
X190732452Y-132811221D01*
X190875310Y-132739793D01*
X191518167Y-133311221D02*
X191661024Y-133382650D01*
X191946738Y-133382650D01*
X192089595Y-133311221D01*
X192161024Y-133168364D01*
X192161024Y-133096936D01*
X192089595Y-132954079D01*
X191946738Y-132882650D01*
X191732452Y-132882650D01*
X191589595Y-132811221D01*
X191518167Y-132668364D01*
X191518167Y-132596936D01*
X191589595Y-132454079D01*
X191732452Y-132382650D01*
X191946738Y-132382650D01*
X192089595Y-132454079D01*
X192589595Y-132382650D02*
X193161024Y-132382650D01*
X192803881Y-131882650D02*
X192803881Y-133168364D01*
X192875310Y-133311221D01*
X193018167Y-133382650D01*
X193161024Y-133382650D01*
X194232452Y-133311221D02*
X194089595Y-133382650D01*
X193803881Y-133382650D01*
X193661024Y-133311221D01*
X193589595Y-133168364D01*
X193589595Y-132596936D01*
X193661024Y-132454079D01*
X193803881Y-132382650D01*
X194089595Y-132382650D01*
X194232452Y-132454079D01*
X194303881Y-132596936D01*
X194303881Y-132739793D01*
X193589595Y-132882650D01*
X196089595Y-133382650D02*
X196089595Y-131882650D01*
X196589595Y-132954079D01*
X197089595Y-131882650D01*
X197089595Y-133382650D01*
X198446738Y-133382650D02*
X198446738Y-132596936D01*
X198375310Y-132454079D01*
X198232452Y-132382650D01*
X197946738Y-132382650D01*
X197803881Y-132454079D01*
X198446738Y-133311221D02*
X198303881Y-133382650D01*
X197946738Y-133382650D01*
X197803881Y-133311221D01*
X197732452Y-133168364D01*
X197732452Y-133025507D01*
X197803881Y-132882650D01*
X197946738Y-132811221D01*
X198303881Y-132811221D01*
X198446738Y-132739793D01*
X199089595Y-133311221D02*
X199232452Y-133382650D01*
X199518167Y-133382650D01*
X199661024Y-133311221D01*
X199732452Y-133168364D01*
X199732452Y-133096936D01*
X199661024Y-132954079D01*
X199518167Y-132882650D01*
X199303881Y-132882650D01*
X199161024Y-132811221D01*
X199089595Y-132668364D01*
X199089595Y-132596936D01*
X199161024Y-132454079D01*
X199303881Y-132382650D01*
X199518167Y-132382650D01*
X199661024Y-132454079D01*
X200375310Y-133382650D02*
X200375310Y-131882650D01*
X200518167Y-132811221D02*
X200946738Y-133382650D01*
X200946738Y-132382650D02*
X200375310Y-132954079D01*
X203232452Y-132596936D02*
X203446738Y-132668364D01*
X203518167Y-132739793D01*
X203589595Y-132882650D01*
X203589595Y-133096936D01*
X203518167Y-133239793D01*
X203446738Y-133311221D01*
X203303881Y-133382650D01*
X202732452Y-133382650D01*
X202732452Y-131882650D01*
X203232452Y-131882650D01*
X203375310Y-131954079D01*
X203446738Y-132025507D01*
X203518167Y-132168364D01*
X203518167Y-132311221D01*
X203446738Y-132454079D01*
X203375310Y-132525507D01*
X203232452Y-132596936D01*
X202732452Y-132596936D01*
X204446738Y-133382650D02*
X204303881Y-133311221D01*
X204232452Y-133239793D01*
X204161024Y-133096936D01*
X204161024Y-132668364D01*
X204232452Y-132525507D01*
X204303881Y-132454079D01*
X204446738Y-132382650D01*
X204661024Y-132382650D01*
X204803881Y-132454079D01*
X204875310Y-132525507D01*
X204946738Y-132668364D01*
X204946738Y-133096936D01*
X204875310Y-133239793D01*
X204803881Y-133311221D01*
X204661024Y-133382650D01*
X204446738Y-133382650D01*
X205375310Y-132382650D02*
X205946738Y-132382650D01*
X205589595Y-131882650D02*
X205589595Y-133168364D01*
X205661024Y-133311221D01*
X205803881Y-133382650D01*
X205946738Y-133382650D01*
X206232452Y-132382650D02*
X206803881Y-132382650D01*
X206446738Y-131882650D02*
X206446738Y-133168364D01*
X206518167Y-133311221D01*
X206661024Y-133382650D01*
X206803881Y-133382650D01*
X207518167Y-133382650D02*
X207375310Y-133311221D01*
X207303881Y-133239793D01*
X207232452Y-133096936D01*
X207232452Y-132668364D01*
X207303881Y-132525507D01*
X207375310Y-132454079D01*
X207518167Y-132382650D01*
X207732452Y-132382650D01*
X207875310Y-132454079D01*
X207946738Y-132525507D01*
X208018167Y-132668364D01*
X208018167Y-133096936D01*
X207946738Y-133239793D01*
X207875310Y-133311221D01*
X207732452Y-133382650D01*
X207518167Y-133382650D01*
X208661024Y-133382650D02*
X208661024Y-132382650D01*
X208661024Y-132525507D02*
X208732452Y-132454079D01*
X208875310Y-132382650D01*
X209089595Y-132382650D01*
X209232452Y-132454079D01*
X209303881Y-132596936D01*
X209303881Y-133382650D01*
X209303881Y-132596936D02*
X209375310Y-132454079D01*
X209518167Y-132382650D01*
X209732452Y-132382650D01*
X209875310Y-132454079D01*
X209946738Y-132596936D01*
X209946738Y-133382650D01*
X188732452Y-135361221D02*
X189875310Y-135361221D01*
X190589595Y-135361221D02*
X191732452Y-135361221D01*
X192446738Y-135361221D02*
X193589595Y-135361221D01*
X194303881Y-135361221D02*
X195446738Y-135361221D01*
X196161024Y-135361221D02*
X197303881Y-135361221D01*
X198018167Y-135361221D02*
X199161024Y-135361221D01*
X199875310Y-135361221D02*
X201018167Y-135361221D01*
X201732452Y-135361221D02*
X202875310Y-135361221D01*
X203589595Y-135361221D02*
X204732452Y-135361221D01*
X205446738Y-135361221D02*
X206589595Y-135361221D01*
X207303881Y-135361221D02*
X208446738Y-135361221D01*
X209161024Y-135361221D02*
X210303881Y-135361221D01*
X211018167Y-135361221D02*
X212161024Y-135361221D01*
X212875310Y-135361221D02*
X214018167Y-135361221D01*
X214732452Y-135361221D02*
X215875310Y-135361221D01*
X216589595Y-135361221D02*
X217732452Y-135361221D01*
X218446738Y-135361221D02*
X219589595Y-135361221D01*
X220303881Y-135361221D02*
X221446738Y-135361221D01*
X222161024Y-135361221D02*
X223303881Y-135361221D01*
X224018167Y-135361221D02*
X225161024Y-135361221D01*
X225875310Y-135361221D02*
X227018167Y-135361221D01*
X227732452Y-135361221D02*
X228875310Y-135361221D01*
X229589595Y-135361221D02*
X230732452Y-135361221D01*
X231446738Y-135361221D02*
X232589595Y-135361221D01*
X233303881Y-135361221D02*
X234446738Y-135361221D01*
X169501738Y-106979089D02*
X169501738Y-106693374D01*
X169430310Y-106550517D01*
X169358881Y-106479089D01*
X169144595Y-106336231D01*
X168858881Y-106264803D01*
X168287452Y-106264803D01*
X168144595Y-106336231D01*
X168073167Y-106407660D01*
X168001738Y-106550517D01*
X168001738Y-106836231D01*
X168073167Y-106979089D01*
X168144595Y-107050517D01*
X168287452Y-107121946D01*
X168644595Y-107121946D01*
X168787452Y-107050517D01*
X168858881Y-106979089D01*
X168930310Y-106836231D01*
X168930310Y-106550517D01*
X168858881Y-106407660D01*
X168787452Y-106336231D01*
X168644595Y-106264803D01*
X169501738Y-108050517D02*
X169501738Y-108193374D01*
X169430310Y-108336231D01*
X169358881Y-108407660D01*
X169216024Y-108479089D01*
X168930310Y-108550517D01*
X168573167Y-108550517D01*
X168287452Y-108479089D01*
X168144595Y-108407660D01*
X168073167Y-108336231D01*
X168001738Y-108193374D01*
X168001738Y-108050517D01*
X168073167Y-107907660D01*
X168144595Y-107836231D01*
X168287452Y-107764803D01*
X168573167Y-107693374D01*
X168930310Y-107693374D01*
X169216024Y-107764803D01*
X169358881Y-107836231D01*
X169430310Y-107907660D01*
X169501738Y-108050517D01*
X168144595Y-109193374D02*
X168073167Y-109264803D01*
X168001738Y-109193374D01*
X168073167Y-109121946D01*
X168144595Y-109193374D01*
X168001738Y-109193374D01*
X169501738Y-110193374D02*
X169501738Y-110336231D01*
X169430310Y-110479089D01*
X169358881Y-110550517D01*
X169216024Y-110621946D01*
X168930310Y-110693374D01*
X168573167Y-110693374D01*
X168287452Y-110621946D01*
X168144595Y-110550517D01*
X168073167Y-110479089D01*
X168001738Y-110336231D01*
X168001738Y-110193374D01*
X168073167Y-110050517D01*
X168144595Y-109979089D01*
X168287452Y-109907660D01*
X168573167Y-109836231D01*
X168930310Y-109836231D01*
X169216024Y-109907660D01*
X169358881Y-109979089D01*
X169430310Y-110050517D01*
X169501738Y-110193374D01*
X169501738Y-111621946D02*
X169501738Y-111764803D01*
X169430310Y-111907660D01*
X169358881Y-111979089D01*
X169216024Y-112050517D01*
X168930310Y-112121946D01*
X168573167Y-112121946D01*
X168287452Y-112050517D01*
X168144595Y-111979089D01*
X168073167Y-111907660D01*
X168001738Y-111764803D01*
X168001738Y-111621946D01*
X168073167Y-111479089D01*
X168144595Y-111407660D01*
X168287452Y-111336231D01*
X168573167Y-111264803D01*
X168930310Y-111264803D01*
X169216024Y-111336231D01*
X169358881Y-111407660D01*
X169430310Y-111479089D01*
X169501738Y-111621946D01*
X169501738Y-113050517D02*
X169501738Y-113193374D01*
X169430310Y-113336231D01*
X169358881Y-113407660D01*
X169216024Y-113479089D01*
X168930310Y-113550517D01*
X168573167Y-113550517D01*
X168287452Y-113479089D01*
X168144595Y-113407660D01*
X168073167Y-113336231D01*
X168001738Y-113193374D01*
X168001738Y-113050517D01*
X168073167Y-112907660D01*
X168144595Y-112836231D01*
X168287452Y-112764803D01*
X168573167Y-112693374D01*
X168930310Y-112693374D01*
X169216024Y-112764803D01*
X169358881Y-112836231D01*
X169430310Y-112907660D01*
X169501738Y-113050517D01*
X168001738Y-115336231D02*
X169001738Y-115336231D01*
X168858881Y-115336231D02*
X168930310Y-115407660D01*
X169001738Y-115550517D01*
X169001738Y-115764803D01*
X168930310Y-115907660D01*
X168787452Y-115979089D01*
X168001738Y-115979089D01*
X168787452Y-115979089D02*
X168930310Y-116050517D01*
X169001738Y-116193374D01*
X169001738Y-116407660D01*
X168930310Y-116550517D01*
X168787452Y-116621946D01*
X168001738Y-116621946D01*
X168001738Y-117336231D02*
X169001738Y-117336231D01*
X168858881Y-117336231D02*
X168930310Y-117407660D01*
X169001738Y-117550517D01*
X169001738Y-117764803D01*
X168930310Y-117907660D01*
X168787452Y-117979089D01*
X168001738Y-117979089D01*
X168787452Y-117979089D02*
X168930310Y-118050517D01*
X169001738Y-118193374D01*
X169001738Y-118407660D01*
X168930310Y-118550517D01*
X168787452Y-118621946D01*
X168001738Y-118621946D01*
X166580310Y-82479079D02*
X166580310Y-142479099D01*
X152500310Y-82479079D02*
X167166731Y-82479079D01*
X152500310Y-142479099D02*
X167166731Y-142479099D01*
X166580310Y-142479099D02*
X165993889Y-141352595D01*
X166580310Y-142479099D02*
X167166731Y-141352595D01*
X166580310Y-82479079D02*
X165993889Y-83605583D01*
X166580310Y-82479079D02*
X167166731Y-83605583D01*
X117000310Y-70887650D02*
X116714595Y-70887650D01*
X116571738Y-70959079D01*
X116500310Y-71030507D01*
X116357452Y-71244793D01*
X116286024Y-71530507D01*
X116286024Y-72101936D01*
X116357452Y-72244793D01*
X116428881Y-72316221D01*
X116571738Y-72387650D01*
X116857452Y-72387650D01*
X117000310Y-72316221D01*
X117071738Y-72244793D01*
X117143167Y-72101936D01*
X117143167Y-71744793D01*
X117071738Y-71601936D01*
X117000310Y-71530507D01*
X116857452Y-71459079D01*
X116571738Y-71459079D01*
X116428881Y-71530507D01*
X116357452Y-71601936D01*
X116286024Y-71744793D01*
X118071738Y-70887650D02*
X118214595Y-70887650D01*
X118357452Y-70959079D01*
X118428881Y-71030507D01*
X118500310Y-71173364D01*
X118571738Y-71459079D01*
X118571738Y-71816221D01*
X118500310Y-72101936D01*
X118428881Y-72244793D01*
X118357452Y-72316221D01*
X118214595Y-72387650D01*
X118071738Y-72387650D01*
X117928881Y-72316221D01*
X117857452Y-72244793D01*
X117786024Y-72101936D01*
X117714595Y-71816221D01*
X117714595Y-71459079D01*
X117786024Y-71173364D01*
X117857452Y-71030507D01*
X117928881Y-70959079D01*
X118071738Y-70887650D01*
X119214595Y-72244793D02*
X119286024Y-72316221D01*
X119214595Y-72387650D01*
X119143167Y-72316221D01*
X119214595Y-72244793D01*
X119214595Y-72387650D01*
X120214595Y-70887650D02*
X120357452Y-70887650D01*
X120500310Y-70959079D01*
X120571738Y-71030507D01*
X120643167Y-71173364D01*
X120714595Y-71459079D01*
X120714595Y-71816221D01*
X120643167Y-72101936D01*
X120571738Y-72244793D01*
X120500310Y-72316221D01*
X120357452Y-72387650D01*
X120214595Y-72387650D01*
X120071738Y-72316221D01*
X120000310Y-72244793D01*
X119928881Y-72101936D01*
X119857452Y-71816221D01*
X119857452Y-71459079D01*
X119928881Y-71173364D01*
X120000310Y-71030507D01*
X120071738Y-70959079D01*
X120214595Y-70887650D01*
X121643167Y-70887650D02*
X121786024Y-70887650D01*
X121928881Y-70959079D01*
X122000310Y-71030507D01*
X122071738Y-71173364D01*
X122143167Y-71459079D01*
X122143167Y-71816221D01*
X122071738Y-72101936D01*
X122000310Y-72244793D01*
X121928881Y-72316221D01*
X121786024Y-72387650D01*
X121643167Y-72387650D01*
X121500310Y-72316221D01*
X121428881Y-72244793D01*
X121357452Y-72101936D01*
X121286024Y-71816221D01*
X121286024Y-71459079D01*
X121357452Y-71173364D01*
X121428881Y-71030507D01*
X121500310Y-70959079D01*
X121643167Y-70887650D01*
X123071738Y-70887650D02*
X123214595Y-70887650D01*
X123357452Y-70959079D01*
X123428881Y-71030507D01*
X123500310Y-71173364D01*
X123571738Y-71459079D01*
X123571738Y-71816221D01*
X123500310Y-72101936D01*
X123428881Y-72244793D01*
X123357452Y-72316221D01*
X123214595Y-72387650D01*
X123071738Y-72387650D01*
X122928881Y-72316221D01*
X122857452Y-72244793D01*
X122786024Y-72101936D01*
X122714595Y-71816221D01*
X122714595Y-71459079D01*
X122786024Y-71173364D01*
X122857452Y-71030507D01*
X122928881Y-70959079D01*
X123071738Y-70887650D01*
X125357452Y-72387650D02*
X125357452Y-71387650D01*
X125357452Y-71530507D02*
X125428881Y-71459079D01*
X125571738Y-71387650D01*
X125786024Y-71387650D01*
X125928881Y-71459079D01*
X126000310Y-71601936D01*
X126000310Y-72387650D01*
X126000310Y-71601936D02*
X126071738Y-71459079D01*
X126214595Y-71387650D01*
X126428881Y-71387650D01*
X126571738Y-71459079D01*
X126643167Y-71601936D01*
X126643167Y-72387650D01*
X127357452Y-72387650D02*
X127357452Y-71387650D01*
X127357452Y-71530507D02*
X127428881Y-71459079D01*
X127571738Y-71387650D01*
X127786024Y-71387650D01*
X127928881Y-71459079D01*
X128000310Y-71601936D01*
X128000310Y-72387650D01*
X128000310Y-71601936D02*
X128071738Y-71459079D01*
X128214595Y-71387650D01*
X128428881Y-71387650D01*
X128571738Y-71459079D01*
X128643167Y-71601936D01*
X128643167Y-72387650D01*
X92500310Y-73809079D02*
X152500310Y-73809079D01*
X92500310Y-82499079D02*
X92500310Y-73222658D01*
X152500310Y-82499079D02*
X152500310Y-73222658D01*
X152500310Y-73809079D02*
X151373806Y-74395500D01*
X152500310Y-73809079D02*
X151373806Y-73222658D01*
X92500310Y-73809079D02*
X93626814Y-74395500D01*
X92500310Y-73809079D02*
X93626814Y-73222658D01*
D11*
G04 #@! TO.C,D9*
X101500000Y-111210000D02*
X101500000Y-111210000D01*
X101500000Y-113750000D02*
X101500000Y-113750000D01*
G04 #@! TO.C,D6*
X101500000Y-123000000D02*
X101500000Y-123000000D01*
X101500000Y-120460000D02*
X101500000Y-120460000D01*
G04 #@! TO.C,D5*
X101500000Y-104500000D02*
X101500000Y-104500000D01*
X101500000Y-101960000D02*
X101500000Y-101960000D01*
G04 #@! TO.C,D13*
X101500000Y-94500000D02*
X101500000Y-94500000D01*
X101500000Y-91960000D02*
X101500000Y-91960000D01*
G04 #@! TO.C,D4*
X101500000Y-133040000D02*
X101500000Y-133040000D01*
X101500000Y-130500000D02*
X101500000Y-130500000D01*
G04 #@! TO.C,D7*
X144500000Y-137640000D02*
X144500000Y-137640000D01*
X144500000Y-135100000D02*
X144500000Y-135100000D01*
G04 #@! TO.C,D10*
X144600000Y-89840000D02*
X144600000Y-89840000D01*
X144600000Y-87300000D02*
X144600000Y-87300000D01*
G04 #@! TO.C,D8*
X144500000Y-130500000D02*
X144500000Y-130500000D01*
X144500000Y-127960000D02*
X144500000Y-127960000D01*
G04 #@! TO.C,D11*
X144600000Y-97000000D02*
X144600000Y-97000000D01*
X144600000Y-94460000D02*
X144600000Y-94460000D01*
G04 #@! TO.C,D14*
X144500000Y-113749079D02*
X144500000Y-113749079D01*
X144500000Y-111209079D02*
X144500000Y-111209079D01*
G04 #@! TO.C,C3*
X134754926Y-86276604D02*
G75*
G03X134754926Y-86276604I-3150000J0D01*
G01*
X133666667Y-88488664D02*
X133074661Y-88273192D01*
X133262928Y-88676931D02*
X133478400Y-88084925D01*
G04 #@! TO.C,J53*
X148000000Y-94720000D02*
X146500000Y-95670000D01*
X146500000Y-93770000D02*
X148000000Y-94720000D01*
X146500000Y-86100000D02*
X146500000Y-98260000D01*
X158500000Y-86100000D02*
X146500000Y-86100000D01*
X158500000Y-98260000D02*
X158500000Y-86100000D01*
X146500000Y-98260000D02*
X158500000Y-98260000D01*
G04 #@! TO.C,J52*
X148000000Y-135360000D02*
X146500000Y-136310000D01*
X146500000Y-134410000D02*
X148000000Y-135360000D01*
X146500000Y-126740000D02*
X146500000Y-138900000D01*
X158500000Y-126740000D02*
X146500000Y-126740000D01*
X158500000Y-138900000D02*
X158500000Y-126740000D01*
X146500000Y-138900000D02*
X158500000Y-138900000D01*
G04 #@! TO.C,C51*
X143432015Y-125997500D02*
X143432015Y-124697500D01*
X144082015Y-125347500D02*
X142782015Y-125347500D01*
X145000000Y-122500000D02*
G75*
G03X145000000Y-122500000I-6500000J0D01*
G01*
G04 #@! TO.C,C52*
X143432015Y-105497500D02*
X143432015Y-104197500D01*
X144082015Y-104847500D02*
X142782015Y-104847500D01*
X145000000Y-102000000D02*
G75*
G03X145000000Y-102000000I-6500000J0D01*
G01*
G04 #@! TO.C,J51*
X148000000Y-120120000D02*
X146500000Y-121070000D01*
X146500000Y-119170000D02*
X148000000Y-120120000D01*
X146500000Y-101340000D02*
X146500000Y-123660000D01*
X158500000Y-101340000D02*
X146500000Y-101340000D01*
X158500000Y-123660000D02*
X158500000Y-101340000D01*
X146500000Y-123660000D02*
X158500000Y-123660000D01*
G04 #@! TD*
G04 #@! TO.C,D9*
D12*
X84842380Y-113122857D02*
X84842380Y-113599047D01*
X83842380Y-113599047D01*
X84318571Y-112789523D02*
X84318571Y-112456190D01*
X84842380Y-112313333D02*
X84842380Y-112789523D01*
X83842380Y-112789523D01*
X83842380Y-112313333D01*
X84842380Y-111884761D02*
X83842380Y-111884761D01*
X83842380Y-111646666D01*
X83890000Y-111503809D01*
X83985238Y-111408571D01*
X84080476Y-111360952D01*
X84270952Y-111313333D01*
X84413809Y-111313333D01*
X84604285Y-111360952D01*
X84699523Y-111408571D01*
X84794761Y-111503809D01*
X84842380Y-111646666D01*
X84842380Y-111884761D01*
G04 #@! TO.C,D6*
X84842380Y-122372857D02*
X84842380Y-122849047D01*
X83842380Y-122849047D01*
X84318571Y-122039523D02*
X84318571Y-121706190D01*
X84842380Y-121563333D02*
X84842380Y-122039523D01*
X83842380Y-122039523D01*
X83842380Y-121563333D01*
X84842380Y-121134761D02*
X83842380Y-121134761D01*
X83842380Y-120896666D01*
X83890000Y-120753809D01*
X83985238Y-120658571D01*
X84080476Y-120610952D01*
X84270952Y-120563333D01*
X84413809Y-120563333D01*
X84604285Y-120610952D01*
X84699523Y-120658571D01*
X84794761Y-120753809D01*
X84842380Y-120896666D01*
X84842380Y-121134761D01*
G04 #@! TO.C,D5*
X84842380Y-103872857D02*
X84842380Y-104349047D01*
X83842380Y-104349047D01*
X84318571Y-103539523D02*
X84318571Y-103206190D01*
X84842380Y-103063333D02*
X84842380Y-103539523D01*
X83842380Y-103539523D01*
X83842380Y-103063333D01*
X84842380Y-102634761D02*
X83842380Y-102634761D01*
X83842380Y-102396666D01*
X83890000Y-102253809D01*
X83985238Y-102158571D01*
X84080476Y-102110952D01*
X84270952Y-102063333D01*
X84413809Y-102063333D01*
X84604285Y-102110952D01*
X84699523Y-102158571D01*
X84794761Y-102253809D01*
X84842380Y-102396666D01*
X84842380Y-102634761D01*
G04 #@! TO.C,D13*
X84842380Y-93872857D02*
X84842380Y-94349047D01*
X83842380Y-94349047D01*
X84318571Y-93539523D02*
X84318571Y-93206190D01*
X84842380Y-93063333D02*
X84842380Y-93539523D01*
X83842380Y-93539523D01*
X83842380Y-93063333D01*
X84842380Y-92634761D02*
X83842380Y-92634761D01*
X83842380Y-92396666D01*
X83890000Y-92253809D01*
X83985238Y-92158571D01*
X84080476Y-92110952D01*
X84270952Y-92063333D01*
X84413809Y-92063333D01*
X84604285Y-92110952D01*
X84699523Y-92158571D01*
X84794761Y-92253809D01*
X84842380Y-92396666D01*
X84842380Y-92634761D01*
G04 #@! TO.C,D4*
X84842380Y-132412857D02*
X84842380Y-132889047D01*
X83842380Y-132889047D01*
X84318571Y-132079523D02*
X84318571Y-131746190D01*
X84842380Y-131603333D02*
X84842380Y-132079523D01*
X83842380Y-132079523D01*
X83842380Y-131603333D01*
X84842380Y-131174761D02*
X83842380Y-131174761D01*
X83842380Y-130936666D01*
X83890000Y-130793809D01*
X83985238Y-130698571D01*
X84080476Y-130650952D01*
X84270952Y-130603333D01*
X84413809Y-130603333D01*
X84604285Y-130650952D01*
X84699523Y-130698571D01*
X84794761Y-130793809D01*
X84842380Y-130936666D01*
X84842380Y-131174761D01*
G04 #@! TO.C,D7*
X162062380Y-137012857D02*
X162062380Y-137489047D01*
X161062380Y-137489047D01*
X161538571Y-136679523D02*
X161538571Y-136346190D01*
X162062380Y-136203333D02*
X162062380Y-136679523D01*
X161062380Y-136679523D01*
X161062380Y-136203333D01*
X162062380Y-135774761D02*
X161062380Y-135774761D01*
X161062380Y-135536666D01*
X161110000Y-135393809D01*
X161205238Y-135298571D01*
X161300476Y-135250952D01*
X161490952Y-135203333D01*
X161633809Y-135203333D01*
X161824285Y-135250952D01*
X161919523Y-135298571D01*
X162014761Y-135393809D01*
X162062380Y-135536666D01*
X162062380Y-135774761D01*
G04 #@! TO.C,D10*
X162162380Y-89831904D02*
X162162380Y-90308095D01*
X161162380Y-90308095D01*
X161638571Y-89498571D02*
X161638571Y-89165238D01*
X162162380Y-89022380D02*
X162162380Y-89498571D01*
X161162380Y-89498571D01*
X161162380Y-89022380D01*
X162162380Y-88593809D02*
X161162380Y-88593809D01*
X161162380Y-88355714D01*
X161210000Y-88212857D01*
X161305238Y-88117619D01*
X161400476Y-88070000D01*
X161590952Y-88022380D01*
X161733809Y-88022380D01*
X161924285Y-88070000D01*
X162019523Y-88117619D01*
X162114761Y-88212857D01*
X162162380Y-88355714D01*
X162162380Y-88593809D01*
X162257619Y-87831904D02*
X162257619Y-87070000D01*
X162162380Y-86831904D02*
X161162380Y-86831904D01*
G04 #@! TO.C,D8*
X162062380Y-130491904D02*
X162062380Y-130968095D01*
X161062380Y-130968095D01*
X161538571Y-130158571D02*
X161538571Y-129825238D01*
X162062380Y-129682380D02*
X162062380Y-130158571D01*
X161062380Y-130158571D01*
X161062380Y-129682380D01*
X162062380Y-129253809D02*
X161062380Y-129253809D01*
X161062380Y-129015714D01*
X161110000Y-128872857D01*
X161205238Y-128777619D01*
X161300476Y-128730000D01*
X161490952Y-128682380D01*
X161633809Y-128682380D01*
X161824285Y-128730000D01*
X161919523Y-128777619D01*
X162014761Y-128872857D01*
X162062380Y-129015714D01*
X162062380Y-129253809D01*
X162157619Y-128491904D02*
X162157619Y-127730000D01*
X162062380Y-127491904D02*
X161062380Y-127491904D01*
G04 #@! TO.C,D11*
X162162380Y-96372857D02*
X162162380Y-96849047D01*
X161162380Y-96849047D01*
X161638571Y-96039523D02*
X161638571Y-95706190D01*
X162162380Y-95563333D02*
X162162380Y-96039523D01*
X161162380Y-96039523D01*
X161162380Y-95563333D01*
X162162380Y-95134761D02*
X161162380Y-95134761D01*
X161162380Y-94896666D01*
X161210000Y-94753809D01*
X161305238Y-94658571D01*
X161400476Y-94610952D01*
X161590952Y-94563333D01*
X161733809Y-94563333D01*
X161924285Y-94610952D01*
X162019523Y-94658571D01*
X162114761Y-94753809D01*
X162162380Y-94896666D01*
X162162380Y-95134761D01*
G04 #@! TO.C,D14*
X162062380Y-113740983D02*
X162062380Y-114217174D01*
X161062380Y-114217174D01*
X161538571Y-113407650D02*
X161538571Y-113074317D01*
X162062380Y-112931459D02*
X162062380Y-113407650D01*
X161062380Y-113407650D01*
X161062380Y-112931459D01*
X162062380Y-112502888D02*
X161062380Y-112502888D01*
X161062380Y-112264793D01*
X161110000Y-112121936D01*
X161205238Y-112026698D01*
X161300476Y-111979079D01*
X161490952Y-111931459D01*
X161633809Y-111931459D01*
X161824285Y-111979079D01*
X161919523Y-112026698D01*
X162014761Y-112121936D01*
X162062380Y-112264793D01*
X162062380Y-112502888D01*
X162157619Y-111740983D02*
X162157619Y-110979079D01*
X162062380Y-110740983D02*
X161062380Y-110740983D01*
G04 #@! TO.C,C3*
X129640009Y-80397636D02*
X129701043Y-80369175D01*
X129806824Y-80357001D01*
X130030561Y-80438435D01*
X130103769Y-80515755D01*
X130132229Y-80576789D01*
X130144403Y-80682571D01*
X130111830Y-80772065D01*
X130018222Y-80890020D01*
X129285815Y-81231547D01*
X129867530Y-81443274D01*
X130534955Y-80723369D02*
X130595989Y-80694909D01*
X130701770Y-80682735D01*
X130925506Y-80764168D01*
X130998714Y-80841489D01*
X131027175Y-80902523D01*
X131039348Y-81008304D01*
X131006775Y-81097799D01*
X130913168Y-81215754D01*
X130180761Y-81557281D01*
X130762475Y-81769008D01*
X131686210Y-81041042D02*
X131775704Y-81073615D01*
X131848912Y-81150936D01*
X131877373Y-81211970D01*
X131889547Y-81317751D01*
X131869147Y-81513027D01*
X131787714Y-81736763D01*
X131677820Y-81899465D01*
X131600499Y-81972673D01*
X131539465Y-82001134D01*
X131433684Y-82013308D01*
X131344189Y-81980734D01*
X131270982Y-81903414D01*
X131242521Y-81842380D01*
X131230347Y-81736599D01*
X131250747Y-81541323D01*
X131332180Y-81317586D01*
X131442074Y-81154884D01*
X131519394Y-81081676D01*
X131580428Y-81053216D01*
X131686210Y-81041042D01*
X132690885Y-81761439D02*
X132462871Y-82387901D01*
X132288159Y-81614859D02*
X132109006Y-82107079D01*
X132121180Y-82212860D01*
X132194388Y-82290181D01*
X132328629Y-82339041D01*
X132434411Y-82326867D01*
X132495445Y-82298407D01*
X133402728Y-82172555D02*
X133089497Y-82058548D01*
X132910344Y-82550768D02*
X133252364Y-81611075D01*
X133699837Y-81773942D01*
X133626300Y-82811355D02*
X134346533Y-82364046D01*
X133854314Y-82184893D02*
X134118520Y-82990508D01*
X134741198Y-82254317D02*
X134802232Y-82225856D01*
X134908013Y-82213682D01*
X135131749Y-82295116D01*
X135204957Y-82372436D01*
X135233418Y-82433470D01*
X135245592Y-82539251D01*
X135213018Y-82628746D01*
X135119411Y-82746701D01*
X134387004Y-83088228D01*
X134968718Y-83299955D01*
X136160936Y-82669709D02*
X135713464Y-82506842D01*
X135505850Y-82938028D01*
X135566884Y-82909568D01*
X135672665Y-82897394D01*
X135896401Y-82978827D01*
X135969609Y-83056148D01*
X135998070Y-83117182D01*
X136010244Y-83222963D01*
X135928810Y-83446699D01*
X135851490Y-83519907D01*
X135790456Y-83548368D01*
X135684674Y-83560542D01*
X135460938Y-83479108D01*
X135387730Y-83401788D01*
X135359270Y-83340754D01*
X136404908Y-83113233D02*
X136400631Y-83821128D01*
X136852380Y-83276100D01*
X127860872Y-89497445D02*
X127799838Y-89525905D01*
X127649310Y-89521792D01*
X127559815Y-89489219D01*
X127441860Y-89395612D01*
X127384939Y-89273544D01*
X127372765Y-89167763D01*
X127393164Y-88972487D01*
X127442024Y-88838245D01*
X127551918Y-88675543D01*
X127629239Y-88602335D01*
X127751307Y-88545414D01*
X127901835Y-88549527D01*
X127991330Y-88582100D01*
X128109285Y-88675707D01*
X128137745Y-88736741D01*
X128483550Y-88761253D02*
X129065264Y-88972980D01*
X128621740Y-89216951D01*
X128755982Y-89265811D01*
X128829190Y-89343132D01*
X128857650Y-89404166D01*
X128869824Y-89509947D01*
X128788391Y-89733684D01*
X128711070Y-89806891D01*
X128650036Y-89835352D01*
X128544255Y-89847526D01*
X128275771Y-89749806D01*
X128202563Y-89672485D01*
X128174103Y-89611451D01*
G04 #@! TO.C,J53*
X159857142Y-95918095D02*
X159904761Y-95965714D01*
X159952380Y-96108571D01*
X159952380Y-96203809D01*
X159904761Y-96346666D01*
X159809523Y-96441904D01*
X159714285Y-96489523D01*
X159523809Y-96537142D01*
X159380952Y-96537142D01*
X159190476Y-96489523D01*
X159095238Y-96441904D01*
X159000000Y-96346666D01*
X158952380Y-96203809D01*
X158952380Y-96108571D01*
X159000000Y-95965714D01*
X159047619Y-95918095D01*
X159952380Y-95346666D02*
X159904761Y-95441904D01*
X159857142Y-95489523D01*
X159761904Y-95537142D01*
X159476190Y-95537142D01*
X159380952Y-95489523D01*
X159333333Y-95441904D01*
X159285714Y-95346666D01*
X159285714Y-95203809D01*
X159333333Y-95108571D01*
X159380952Y-95060952D01*
X159476190Y-95013333D01*
X159761904Y-95013333D01*
X159857142Y-95060952D01*
X159904761Y-95108571D01*
X159952380Y-95203809D01*
X159952380Y-95346666D01*
X159285714Y-94584761D02*
X159952380Y-94584761D01*
X159380952Y-94584761D02*
X159333333Y-94537142D01*
X159285714Y-94441904D01*
X159285714Y-94299047D01*
X159333333Y-94203809D01*
X159428571Y-94156190D01*
X159952380Y-94156190D01*
X159285714Y-93680000D02*
X159952380Y-93680000D01*
X159380952Y-93680000D02*
X159333333Y-93632380D01*
X159285714Y-93537142D01*
X159285714Y-93394285D01*
X159333333Y-93299047D01*
X159428571Y-93251428D01*
X159952380Y-93251428D01*
X160047619Y-93013333D02*
X160047619Y-92251428D01*
X158952380Y-91822857D02*
X158952380Y-91727619D01*
X159000000Y-91632380D01*
X159047619Y-91584761D01*
X159142857Y-91537142D01*
X159333333Y-91489523D01*
X159571428Y-91489523D01*
X159761904Y-91537142D01*
X159857142Y-91584761D01*
X159904761Y-91632380D01*
X159952380Y-91727619D01*
X159952380Y-91822857D01*
X159904761Y-91918095D01*
X159857142Y-91965714D01*
X159761904Y-92013333D01*
X159571428Y-92060952D01*
X159333333Y-92060952D01*
X159142857Y-92013333D01*
X159047619Y-91965714D01*
X159000000Y-91918095D01*
X158952380Y-91822857D01*
X159952380Y-90537142D02*
X159952380Y-91108571D01*
X159952380Y-90822857D02*
X158952380Y-90822857D01*
X159095238Y-90918095D01*
X159190476Y-91013333D01*
X159238095Y-91108571D01*
X159952380Y-90203809D02*
X159285714Y-89680000D01*
X159285714Y-90203809D02*
X159952380Y-89680000D01*
X158952380Y-89108571D02*
X158952380Y-89013333D01*
X159000000Y-88918095D01*
X159047619Y-88870476D01*
X159142857Y-88822857D01*
X159333333Y-88775238D01*
X159571428Y-88775238D01*
X159761904Y-88822857D01*
X159857142Y-88870476D01*
X159904761Y-88918095D01*
X159952380Y-89013333D01*
X159952380Y-89108571D01*
X159904761Y-89203809D01*
X159857142Y-89251428D01*
X159761904Y-89299047D01*
X159571428Y-89346666D01*
X159333333Y-89346666D01*
X159142857Y-89299047D01*
X159047619Y-89251428D01*
X159000000Y-89203809D01*
X158952380Y-89108571D01*
X159047619Y-88394285D02*
X159000000Y-88346666D01*
X158952380Y-88251428D01*
X158952380Y-88013333D01*
X159000000Y-87918095D01*
X159047619Y-87870476D01*
X159142857Y-87822857D01*
X159238095Y-87822857D01*
X159380952Y-87870476D01*
X159952380Y-88441904D01*
X159952380Y-87822857D01*
X150952380Y-91989523D02*
X151666666Y-91989523D01*
X151809523Y-92037142D01*
X151904761Y-92132380D01*
X151952380Y-92275238D01*
X151952380Y-92370476D01*
X150952380Y-91037142D02*
X150952380Y-91513333D01*
X151428571Y-91560952D01*
X151380952Y-91513333D01*
X151333333Y-91418095D01*
X151333333Y-91180000D01*
X151380952Y-91084761D01*
X151428571Y-91037142D01*
X151523809Y-90989523D01*
X151761904Y-90989523D01*
X151857142Y-91037142D01*
X151904761Y-91084761D01*
X151952380Y-91180000D01*
X151952380Y-91418095D01*
X151904761Y-91513333D01*
X151857142Y-91560952D01*
X150952380Y-90656190D02*
X150952380Y-90037142D01*
X151333333Y-90370476D01*
X151333333Y-90227619D01*
X151380952Y-90132380D01*
X151428571Y-90084761D01*
X151523809Y-90037142D01*
X151761904Y-90037142D01*
X151857142Y-90084761D01*
X151904761Y-90132380D01*
X151952380Y-90227619D01*
X151952380Y-90513333D01*
X151904761Y-90608571D01*
X151857142Y-90656190D01*
G04 #@! TO.C,L101*
X119892214Y-134951459D02*
X119796976Y-134903840D01*
X119749357Y-134808602D01*
X119749357Y-133951459D01*
X120416024Y-134951459D02*
X120320786Y-134903840D01*
X120273167Y-134856221D01*
X120225548Y-134760983D01*
X120225548Y-134475269D01*
X120273167Y-134380031D01*
X120320786Y-134332412D01*
X120416024Y-134284793D01*
X120558881Y-134284793D01*
X120654119Y-134332412D01*
X120701738Y-134380031D01*
X120749357Y-134475269D01*
X120749357Y-134760983D01*
X120701738Y-134856221D01*
X120654119Y-134903840D01*
X120558881Y-134951459D01*
X120416024Y-134951459D01*
X121606500Y-134284793D02*
X121606500Y-135094317D01*
X121558881Y-135189555D01*
X121511262Y-135237174D01*
X121416024Y-135284793D01*
X121273167Y-135284793D01*
X121177929Y-135237174D01*
X121606500Y-134903840D02*
X121511262Y-134951459D01*
X121320786Y-134951459D01*
X121225548Y-134903840D01*
X121177929Y-134856221D01*
X121130310Y-134760983D01*
X121130310Y-134475269D01*
X121177929Y-134380031D01*
X121225548Y-134332412D01*
X121320786Y-134284793D01*
X121511262Y-134284793D01*
X121606500Y-134332412D01*
X122225548Y-134951459D02*
X122130310Y-134903840D01*
X122082690Y-134856221D01*
X122035071Y-134760983D01*
X122035071Y-134475269D01*
X122082690Y-134380031D01*
X122130310Y-134332412D01*
X122225548Y-134284793D01*
X122368405Y-134284793D01*
X122463643Y-134332412D01*
X122511262Y-134380031D01*
X122558881Y-134475269D01*
X122558881Y-134760983D01*
X122511262Y-134856221D01*
X122463643Y-134903840D01*
X122368405Y-134951459D01*
X122225548Y-134951459D01*
X122749357Y-135046698D02*
X123511262Y-135046698D01*
X124177929Y-134951459D02*
X124177929Y-133951459D01*
X124177929Y-134903840D02*
X124082690Y-134951459D01*
X123892214Y-134951459D01*
X123796976Y-134903840D01*
X123749357Y-134856221D01*
X123701738Y-134760983D01*
X123701738Y-134475269D01*
X123749357Y-134380031D01*
X123796976Y-134332412D01*
X123892214Y-134284793D01*
X124082690Y-134284793D01*
X124177929Y-134332412D01*
X125082690Y-134903840D02*
X124987452Y-134951459D01*
X124796976Y-134951459D01*
X124701738Y-134903840D01*
X124654119Y-134856221D01*
X124606500Y-134760983D01*
X124606500Y-134475269D01*
X124654119Y-134380031D01*
X124701738Y-134332412D01*
X124796976Y-134284793D01*
X124987452Y-134284793D01*
X125082690Y-134332412D01*
X125511262Y-134951459D02*
X125511262Y-134284793D01*
X125511262Y-133951459D02*
X125463643Y-133999079D01*
X125511262Y-134046698D01*
X125558881Y-133999079D01*
X125511262Y-133951459D01*
X125511262Y-134046698D01*
G04 #@! TO.C,MH101*
X120833333Y-141152380D02*
X121452380Y-141152380D01*
X121119047Y-141533333D01*
X121261904Y-141533333D01*
X121357142Y-141580952D01*
X121404761Y-141628571D01*
X121452380Y-141723809D01*
X121452380Y-141961904D01*
X121404761Y-142057142D01*
X121357142Y-142104761D01*
X121261904Y-142152380D01*
X120976190Y-142152380D01*
X120880952Y-142104761D01*
X120833333Y-142057142D01*
X121880952Y-142152380D02*
X121880952Y-141485714D01*
X121880952Y-141580952D02*
X121928571Y-141533333D01*
X122023809Y-141485714D01*
X122166666Y-141485714D01*
X122261904Y-141533333D01*
X122309523Y-141628571D01*
X122309523Y-142152380D01*
X122309523Y-141628571D02*
X122357142Y-141533333D01*
X122452380Y-141485714D01*
X122595238Y-141485714D01*
X122690476Y-141533333D01*
X122738095Y-141628571D01*
X122738095Y-142152380D01*
X123214285Y-142152380D02*
X123214285Y-141485714D01*
X123214285Y-141580952D02*
X123261904Y-141533333D01*
X123357142Y-141485714D01*
X123500000Y-141485714D01*
X123595238Y-141533333D01*
X123642857Y-141628571D01*
X123642857Y-142152380D01*
X123642857Y-141628571D02*
X123690476Y-141533333D01*
X123785714Y-141485714D01*
X123928571Y-141485714D01*
X124023809Y-141533333D01*
X124071428Y-141628571D01*
X124071428Y-142152380D01*
X120514285Y-137952380D02*
X120514285Y-136952380D01*
X120847619Y-137666666D01*
X121180952Y-136952380D01*
X121180952Y-137952380D01*
X121657142Y-137952380D02*
X121657142Y-136952380D01*
X121657142Y-137428571D02*
X122228571Y-137428571D01*
X122228571Y-137952380D02*
X122228571Y-136952380D01*
X123228571Y-137952380D02*
X122657142Y-137952380D01*
X122942857Y-137952380D02*
X122942857Y-136952380D01*
X122847619Y-137095238D01*
X122752380Y-137190476D01*
X122657142Y-137238095D01*
X123847619Y-136952380D02*
X123942857Y-136952380D01*
X124038095Y-137000000D01*
X124085714Y-137047619D01*
X124133333Y-137142857D01*
X124180952Y-137333333D01*
X124180952Y-137571428D01*
X124133333Y-137761904D01*
X124085714Y-137857142D01*
X124038095Y-137904761D01*
X123942857Y-137952380D01*
X123847619Y-137952380D01*
X123752380Y-137904761D01*
X123704761Y-137857142D01*
X123657142Y-137761904D01*
X123609523Y-137571428D01*
X123609523Y-137333333D01*
X123657142Y-137142857D01*
X123704761Y-137047619D01*
X123752380Y-137000000D01*
X123847619Y-136952380D01*
X125133333Y-137952380D02*
X124561904Y-137952380D01*
X124847619Y-137952380D02*
X124847619Y-136952380D01*
X124752380Y-137095238D01*
X124657142Y-137190476D01*
X124561904Y-137238095D01*
G04 #@! TO.C,MH102*
X120833333Y-91152380D02*
X121452380Y-91152380D01*
X121119047Y-91533333D01*
X121261904Y-91533333D01*
X121357142Y-91580952D01*
X121404761Y-91628571D01*
X121452380Y-91723809D01*
X121452380Y-91961904D01*
X121404761Y-92057142D01*
X121357142Y-92104761D01*
X121261904Y-92152380D01*
X120976190Y-92152380D01*
X120880952Y-92104761D01*
X120833333Y-92057142D01*
X121880952Y-92152380D02*
X121880952Y-91485714D01*
X121880952Y-91580952D02*
X121928571Y-91533333D01*
X122023809Y-91485714D01*
X122166666Y-91485714D01*
X122261904Y-91533333D01*
X122309523Y-91628571D01*
X122309523Y-92152380D01*
X122309523Y-91628571D02*
X122357142Y-91533333D01*
X122452380Y-91485714D01*
X122595238Y-91485714D01*
X122690476Y-91533333D01*
X122738095Y-91628571D01*
X122738095Y-92152380D01*
X123214285Y-92152380D02*
X123214285Y-91485714D01*
X123214285Y-91580952D02*
X123261904Y-91533333D01*
X123357142Y-91485714D01*
X123500000Y-91485714D01*
X123595238Y-91533333D01*
X123642857Y-91628571D01*
X123642857Y-92152380D01*
X123642857Y-91628571D02*
X123690476Y-91533333D01*
X123785714Y-91485714D01*
X123928571Y-91485714D01*
X124023809Y-91533333D01*
X124071428Y-91628571D01*
X124071428Y-92152380D01*
X120514285Y-87952380D02*
X120514285Y-86952380D01*
X120847619Y-87666666D01*
X121180952Y-86952380D01*
X121180952Y-87952380D01*
X121657142Y-87952380D02*
X121657142Y-86952380D01*
X121657142Y-87428571D02*
X122228571Y-87428571D01*
X122228571Y-87952380D02*
X122228571Y-86952380D01*
X123228571Y-87952380D02*
X122657142Y-87952380D01*
X122942857Y-87952380D02*
X122942857Y-86952380D01*
X122847619Y-87095238D01*
X122752380Y-87190476D01*
X122657142Y-87238095D01*
X123847619Y-86952380D02*
X123942857Y-86952380D01*
X124038095Y-87000000D01*
X124085714Y-87047619D01*
X124133333Y-87142857D01*
X124180952Y-87333333D01*
X124180952Y-87571428D01*
X124133333Y-87761904D01*
X124085714Y-87857142D01*
X124038095Y-87904761D01*
X123942857Y-87952380D01*
X123847619Y-87952380D01*
X123752380Y-87904761D01*
X123704761Y-87857142D01*
X123657142Y-87761904D01*
X123609523Y-87571428D01*
X123609523Y-87333333D01*
X123657142Y-87142857D01*
X123704761Y-87047619D01*
X123752380Y-87000000D01*
X123847619Y-86952380D01*
X124561904Y-87047619D02*
X124609523Y-87000000D01*
X124704761Y-86952380D01*
X124942857Y-86952380D01*
X125038095Y-87000000D01*
X125085714Y-87047619D01*
X125133333Y-87142857D01*
X125133333Y-87238095D01*
X125085714Y-87380952D01*
X124514285Y-87952380D01*
X125133333Y-87952380D01*
G04 #@! TO.C,J56*
D13*
X102093428Y-114068285D02*
X101367714Y-114576285D01*
X102093428Y-114939142D02*
X100569428Y-114939142D01*
X100569428Y-114358571D01*
X100642000Y-114213428D01*
X100714571Y-114140857D01*
X100859714Y-114068285D01*
X101077428Y-114068285D01*
X101222571Y-114140857D01*
X101295142Y-114213428D01*
X101367714Y-114358571D01*
X101367714Y-114939142D01*
X100569428Y-112979714D02*
X101658000Y-112979714D01*
X101875714Y-113052285D01*
X102020857Y-113197428D01*
X102093428Y-113415142D01*
X102093428Y-113560285D01*
X102093428Y-111455714D02*
X102093428Y-112326571D01*
X102093428Y-111891142D02*
X100569428Y-111891142D01*
X100787142Y-112036285D01*
X100932285Y-112181428D01*
X101004857Y-112326571D01*
X100714571Y-110875142D02*
X100642000Y-110802571D01*
X100569428Y-110657428D01*
X100569428Y-110294571D01*
X100642000Y-110149428D01*
X100714571Y-110076857D01*
X100859714Y-110004285D01*
X101004857Y-110004285D01*
X101222571Y-110076857D01*
X102093428Y-110947714D01*
X102093428Y-110004285D01*
G04 #@! TO.C,J55*
X78870024Y-98538507D02*
X78362024Y-97812793D01*
X77999167Y-98538507D02*
X77999167Y-97014507D01*
X78579738Y-97014507D01*
X78724881Y-97087079D01*
X78797452Y-97159650D01*
X78870024Y-97304793D01*
X78870024Y-97522507D01*
X78797452Y-97667650D01*
X78724881Y-97740221D01*
X78579738Y-97812793D01*
X77999167Y-97812793D01*
X79958595Y-97014507D02*
X79958595Y-98103079D01*
X79886024Y-98320793D01*
X79740881Y-98465936D01*
X79523167Y-98538507D01*
X79378024Y-98538507D01*
X81337452Y-97522507D02*
X81337452Y-98538507D01*
X80974595Y-96941936D02*
X80611738Y-98030507D01*
X81555167Y-98030507D01*
X82861452Y-97014507D02*
X82135738Y-97014507D01*
X82063167Y-97740221D01*
X82135738Y-97667650D01*
X82280881Y-97595079D01*
X82643738Y-97595079D01*
X82788881Y-97667650D01*
X82861452Y-97740221D01*
X82934024Y-97885364D01*
X82934024Y-98248221D01*
X82861452Y-98393364D01*
X82788881Y-98465936D01*
X82643738Y-98538507D01*
X82280881Y-98538507D01*
X82135738Y-98465936D01*
X82063167Y-98393364D01*
G04 #@! TO.C,J52*
D12*
X159857142Y-136558095D02*
X159904761Y-136605714D01*
X159952380Y-136748571D01*
X159952380Y-136843809D01*
X159904761Y-136986666D01*
X159809523Y-137081904D01*
X159714285Y-137129523D01*
X159523809Y-137177142D01*
X159380952Y-137177142D01*
X159190476Y-137129523D01*
X159095238Y-137081904D01*
X159000000Y-136986666D01*
X158952380Y-136843809D01*
X158952380Y-136748571D01*
X159000000Y-136605714D01*
X159047619Y-136558095D01*
X159952380Y-135986666D02*
X159904761Y-136081904D01*
X159857142Y-136129523D01*
X159761904Y-136177142D01*
X159476190Y-136177142D01*
X159380952Y-136129523D01*
X159333333Y-136081904D01*
X159285714Y-135986666D01*
X159285714Y-135843809D01*
X159333333Y-135748571D01*
X159380952Y-135700952D01*
X159476190Y-135653333D01*
X159761904Y-135653333D01*
X159857142Y-135700952D01*
X159904761Y-135748571D01*
X159952380Y-135843809D01*
X159952380Y-135986666D01*
X159285714Y-135224761D02*
X159952380Y-135224761D01*
X159380952Y-135224761D02*
X159333333Y-135177142D01*
X159285714Y-135081904D01*
X159285714Y-134939047D01*
X159333333Y-134843809D01*
X159428571Y-134796190D01*
X159952380Y-134796190D01*
X159285714Y-134320000D02*
X159952380Y-134320000D01*
X159380952Y-134320000D02*
X159333333Y-134272380D01*
X159285714Y-134177142D01*
X159285714Y-134034285D01*
X159333333Y-133939047D01*
X159428571Y-133891428D01*
X159952380Y-133891428D01*
X160047619Y-133653333D02*
X160047619Y-132891428D01*
X158952380Y-132462857D02*
X158952380Y-132367619D01*
X159000000Y-132272380D01*
X159047619Y-132224761D01*
X159142857Y-132177142D01*
X159333333Y-132129523D01*
X159571428Y-132129523D01*
X159761904Y-132177142D01*
X159857142Y-132224761D01*
X159904761Y-132272380D01*
X159952380Y-132367619D01*
X159952380Y-132462857D01*
X159904761Y-132558095D01*
X159857142Y-132605714D01*
X159761904Y-132653333D01*
X159571428Y-132700952D01*
X159333333Y-132700952D01*
X159142857Y-132653333D01*
X159047619Y-132605714D01*
X159000000Y-132558095D01*
X158952380Y-132462857D01*
X159952380Y-131177142D02*
X159952380Y-131748571D01*
X159952380Y-131462857D02*
X158952380Y-131462857D01*
X159095238Y-131558095D01*
X159190476Y-131653333D01*
X159238095Y-131748571D01*
X159952380Y-130843809D02*
X159285714Y-130320000D01*
X159285714Y-130843809D02*
X159952380Y-130320000D01*
X158952380Y-129748571D02*
X158952380Y-129653333D01*
X159000000Y-129558095D01*
X159047619Y-129510476D01*
X159142857Y-129462857D01*
X159333333Y-129415238D01*
X159571428Y-129415238D01*
X159761904Y-129462857D01*
X159857142Y-129510476D01*
X159904761Y-129558095D01*
X159952380Y-129653333D01*
X159952380Y-129748571D01*
X159904761Y-129843809D01*
X159857142Y-129891428D01*
X159761904Y-129939047D01*
X159571428Y-129986666D01*
X159333333Y-129986666D01*
X159142857Y-129939047D01*
X159047619Y-129891428D01*
X159000000Y-129843809D01*
X158952380Y-129748571D01*
X159047619Y-129034285D02*
X159000000Y-128986666D01*
X158952380Y-128891428D01*
X158952380Y-128653333D01*
X159000000Y-128558095D01*
X159047619Y-128510476D01*
X159142857Y-128462857D01*
X159238095Y-128462857D01*
X159380952Y-128510476D01*
X159952380Y-129081904D01*
X159952380Y-128462857D01*
X150952380Y-132629523D02*
X151666666Y-132629523D01*
X151809523Y-132677142D01*
X151904761Y-132772380D01*
X151952380Y-132915238D01*
X151952380Y-133010476D01*
X150952380Y-131677142D02*
X150952380Y-132153333D01*
X151428571Y-132200952D01*
X151380952Y-132153333D01*
X151333333Y-132058095D01*
X151333333Y-131820000D01*
X151380952Y-131724761D01*
X151428571Y-131677142D01*
X151523809Y-131629523D01*
X151761904Y-131629523D01*
X151857142Y-131677142D01*
X151904761Y-131724761D01*
X151952380Y-131820000D01*
X151952380Y-132058095D01*
X151904761Y-132153333D01*
X151857142Y-132200952D01*
X151047619Y-131248571D02*
X151000000Y-131200952D01*
X150952380Y-131105714D01*
X150952380Y-130867619D01*
X151000000Y-130772380D01*
X151047619Y-130724761D01*
X151142857Y-130677142D01*
X151238095Y-130677142D01*
X151380952Y-130724761D01*
X151952380Y-131296190D01*
X151952380Y-130677142D01*
G04 #@! TO.C,C51*
X134738095Y-115202380D02*
X134166666Y-115202380D01*
X134452380Y-115202380D02*
X134452380Y-114202380D01*
X134357142Y-114345238D01*
X134261904Y-114440476D01*
X134166666Y-114488095D01*
X135357142Y-114202380D02*
X135452380Y-114202380D01*
X135547619Y-114250000D01*
X135595238Y-114297619D01*
X135642857Y-114392857D01*
X135690476Y-114583333D01*
X135690476Y-114821428D01*
X135642857Y-115011904D01*
X135595238Y-115107142D01*
X135547619Y-115154761D01*
X135452380Y-115202380D01*
X135357142Y-115202380D01*
X135261904Y-115154761D01*
X135214285Y-115107142D01*
X135166666Y-115011904D01*
X135119047Y-114821428D01*
X135119047Y-114583333D01*
X135166666Y-114392857D01*
X135214285Y-114297619D01*
X135261904Y-114250000D01*
X135357142Y-114202380D01*
X136309523Y-114202380D02*
X136404761Y-114202380D01*
X136500000Y-114250000D01*
X136547619Y-114297619D01*
X136595238Y-114392857D01*
X136642857Y-114583333D01*
X136642857Y-114821428D01*
X136595238Y-115011904D01*
X136547619Y-115107142D01*
X136500000Y-115154761D01*
X136404761Y-115202380D01*
X136309523Y-115202380D01*
X136214285Y-115154761D01*
X136166666Y-115107142D01*
X136119047Y-115011904D01*
X136071428Y-114821428D01*
X136071428Y-114583333D01*
X136119047Y-114392857D01*
X136166666Y-114297619D01*
X136214285Y-114250000D01*
X136309523Y-114202380D01*
X137500000Y-114535714D02*
X137500000Y-115202380D01*
X137071428Y-114535714D02*
X137071428Y-115059523D01*
X137119047Y-115154761D01*
X137214285Y-115202380D01*
X137357142Y-115202380D01*
X137452380Y-115154761D01*
X137500000Y-115107142D01*
X138309523Y-114678571D02*
X137976190Y-114678571D01*
X137976190Y-115202380D02*
X137976190Y-114202380D01*
X138452380Y-114202380D01*
X138738095Y-115202380D02*
X139261904Y-114535714D01*
X138738095Y-114535714D02*
X139261904Y-115202380D01*
X140166666Y-115202380D02*
X139595238Y-115202380D01*
X139880952Y-115202380D02*
X139880952Y-114202380D01*
X139785714Y-114345238D01*
X139690476Y-114440476D01*
X139595238Y-114488095D01*
X140785714Y-114202380D02*
X140880952Y-114202380D01*
X140976190Y-114250000D01*
X141023809Y-114297619D01*
X141071428Y-114392857D01*
X141119047Y-114583333D01*
X141119047Y-114821428D01*
X141071428Y-115011904D01*
X141023809Y-115107142D01*
X140976190Y-115154761D01*
X140880952Y-115202380D01*
X140785714Y-115202380D01*
X140690476Y-115154761D01*
X140642857Y-115107142D01*
X140595238Y-115011904D01*
X140547619Y-114821428D01*
X140547619Y-114583333D01*
X140595238Y-114392857D01*
X140642857Y-114297619D01*
X140690476Y-114250000D01*
X140785714Y-114202380D01*
X141738095Y-114202380D02*
X141833333Y-114202380D01*
X141928571Y-114250000D01*
X141976190Y-114297619D01*
X142023809Y-114392857D01*
X142071428Y-114583333D01*
X142071428Y-114821428D01*
X142023809Y-115011904D01*
X141976190Y-115107142D01*
X141928571Y-115154761D01*
X141833333Y-115202380D01*
X141738095Y-115202380D01*
X141642857Y-115154761D01*
X141595238Y-115107142D01*
X141547619Y-115011904D01*
X141500000Y-114821428D01*
X141500000Y-114583333D01*
X141547619Y-114392857D01*
X141595238Y-114297619D01*
X141642857Y-114250000D01*
X141738095Y-114202380D01*
X142404761Y-114535714D02*
X142642857Y-115202380D01*
X142880952Y-114535714D01*
X137857142Y-122857142D02*
X137809523Y-122904761D01*
X137666666Y-122952380D01*
X137571428Y-122952380D01*
X137428571Y-122904761D01*
X137333333Y-122809523D01*
X137285714Y-122714285D01*
X137238095Y-122523809D01*
X137238095Y-122380952D01*
X137285714Y-122190476D01*
X137333333Y-122095238D01*
X137428571Y-122000000D01*
X137571428Y-121952380D01*
X137666666Y-121952380D01*
X137809523Y-122000000D01*
X137857142Y-122047619D01*
X138761904Y-121952380D02*
X138285714Y-121952380D01*
X138238095Y-122428571D01*
X138285714Y-122380952D01*
X138380952Y-122333333D01*
X138619047Y-122333333D01*
X138714285Y-122380952D01*
X138761904Y-122428571D01*
X138809523Y-122523809D01*
X138809523Y-122761904D01*
X138761904Y-122857142D01*
X138714285Y-122904761D01*
X138619047Y-122952380D01*
X138380952Y-122952380D01*
X138285714Y-122904761D01*
X138238095Y-122857142D01*
X139761904Y-122952380D02*
X139190476Y-122952380D01*
X139476190Y-122952380D02*
X139476190Y-121952380D01*
X139380952Y-122095238D01*
X139285714Y-122190476D01*
X139190476Y-122238095D01*
G04 #@! TO.C,C52*
X134738095Y-94702380D02*
X134166666Y-94702380D01*
X134452380Y-94702380D02*
X134452380Y-93702380D01*
X134357142Y-93845238D01*
X134261904Y-93940476D01*
X134166666Y-93988095D01*
X135357142Y-93702380D02*
X135452380Y-93702380D01*
X135547619Y-93750000D01*
X135595238Y-93797619D01*
X135642857Y-93892857D01*
X135690476Y-94083333D01*
X135690476Y-94321428D01*
X135642857Y-94511904D01*
X135595238Y-94607142D01*
X135547619Y-94654761D01*
X135452380Y-94702380D01*
X135357142Y-94702380D01*
X135261904Y-94654761D01*
X135214285Y-94607142D01*
X135166666Y-94511904D01*
X135119047Y-94321428D01*
X135119047Y-94083333D01*
X135166666Y-93892857D01*
X135214285Y-93797619D01*
X135261904Y-93750000D01*
X135357142Y-93702380D01*
X136309523Y-93702380D02*
X136404761Y-93702380D01*
X136500000Y-93750000D01*
X136547619Y-93797619D01*
X136595238Y-93892857D01*
X136642857Y-94083333D01*
X136642857Y-94321428D01*
X136595238Y-94511904D01*
X136547619Y-94607142D01*
X136500000Y-94654761D01*
X136404761Y-94702380D01*
X136309523Y-94702380D01*
X136214285Y-94654761D01*
X136166666Y-94607142D01*
X136119047Y-94511904D01*
X136071428Y-94321428D01*
X136071428Y-94083333D01*
X136119047Y-93892857D01*
X136166666Y-93797619D01*
X136214285Y-93750000D01*
X136309523Y-93702380D01*
X137500000Y-94035714D02*
X137500000Y-94702380D01*
X137071428Y-94035714D02*
X137071428Y-94559523D01*
X137119047Y-94654761D01*
X137214285Y-94702380D01*
X137357142Y-94702380D01*
X137452380Y-94654761D01*
X137500000Y-94607142D01*
X138309523Y-94178571D02*
X137976190Y-94178571D01*
X137976190Y-94702380D02*
X137976190Y-93702380D01*
X138452380Y-93702380D01*
X138738095Y-94702380D02*
X139261904Y-94035714D01*
X138738095Y-94035714D02*
X139261904Y-94702380D01*
X140166666Y-94702380D02*
X139595238Y-94702380D01*
X139880952Y-94702380D02*
X139880952Y-93702380D01*
X139785714Y-93845238D01*
X139690476Y-93940476D01*
X139595238Y-93988095D01*
X140785714Y-93702380D02*
X140880952Y-93702380D01*
X140976190Y-93750000D01*
X141023809Y-93797619D01*
X141071428Y-93892857D01*
X141119047Y-94083333D01*
X141119047Y-94321428D01*
X141071428Y-94511904D01*
X141023809Y-94607142D01*
X140976190Y-94654761D01*
X140880952Y-94702380D01*
X140785714Y-94702380D01*
X140690476Y-94654761D01*
X140642857Y-94607142D01*
X140595238Y-94511904D01*
X140547619Y-94321428D01*
X140547619Y-94083333D01*
X140595238Y-93892857D01*
X140642857Y-93797619D01*
X140690476Y-93750000D01*
X140785714Y-93702380D01*
X141738095Y-93702380D02*
X141833333Y-93702380D01*
X141928571Y-93750000D01*
X141976190Y-93797619D01*
X142023809Y-93892857D01*
X142071428Y-94083333D01*
X142071428Y-94321428D01*
X142023809Y-94511904D01*
X141976190Y-94607142D01*
X141928571Y-94654761D01*
X141833333Y-94702380D01*
X141738095Y-94702380D01*
X141642857Y-94654761D01*
X141595238Y-94607142D01*
X141547619Y-94511904D01*
X141500000Y-94321428D01*
X141500000Y-94083333D01*
X141547619Y-93892857D01*
X141595238Y-93797619D01*
X141642857Y-93750000D01*
X141738095Y-93702380D01*
X142404761Y-94035714D02*
X142642857Y-94702380D01*
X142880952Y-94035714D01*
X137857142Y-102357142D02*
X137809523Y-102404761D01*
X137666666Y-102452380D01*
X137571428Y-102452380D01*
X137428571Y-102404761D01*
X137333333Y-102309523D01*
X137285714Y-102214285D01*
X137238095Y-102023809D01*
X137238095Y-101880952D01*
X137285714Y-101690476D01*
X137333333Y-101595238D01*
X137428571Y-101500000D01*
X137571428Y-101452380D01*
X137666666Y-101452380D01*
X137809523Y-101500000D01*
X137857142Y-101547619D01*
X138761904Y-101452380D02*
X138285714Y-101452380D01*
X138238095Y-101928571D01*
X138285714Y-101880952D01*
X138380952Y-101833333D01*
X138619047Y-101833333D01*
X138714285Y-101880952D01*
X138761904Y-101928571D01*
X138809523Y-102023809D01*
X138809523Y-102261904D01*
X138761904Y-102357142D01*
X138714285Y-102404761D01*
X138619047Y-102452380D01*
X138380952Y-102452380D01*
X138285714Y-102404761D01*
X138238095Y-102357142D01*
X139190476Y-101547619D02*
X139238095Y-101500000D01*
X139333333Y-101452380D01*
X139571428Y-101452380D01*
X139666666Y-101500000D01*
X139714285Y-101547619D01*
X139761904Y-101642857D01*
X139761904Y-101738095D01*
X139714285Y-101880952D01*
X139142857Y-102452380D01*
X139761904Y-102452380D01*
G04 #@! TO.C,J51*
X159857142Y-116238095D02*
X159904761Y-116285714D01*
X159952380Y-116428571D01*
X159952380Y-116523809D01*
X159904761Y-116666666D01*
X159809523Y-116761904D01*
X159714285Y-116809523D01*
X159523809Y-116857142D01*
X159380952Y-116857142D01*
X159190476Y-116809523D01*
X159095238Y-116761904D01*
X159000000Y-116666666D01*
X158952380Y-116523809D01*
X158952380Y-116428571D01*
X159000000Y-116285714D01*
X159047619Y-116238095D01*
X159952380Y-115666666D02*
X159904761Y-115761904D01*
X159857142Y-115809523D01*
X159761904Y-115857142D01*
X159476190Y-115857142D01*
X159380952Y-115809523D01*
X159333333Y-115761904D01*
X159285714Y-115666666D01*
X159285714Y-115523809D01*
X159333333Y-115428571D01*
X159380952Y-115380952D01*
X159476190Y-115333333D01*
X159761904Y-115333333D01*
X159857142Y-115380952D01*
X159904761Y-115428571D01*
X159952380Y-115523809D01*
X159952380Y-115666666D01*
X159285714Y-114904761D02*
X159952380Y-114904761D01*
X159380952Y-114904761D02*
X159333333Y-114857142D01*
X159285714Y-114761904D01*
X159285714Y-114619047D01*
X159333333Y-114523809D01*
X159428571Y-114476190D01*
X159952380Y-114476190D01*
X159285714Y-114000000D02*
X159952380Y-114000000D01*
X159380952Y-114000000D02*
X159333333Y-113952380D01*
X159285714Y-113857142D01*
X159285714Y-113714285D01*
X159333333Y-113619047D01*
X159428571Y-113571428D01*
X159952380Y-113571428D01*
X160047619Y-113333333D02*
X160047619Y-112571428D01*
X158952380Y-112142857D02*
X158952380Y-112047619D01*
X159000000Y-111952380D01*
X159047619Y-111904761D01*
X159142857Y-111857142D01*
X159333333Y-111809523D01*
X159571428Y-111809523D01*
X159761904Y-111857142D01*
X159857142Y-111904761D01*
X159904761Y-111952380D01*
X159952380Y-112047619D01*
X159952380Y-112142857D01*
X159904761Y-112238095D01*
X159857142Y-112285714D01*
X159761904Y-112333333D01*
X159571428Y-112380952D01*
X159333333Y-112380952D01*
X159142857Y-112333333D01*
X159047619Y-112285714D01*
X159000000Y-112238095D01*
X158952380Y-112142857D01*
X159952380Y-110857142D02*
X159952380Y-111428571D01*
X159952380Y-111142857D02*
X158952380Y-111142857D01*
X159095238Y-111238095D01*
X159190476Y-111333333D01*
X159238095Y-111428571D01*
X159952380Y-110523809D02*
X159285714Y-110000000D01*
X159285714Y-110523809D02*
X159952380Y-110000000D01*
X158952380Y-109428571D02*
X158952380Y-109333333D01*
X159000000Y-109238095D01*
X159047619Y-109190476D01*
X159142857Y-109142857D01*
X159333333Y-109095238D01*
X159571428Y-109095238D01*
X159761904Y-109142857D01*
X159857142Y-109190476D01*
X159904761Y-109238095D01*
X159952380Y-109333333D01*
X159952380Y-109428571D01*
X159904761Y-109523809D01*
X159857142Y-109571428D01*
X159761904Y-109619047D01*
X159571428Y-109666666D01*
X159333333Y-109666666D01*
X159142857Y-109619047D01*
X159047619Y-109571428D01*
X159000000Y-109523809D01*
X158952380Y-109428571D01*
X159285714Y-108238095D02*
X159952380Y-108238095D01*
X158904761Y-108476190D02*
X159619047Y-108714285D01*
X159619047Y-108095238D01*
X150952380Y-113309523D02*
X151666666Y-113309523D01*
X151809523Y-113357142D01*
X151904761Y-113452380D01*
X151952380Y-113595238D01*
X151952380Y-113690476D01*
X150952380Y-112357142D02*
X150952380Y-112833333D01*
X151428571Y-112880952D01*
X151380952Y-112833333D01*
X151333333Y-112738095D01*
X151333333Y-112500000D01*
X151380952Y-112404761D01*
X151428571Y-112357142D01*
X151523809Y-112309523D01*
X151761904Y-112309523D01*
X151857142Y-112357142D01*
X151904761Y-112404761D01*
X151952380Y-112500000D01*
X151952380Y-112738095D01*
X151904761Y-112833333D01*
X151857142Y-112880952D01*
X151952380Y-111357142D02*
X151952380Y-111928571D01*
X151952380Y-111642857D02*
X150952380Y-111642857D01*
X151095238Y-111738095D01*
X151190476Y-111833333D01*
X151238095Y-111928571D01*
G04 #@! TO.C,J54*
D13*
X87187907Y-128311205D02*
X86462193Y-128819205D01*
X87187907Y-129182062D02*
X85663907Y-129182062D01*
X85663907Y-128601491D01*
X85736479Y-128456348D01*
X85809050Y-128383777D01*
X85954193Y-128311205D01*
X86171907Y-128311205D01*
X86317050Y-128383777D01*
X86389621Y-128456348D01*
X86462193Y-128601491D01*
X86462193Y-129182062D01*
X85663907Y-127222634D02*
X86752479Y-127222634D01*
X86970193Y-127295205D01*
X87115336Y-127440348D01*
X87187907Y-127658062D01*
X87187907Y-127803205D01*
X86171907Y-125843777D02*
X87187907Y-125843777D01*
X85591336Y-126206634D02*
X86679907Y-126569491D01*
X86679907Y-125626062D01*
X85663907Y-124319777D02*
X85663907Y-125045491D01*
X86389621Y-125118062D01*
X86317050Y-125045491D01*
X86244479Y-124900348D01*
X86244479Y-124537491D01*
X86317050Y-124392348D01*
X86389621Y-124319777D01*
X86534764Y-124247205D01*
X86897621Y-124247205D01*
X87042764Y-124319777D01*
X87115336Y-124392348D01*
X87187907Y-124537491D01*
X87187907Y-124900348D01*
X87115336Y-125045491D01*
X87042764Y-125118062D01*
G04 #@! TD*
M02*
