M48
;DRILL file {KiCad 5.0.0-fee4fd1~66~ubuntu16.04.1} date Sun Oct 14 02:52:06 2018
;FORMAT={-:-/ absolute / inch / decimal}
FMAT,2
INCH,TZ
T1C0.0197
T2C0.0276
T3C0.0315
T4C0.0354
T5C0.0472
T6C0.0551
%
G90
G05
M72
T1
X3.8516Y-4.0846
X3.8583Y-4.7402
X3.9225Y-4.6988
X3.9291Y-3.5276
X4.1102Y-4.2815
X4.1351Y-3.998
X4.1429Y-3.7775
X4.1429Y-4.4862
X4.2205Y-4.8898
X4.2362Y-3.7323
X4.261Y-3.5885
X4.2913Y-3.7953
X4.3083Y-4.3051
X4.3398Y-4.3602
X4.3398Y-4.5019
X4.4579Y-5.1476
X4.4815Y-4.3917
X4.4815Y-4.4704
X4.4882Y-4.0748
X4.4882Y-4.7835
X4.5659Y-4.2224
X4.5659Y-4.5581
X4.5669Y-4.2608
X4.5669Y-4.3002
X4.5669Y-4.3691
X4.5669Y-4.4085
X4.5669Y-4.4478
X4.5669Y-4.4872
X4.5669Y-4.5965
X4.5669Y-4.6358
X4.6063Y-4.3691
X4.6063Y-4.4085
X4.6063Y-4.4478
X4.6063Y-4.4872
X4.6161Y-4.2224
X4.6161Y-4.2608
X4.6161Y-4.3002
X4.6161Y-4.5581
X4.6161Y-4.5965
X4.6161Y-4.6358
X4.6457Y-4.3691
X4.6457Y-4.4085
X4.6457Y-4.4478
X4.6457Y-4.4872
X4.6742Y-4.5581
X4.6752Y-4.2224
X4.6752Y-4.5965
X4.6752Y-4.6358
X4.6762Y-4.2608
X4.6762Y-4.3002
X4.685Y-4.3691
X4.685Y-4.4085
X4.685Y-4.4478
X4.685Y-4.4872
X4.7244Y-4.3691
X4.7244Y-4.4085
X4.7244Y-4.4478
X4.7244Y-4.4872
X4.7244Y-4.5581
X4.7244Y-4.5965
X4.7244Y-4.6358
X4.7254Y-4.2224
X4.7254Y-4.2608
X4.7254Y-4.3002
X4.8031Y-4.3465
X4.9539Y-4.5689
X4.9803Y-4.2717
X5.013Y-4.6004
X5.0406Y-4.5492
X5.189Y-5.0787
X5.2283Y-3.7874
X5.2362Y-5.1181
X5.2835Y-5.0787
X5.2992Y-3.7874
X5.5118Y-5.0197
T2
X3.75Y-4.3295
X3.75Y-4.4094
X3.75Y-4.4897
X3.8502Y-4.3695
X3.8502Y-4.4494
X3.8502Y-4.5293
X3.7502Y-4.8903
X3.7502Y-4.9702
X3.7502Y-5.0501
X3.7502Y-5.13
X3.8504Y-4.8504
X3.8504Y-4.9303
X3.8504Y-5.0102
X3.8504Y-5.0901
X3.7488Y-3.7682
X3.7488Y-3.8481
X3.7488Y-3.928
X3.7488Y-4.0079
X3.849Y-3.7283
X3.849Y-3.8082
X3.849Y-3.8881
X3.849Y-3.968
T3
X4.0091Y-3.3759
X4.0957Y-4.5492
X4.2598Y-4.1732
X4.2677Y-4.7559
T4
X5.689Y-5.3189
X5.689Y-5.4189
X3.9961Y-4.0142
X3.9961Y-4.1142
X3.9961Y-4.7425
X3.9961Y-4.8425
X3.9961Y-3.6205
X3.9961Y-3.7205
X5.689Y-4.3783
X5.689Y-4.4783
X5.689Y-5.0378
X5.689Y-5.1378
X3.9961Y-5.1378
X3.9961Y-5.2378
X5.6929Y-3.7189
X5.6929Y-3.8189
X3.9961Y-4.3783
X3.9961Y-4.4783
X5.6929Y-3.437
X5.6929Y-3.537
T5
X5.3543Y-4.8228
X5.5512Y-4.8228
X5.3543Y-4.0157
X5.5512Y-4.0157
T6
X5.8465Y-5.1291
X5.8465Y-4.1291
X5.8465Y-4.3291
X5.8465Y-4.5291
X5.8465Y-4.7291
X5.8465Y-3.5291
X5.8465Y-3.7291
X5.8465Y-5.3291
T0
M30
