G04 #@! TF.GenerationSoftware,KiCad,Pcbnew,5.0.0-fee4fd1~66~ubuntu16.04.1*
G04 #@! TF.CreationDate,2018-10-14T02:51:50-03:00*
G04 #@! TF.ProjectId,pap,7061702E6B696361645F706362000000,rev?*
G04 #@! TF.SameCoordinates,Original*
G04 #@! TF.FileFunction,Copper,L1,Top,Signal*
G04 #@! TF.FilePolarity,Positive*
%FSLAX46Y46*%
G04 Gerber Fmt 4.6, Leading zero omitted, Abs format (unit mm)*
G04 Created by KiCad (PCBNEW 5.0.0-fee4fd1~66~ubuntu16.04.1) date Sun Oct 14 02:51:50 2018*
%MOMM*%
%LPD*%
G01*
G04 APERTURE LIST*
G04 #@! TA.AperFunction,ComponentPad*
%ADD10O,5.000000X4.000000*%
G04 #@! TD*
G04 #@! TA.AperFunction,ComponentPad*
%ADD11C,2.000000*%
G04 #@! TD*
G04 #@! TA.AperFunction,ComponentPad*
%ADD12O,2.000000X1.500000*%
G04 #@! TD*
G04 #@! TA.AperFunction,ComponentPad*
%ADD13C,3.500000*%
G04 #@! TD*
G04 #@! TA.AperFunction,ViaPad*
%ADD14C,1.000000*%
G04 #@! TD*
G04 #@! TA.AperFunction,ViaPad*
%ADD15C,1.400000*%
G04 #@! TD*
G04 #@! TA.AperFunction,Conductor*
%ADD16C,0.400000*%
G04 #@! TD*
G04 #@! TA.AperFunction,Conductor*
%ADD17C,1.000000*%
G04 #@! TD*
G04 #@! TA.AperFunction,Conductor*
%ADD18C,2.000000*%
G04 #@! TD*
G04 #@! TA.AperFunction,Conductor*
%ADD19C,0.200000*%
G04 #@! TD*
G04 #@! TA.AperFunction,Conductor*
%ADD20C,0.800000*%
G04 #@! TD*
%ADD21C,0.200000*%
G04 APERTURE END LIST*
D10*
G04 #@! TO.P,J53,2*
G04 #@! TO.N,/connector/MotorA2*
X148500000Y-89640000D03*
G04 #@! TO.P,J53,1*
G04 #@! TO.N,/connector/MotorA1*
X148500000Y-94720000D03*
G04 #@! TD*
D11*
G04 #@! TO.P,D10,1*
G04 #@! TO.N,/connector/MotorA2*
X144600000Y-89840000D03*
G04 #@! TO.P,D10,2*
G04 #@! TO.N,Net-(D10-Pad2)*
X144600000Y-87300000D03*
G04 #@! TD*
G04 #@! TO.P,D14,1*
G04 #@! TO.N,85v*
X144500000Y-113749079D03*
G04 #@! TO.P,D14,2*
G04 #@! TO.N,Net-(D14-Pad2)*
X144500000Y-111209079D03*
G04 #@! TD*
G04 #@! TO.P,D13,1*
G04 #@! TO.N,Net-(D13-Pad1)*
X101500000Y-91960000D03*
G04 #@! TO.P,D13,2*
G04 #@! TO.N,3V3*
X101500000Y-94500000D03*
G04 #@! TD*
G04 #@! TO.P,D9,1*
G04 #@! TO.N,Net-(D9-Pad1)*
X101500000Y-111210000D03*
G04 #@! TO.P,D9,2*
G04 #@! TO.N,3V3*
X101500000Y-113750000D03*
G04 #@! TD*
D12*
G04 #@! TO.P,J56,2*
G04 #@! TO.N,/connector/Busy*
X95250000Y-114038000D03*
G04 #@! TO.P,J56,1*
G04 #@! TO.N,3V3*
X97794660Y-115045460D03*
G04 #@! TO.P,J56,3*
G04 #@! TO.N,/connector/Flag*
X97794660Y-113016000D03*
G04 #@! TO.P,J56,4*
G04 #@! TO.N,/connector/Pulse*
X95250000Y-112000000D03*
G04 #@! TO.P,J56,5*
G04 #@! TO.N,/connector/Switch*
X97794660Y-110986540D03*
G04 #@! TO.P,J56,6*
G04 #@! TO.N,G3V3*
X95250000Y-109970540D03*
G04 #@! TD*
D11*
G04 #@! TO.P,D5,1*
G04 #@! TO.N,Net-(D5-Pad1)*
X101500000Y-101960000D03*
G04 #@! TO.P,D5,2*
G04 #@! TO.N,3V3*
X101500000Y-104500000D03*
G04 #@! TD*
D12*
G04 #@! TO.P,J55,3*
G04 #@! TO.N,/connector/Reset*
X95220000Y-99770540D03*
G04 #@! TO.P,J55,1*
G04 #@! TO.N,G3V3*
X95220000Y-101800000D03*
G04 #@! TO.P,J55,2*
G04 #@! TO.N,/connector/CS*
X97764660Y-100786540D03*
G04 #@! TO.P,J55,4*
G04 #@! TO.N,/connector/Osc_Out*
X97764660Y-98757080D03*
G04 #@! TO.P,J55,5*
G04 #@! TO.N,/connector/Sdo_Back*
X95220000Y-97741080D03*
G04 #@! TO.P,J55,6*
G04 #@! TO.N,/connector/Busy_Out*
X97764660Y-96727620D03*
G04 #@! TO.P,J55,7*
G04 #@! TO.N,/connector/SDO*
X95220000Y-95711620D03*
G04 #@! TO.P,J55,8*
G04 #@! TO.N,/connector/CLK*
X97764660Y-94698160D03*
G04 #@! TD*
D11*
G04 #@! TO.P,D6,1*
G04 #@! TO.N,Net-(D6-Pad1)*
X101500000Y-120460000D03*
G04 #@! TO.P,D6,2*
G04 #@! TO.N,3V3*
X101500000Y-123000000D03*
G04 #@! TD*
D10*
G04 #@! TO.P,J52,2*
G04 #@! TO.N,/connector/MotorB1*
X148500000Y-130280000D03*
G04 #@! TO.P,J52,1*
G04 #@! TO.N,/connector/MotorB2*
X148500000Y-135360000D03*
G04 #@! TD*
D11*
G04 #@! TO.P,D8,1*
G04 #@! TO.N,/connector/MotorB1*
X144500000Y-130500000D03*
G04 #@! TO.P,D8,2*
G04 #@! TO.N,Net-(D8-Pad2)*
X144500000Y-127960000D03*
G04 #@! TD*
G04 #@! TO.P,D7,1*
G04 #@! TO.N,Net-(D7-Pad1)*
X144500000Y-137640000D03*
G04 #@! TO.P,D7,2*
G04 #@! TO.N,/connector/MotorB2*
X144500000Y-135100000D03*
G04 #@! TD*
G04 #@! TO.P,D11,1*
G04 #@! TO.N,Net-(D11-Pad1)*
X144600000Y-97000000D03*
G04 #@! TO.P,D11,2*
G04 #@! TO.N,/connector/MotorA1*
X144600000Y-94460000D03*
G04 #@! TD*
G04 #@! TO.P,D4,1*
G04 #@! TO.N,Net-(D4-Pad1)*
X101500000Y-130500000D03*
G04 #@! TO.P,D4,2*
G04 #@! TO.N,3V3*
X101500000Y-133040000D03*
G04 #@! TD*
D13*
G04 #@! TO.P,C51,2*
G04 #@! TO.N,G85V*
X136000000Y-122500000D03*
G04 #@! TO.P,C51,1*
G04 #@! TO.N,85v*
X141000000Y-122500000D03*
G04 #@! TD*
G04 #@! TO.P,C52,2*
G04 #@! TO.N,G85V*
X136000000Y-102000000D03*
G04 #@! TO.P,C52,1*
G04 #@! TO.N,85v*
X141000000Y-102000000D03*
G04 #@! TD*
D10*
G04 #@! TO.P,J51,4*
G04 #@! TO.N,G85V*
X148500000Y-104880000D03*
G04 #@! TO.P,J51,3*
X148500000Y-109960000D03*
G04 #@! TO.P,J51,2*
G04 #@! TO.N,85v*
X148500000Y-115040000D03*
G04 #@! TO.P,J51,1*
X148500000Y-120120000D03*
G04 #@! TD*
D12*
G04 #@! TO.P,J54,3*
G04 #@! TO.N,/connector/Reset*
X95255340Y-128272380D03*
G04 #@! TO.P,J54,1*
G04 #@! TO.N,G3V3*
X95255340Y-130301840D03*
G04 #@! TO.P,J54,2*
G04 #@! TO.N,/connector/CS*
X97800000Y-129288380D03*
G04 #@! TO.P,J54,4*
G04 #@! TO.N,/connector/Osc_In*
X97800000Y-127258920D03*
G04 #@! TO.P,J54,5*
G04 #@! TO.N,/connector/Sdo_Back*
X95255340Y-126242920D03*
G04 #@! TO.P,J54,6*
G04 #@! TO.N,/connector/Busy_Out*
X97800000Y-125229460D03*
G04 #@! TO.P,J54,7*
G04 #@! TO.N,/connector/SDI*
X95255340Y-124213460D03*
G04 #@! TO.P,J54,8*
G04 #@! TO.N,/connector/CLK*
X97800000Y-123200000D03*
G04 #@! TD*
D14*
G04 #@! TO.N,/connector/Switch*
X99800000Y-89600000D03*
G04 #@! TO.N,/connector/MotorA1*
X118775000Y-109225000D03*
X120025000Y-109225000D03*
X120025000Y-107250000D03*
X118775000Y-108225000D03*
X118750000Y-107250000D03*
X120025000Y-108225000D03*
G04 #@! TO.N,/connector/MotorA2*
X115975000Y-107250000D03*
X116000000Y-108225000D03*
X117250000Y-109225000D03*
X117250000Y-107250000D03*
X116000000Y-109225000D03*
X117250000Y-108225000D03*
G04 #@! TO.N,/connector/MotorB1*
X118725000Y-115775000D03*
X120000000Y-117750000D03*
X120000000Y-115775000D03*
X118750000Y-116750000D03*
X120000000Y-116750000D03*
X118750000Y-117750000D03*
G04 #@! TO.N,/connector/MotorB2*
X116000000Y-116750000D03*
X117250000Y-115775000D03*
X116000000Y-117750000D03*
X117250000Y-117750000D03*
X115975000Y-115775000D03*
X117250000Y-116750000D03*
G04 #@! TO.N,/connector/Busy*
X98000000Y-120400000D03*
G04 #@! TO.N,/connector/CLK*
X107600000Y-94800000D03*
X110230310Y-114349079D03*
G04 #@! TO.N,/connector/CS*
X97830310Y-103749079D03*
X99630310Y-119349079D03*
G04 #@! TO.N,/connector/SDO*
X105230310Y-113949079D03*
G04 #@! TO.N,15v*
X132800000Y-96200000D03*
X122000000Y-110400000D03*
G04 #@! TO.N,G85V*
X116000000Y-110975000D03*
X117000000Y-110975000D03*
X118000000Y-110975000D03*
X119000000Y-110975000D03*
X120000000Y-110975000D03*
X116000000Y-111975000D03*
X117000000Y-111975000D03*
X118000000Y-111975000D03*
X119000000Y-111975000D03*
X116000000Y-112975000D03*
X117000000Y-112975000D03*
X118000000Y-112975000D03*
X119000000Y-112975000D03*
X120000000Y-112975000D03*
X116000000Y-113975000D03*
X117000000Y-113975000D03*
X118000000Y-113975000D03*
X119000000Y-113975000D03*
X120000000Y-113975000D03*
X120000000Y-111975000D03*
X140000000Y-127500000D03*
G04 #@! TO.N,/connector/Reset*
X109430310Y-109349079D03*
G04 #@! TO.N,/connector/Osc_Out*
X131800000Y-129000000D03*
X109000000Y-96400000D03*
X125830310Y-116049079D03*
X113230310Y-130749079D03*
G04 #@! TO.N,/connector/Osc_In*
X133000000Y-130000000D03*
X127330310Y-116849079D03*
G04 #@! TO.N,/motor/Switch_Local*
X108230310Y-91149079D03*
X110230310Y-110749079D03*
D15*
G04 #@! TO.N,G3V3*
X108200000Y-106000000D03*
X108400000Y-120800000D03*
D14*
G04 #@! TO.N,/connector/Busy_Out*
X107200000Y-124200000D03*
X105230310Y-95949079D03*
G04 #@! TO.N,/motor/Adc*
X126500000Y-108500000D03*
X134600000Y-96200000D03*
G04 #@! TO.N,/motor/SenseA*
X114000000Y-103500000D03*
X113830310Y-111549079D03*
G04 #@! TO.N,/motor/SenseB*
X114000000Y-121500000D03*
X113830310Y-113549079D03*
G04 #@! TO.N,/connector/Flag*
X104400010Y-108749079D03*
X105030310Y-101549079D03*
D15*
G04 #@! TO.N,3V3*
X104030310Y-115549079D03*
X101830310Y-85749079D03*
D14*
G04 #@! TO.N,Vreg*
X134200000Y-129000000D03*
X128030310Y-115549079D03*
G04 #@! TD*
D16*
G04 #@! TO.N,/connector/Switch*
X99630310Y-89969690D02*
X99800000Y-89800000D01*
X99630310Y-101749079D02*
X99630310Y-89969690D01*
X97230310Y-102549079D02*
X98830310Y-102549079D01*
X97794660Y-110986540D02*
X97794660Y-108113429D01*
X97794660Y-108113429D02*
X96630310Y-106949079D01*
X98830310Y-102549079D02*
X99630310Y-101749079D01*
X96630310Y-106949079D02*
X96630310Y-103149079D01*
X96630310Y-103149079D02*
X97230310Y-102549079D01*
D17*
G04 #@! TO.N,/connector/MotorA1*
X118775000Y-108225000D02*
X120025000Y-108225000D01*
X118775000Y-109225000D02*
X120025000Y-109225000D01*
X118775000Y-107275000D02*
X118750000Y-107250000D01*
X118775000Y-109225000D02*
X118775000Y-107275000D01*
X120025000Y-109225000D02*
X120025000Y-107250000D01*
X118750000Y-107250000D02*
X119400000Y-107250000D01*
X119400000Y-107250000D02*
X120025000Y-107250000D01*
D18*
X119400000Y-103479389D02*
X119400000Y-107250000D01*
X148500000Y-94720000D02*
X148240000Y-94460000D01*
X148240000Y-94460000D02*
X141160000Y-94460000D01*
X130130310Y-92749079D02*
X119400000Y-103479389D01*
X141160000Y-94460000D02*
X139449079Y-92749079D01*
X139449079Y-92749079D02*
X130130310Y-92749079D01*
D17*
G04 #@! TO.N,/connector/MotorA2*
X116000000Y-109225000D02*
X117250000Y-109225000D01*
X117250000Y-108225000D02*
X116000000Y-108225000D01*
X117250000Y-109225000D02*
X117250000Y-107250000D01*
X116000000Y-107275000D02*
X115975000Y-107250000D01*
X116000000Y-109225000D02*
X116000000Y-107275000D01*
X115975000Y-107250000D02*
X116600000Y-107250000D01*
X116600000Y-107250000D02*
X117250000Y-107250000D01*
D18*
X116600000Y-101379389D02*
X116600000Y-107250000D01*
X128139389Y-89840000D02*
X116600000Y-101379389D01*
X148300000Y-89840000D02*
X128139389Y-89840000D01*
X148500000Y-89640000D02*
X148300000Y-89840000D01*
D17*
G04 #@! TO.N,/connector/MotorB1*
X118725000Y-115775000D02*
X120000000Y-115775000D01*
X118750000Y-116750000D02*
X120000000Y-116750000D01*
X120000000Y-115775000D02*
X120000000Y-117750000D01*
X118725000Y-116724999D02*
X118750001Y-116750000D01*
X118725000Y-115775000D02*
X118725000Y-116724999D01*
X118750000Y-117750000D02*
X118750000Y-116750000D01*
X119400000Y-117750000D02*
X120000000Y-117750000D01*
X118750000Y-117750000D02*
X119400000Y-117750000D01*
D18*
X137379389Y-132200000D02*
X131200000Y-132200000D01*
X119400000Y-120400000D02*
X119400000Y-117750000D01*
X131200000Y-132200000D02*
X119400000Y-120400000D01*
X139081231Y-130500000D02*
X139080310Y-130499079D01*
X148500000Y-130280000D02*
X148280000Y-130500000D01*
X148280000Y-130500000D02*
X139081231Y-130500000D01*
X139080310Y-130499079D02*
X137379389Y-132200000D01*
D17*
G04 #@! TO.N,/connector/MotorB2*
X115975000Y-115775000D02*
X117224999Y-115775000D01*
X116000000Y-116750000D02*
X117250000Y-116750000D01*
X115975000Y-117725000D02*
X116000000Y-117750000D01*
X115975000Y-115775000D02*
X115975000Y-117725000D01*
X117250000Y-115800001D02*
X117224999Y-115775000D01*
X117250000Y-117750000D02*
X117250000Y-115800001D01*
X116600000Y-117750000D02*
X117250000Y-117750000D01*
X116000000Y-117750000D02*
X116600000Y-117750000D01*
D18*
X116600000Y-122200000D02*
X116600000Y-117750000D01*
X148500000Y-135360000D02*
X147140000Y-135360000D01*
X147140000Y-135360000D02*
X146780000Y-135000000D01*
X146780000Y-135000000D02*
X129400000Y-135000000D01*
X129400000Y-135000000D02*
X116600000Y-122200000D01*
D16*
G04 #@! TO.N,/connector/Busy*
X98000000Y-120400000D02*
X97600000Y-120400000D01*
X95200000Y-118000000D02*
X95200000Y-114088000D01*
X97600000Y-120400000D02*
X95200000Y-118000000D01*
X95200000Y-114088000D02*
X95250000Y-114038000D01*
D19*
G04 #@! TO.N,/connector/CLK*
X107600000Y-94800000D02*
X107800000Y-94800000D01*
D16*
X107600000Y-94800000D02*
X107600000Y-98000000D01*
X107600000Y-98000000D02*
X111230310Y-101630310D01*
X111230310Y-101630310D02*
X111230310Y-111599079D01*
X111230310Y-113349079D02*
X110230310Y-114349079D01*
X111230310Y-111599079D02*
X111230310Y-113349079D01*
G04 #@! TO.N,/connector/CS*
X98400000Y-104318769D02*
X97830310Y-103749079D01*
X99630310Y-105549079D02*
X98400000Y-104318769D01*
X99630310Y-119349079D02*
X99630310Y-105549079D01*
X99600000Y-128400000D02*
X98711620Y-129288380D01*
X99600000Y-119600000D02*
X99600000Y-128400000D01*
X99630310Y-119349079D02*
X99600000Y-119600000D01*
X98711620Y-129288380D02*
X97800000Y-129288380D01*
G04 #@! TO.N,/connector/SDO*
X105630310Y-113549079D02*
X105230310Y-113949079D01*
X105630310Y-104549079D02*
X105630310Y-113549079D01*
X103930310Y-84249079D02*
X105430310Y-85749079D01*
X98730310Y-84249079D02*
X103930310Y-84249079D01*
X105430310Y-85749079D02*
X105430310Y-93749079D01*
X95220000Y-87759389D02*
X98730310Y-84249079D01*
X103830310Y-98549079D02*
X106230310Y-100949079D01*
X95220000Y-95711620D02*
X95220000Y-87759389D01*
X105430310Y-93749079D02*
X103830310Y-95349079D01*
X103830310Y-95349079D02*
X103830310Y-98549079D01*
X106230310Y-100949079D02*
X106230310Y-103949079D01*
X106230310Y-103949079D02*
X105630310Y-104549079D01*
D18*
G04 #@! TO.N,85v*
X148500000Y-115040000D02*
X148500000Y-120120000D01*
D20*
G04 #@! TO.N,15v*
X132800000Y-96579389D02*
X132800000Y-96200000D01*
X125430310Y-103949079D02*
X132800000Y-96579389D01*
X125430310Y-106969690D02*
X125430310Y-103949079D01*
X122000000Y-110400000D02*
X125430310Y-106969690D01*
D18*
G04 #@! TO.N,G85V*
X148000000Y-104880000D02*
X148500000Y-104880000D01*
X148460000Y-110000000D02*
X148500000Y-109960000D01*
D17*
X116000000Y-110975000D02*
X117000000Y-110975000D01*
X117000000Y-110975000D02*
X118000000Y-110975000D01*
X120000000Y-110975000D02*
X118000000Y-110975000D01*
X120000000Y-111975000D02*
X116000000Y-111975000D01*
X116000000Y-112975000D02*
X120000000Y-112975000D01*
X116000000Y-113975000D02*
X120000000Y-113975000D01*
X116000000Y-113975000D02*
X116000000Y-110975000D01*
X120000000Y-113975000D02*
X120000000Y-112400000D01*
X120000000Y-112400000D02*
X120000000Y-110975000D01*
D18*
X136000000Y-102000000D02*
X136000000Y-111400000D01*
X148500000Y-107400000D02*
X148500000Y-109960000D01*
X148500000Y-104880000D02*
X148500000Y-107400000D01*
X136000000Y-111400000D02*
X136000000Y-122500000D01*
D20*
X138181231Y-127500000D02*
X136000000Y-125318769D01*
X136000000Y-125318769D02*
X136000000Y-122500000D01*
X140000000Y-127500000D02*
X138181231Y-127500000D01*
D18*
X143779389Y-107400000D02*
X148500000Y-107400000D01*
X138779389Y-112400000D02*
X143779389Y-107400000D01*
X120000000Y-112400000D02*
X138779389Y-112400000D01*
D16*
G04 #@! TO.N,/connector/Reset*
X93500000Y-129079389D02*
X94307009Y-128272380D01*
X109230310Y-115549079D02*
X111030310Y-117349079D01*
X111030310Y-117349079D02*
X111030310Y-123349079D01*
X106830310Y-137749079D02*
X95830310Y-137749079D01*
X111030310Y-123349079D02*
X111830310Y-124149079D01*
X109230310Y-109549079D02*
X109230310Y-115549079D01*
X109430310Y-109349079D02*
X109230310Y-109549079D01*
X111830310Y-124149079D02*
X111830310Y-132749079D01*
X94307009Y-128272380D02*
X95255340Y-128272380D01*
X111830310Y-132749079D02*
X106830310Y-137749079D01*
X95830310Y-137749079D02*
X93500000Y-135418769D01*
X93500000Y-135418769D02*
X93500000Y-129079389D01*
G04 #@! TO.N,/connector/Osc_Out*
X109000000Y-97600000D02*
X109000000Y-96400000D01*
X112000000Y-100600000D02*
X109000000Y-97600000D01*
X112000000Y-122349079D02*
X112030310Y-122349079D01*
X112000000Y-122349079D02*
X112000000Y-100600000D01*
X113230310Y-123549079D02*
X113230310Y-130749079D01*
X112030310Y-122349079D02*
X113230310Y-123549079D01*
X131800000Y-127518769D02*
X131800000Y-129000000D01*
X125830310Y-116049079D02*
X125830310Y-117949079D01*
X125830310Y-117949079D02*
X129230310Y-121349079D01*
X129230310Y-121349079D02*
X129230310Y-124949079D01*
X129230310Y-124949079D02*
X131800000Y-127518769D01*
G04 #@! TO.N,/connector/Osc_In*
X133000000Y-127318769D02*
X133000000Y-130000000D01*
X127330310Y-116849079D02*
X127330310Y-118049079D01*
X127330310Y-118049079D02*
X130230310Y-120949079D01*
X130230310Y-120949079D02*
X130230310Y-124549079D01*
X130230310Y-124549079D02*
X133000000Y-127318769D01*
G04 #@! TO.N,/motor/Switch_Local*
X106430310Y-92949079D02*
X108230310Y-91149079D01*
X110230310Y-110749079D02*
X110430310Y-110549079D01*
X110430310Y-110549079D02*
X110430310Y-102349079D01*
X110430310Y-102349079D02*
X106430310Y-98349079D01*
X106430310Y-98349079D02*
X106430310Y-92949079D01*
D17*
G04 #@! TO.N,G3V3*
X95220000Y-109940540D02*
X95250000Y-109970540D01*
X95220000Y-101800000D02*
X95220000Y-109940540D01*
X107630310Y-120030310D02*
X108400000Y-120800000D01*
X107630310Y-107349079D02*
X107630310Y-120030310D01*
X108200000Y-106779389D02*
X107630310Y-107349079D01*
X108200000Y-106000000D02*
X108200000Y-106779389D01*
X95255340Y-134374109D02*
X95255340Y-130301840D01*
X106230310Y-136349079D02*
X97230310Y-136349079D01*
X109030310Y-121430310D02*
X109030310Y-133549079D01*
X108400000Y-120800000D02*
X109030310Y-121430310D01*
X97230310Y-136349079D02*
X95255340Y-134374109D01*
X109030310Y-133549079D02*
X106230310Y-136349079D01*
D16*
G04 #@! TO.N,/connector/Busy_Out*
X105230310Y-98549079D02*
X105230310Y-95949079D01*
X107230310Y-100549079D02*
X105230310Y-98549079D01*
X107200000Y-124200000D02*
X106430310Y-123430310D01*
X106430310Y-105149079D02*
X107230310Y-104349079D01*
X106430310Y-123430310D02*
X106430310Y-105149079D01*
X107230310Y-104349079D02*
X107230310Y-100549079D01*
G04 #@! TO.N,/motor/Adc*
X134630310Y-96230310D02*
X134600000Y-96200000D01*
X134630310Y-96349079D02*
X134630310Y-96230310D01*
X126500000Y-104479389D02*
X134630310Y-96349079D01*
X126500000Y-108500000D02*
X126500000Y-104479389D01*
D17*
G04 #@! TO.N,/motor/SenseA*
X113830310Y-103669690D02*
X114000000Y-103500000D01*
X113830310Y-111549079D02*
X113830310Y-103669690D01*
G04 #@! TO.N,/motor/SenseB*
X113830310Y-121330310D02*
X114000000Y-121500000D01*
X113830310Y-113549079D02*
X113830310Y-121330310D01*
D16*
G04 #@! TO.N,/connector/Sdo_Back*
X94524151Y-126242920D02*
X95255340Y-126242920D01*
X95220000Y-97741080D02*
X94658920Y-97741080D01*
X94658920Y-97741080D02*
X93430310Y-98969690D01*
X93430310Y-125149079D02*
X94524151Y-126242920D01*
X93430310Y-98969690D02*
X93430310Y-125149079D01*
D19*
G04 #@! TO.N,/connector/Flag*
X105000000Y-101400000D02*
X105030310Y-101549079D01*
X104630310Y-108518779D02*
X104400010Y-108749079D01*
D16*
X104400010Y-104379379D02*
X104400010Y-108749079D01*
X105030310Y-103749079D02*
X104400010Y-104379379D01*
X105030310Y-101549079D02*
X105030310Y-103749079D01*
D17*
G04 #@! TO.N,3V3*
X101500000Y-104500000D02*
X102479389Y-104500000D01*
X102479389Y-104500000D02*
X103630300Y-103349089D01*
X103630300Y-103349089D02*
X103630300Y-100549069D01*
X101500000Y-98418769D02*
X101500000Y-94500000D01*
X103630300Y-100549069D02*
X101500000Y-98418769D01*
X101430310Y-104569690D02*
X101500000Y-104500000D01*
X103630310Y-113369690D02*
X103630310Y-110149079D01*
X103630310Y-110149079D02*
X101430310Y-107949079D01*
X101430310Y-107949079D02*
X101430310Y-104569690D01*
X101500000Y-133040000D02*
X101540000Y-133000000D01*
X101540000Y-133000000D02*
X103000000Y-133000000D01*
X104430310Y-123000000D02*
X101500000Y-123000000D01*
X103000000Y-133000000D02*
X104430310Y-131569690D01*
X104430310Y-131569690D02*
X104430310Y-123000000D01*
X103429389Y-113750000D02*
X101500000Y-113750000D01*
X103630310Y-113549079D02*
X103429389Y-113750000D01*
X103630310Y-115149079D02*
X103630310Y-113549079D01*
X104400000Y-123000000D02*
X101500000Y-123000000D01*
X104030310Y-115549079D02*
X103630310Y-115149079D01*
X104400000Y-115918769D02*
X104030310Y-115549079D01*
X104400000Y-123000000D02*
X104400000Y-115918769D01*
X103830310Y-87749079D02*
X101830310Y-85749079D01*
X103830310Y-93149079D02*
X103830310Y-87749079D01*
X101500000Y-94500000D02*
X102479379Y-94500000D01*
X102479379Y-94500000D02*
X103400001Y-93579378D01*
X103400001Y-93579378D02*
X103400011Y-93579378D01*
X103400011Y-93579378D02*
X103830310Y-93149079D01*
D20*
G04 #@! TO.N,Vreg*
X129430310Y-116849079D02*
X128130310Y-115549079D01*
X128130310Y-115549079D02*
X128030310Y-115549079D01*
X134200000Y-129000000D02*
X134200000Y-126918769D01*
X129430310Y-118549079D02*
X129430310Y-116849079D01*
X134200000Y-126918769D02*
X131430310Y-124149079D01*
X131430310Y-124149079D02*
X131430310Y-120549079D01*
X131430310Y-120549079D02*
X129430310Y-118549079D01*
G04 #@! TD*
D19*
G04 #@! TO.N,G3V3*
X108330310Y-101804714D02*
X108330310Y-101804714D01*
X108330310Y-101994714D02*
X108520310Y-101994714D01*
X108330310Y-102184714D02*
X108710310Y-102184714D01*
X108330310Y-102374714D02*
X108900310Y-102374714D01*
X108330310Y-102564714D02*
X109090310Y-102564714D01*
X108330310Y-102754714D02*
X109280310Y-102754714D01*
X108330310Y-102944714D02*
X109330311Y-102944714D01*
X108330310Y-103134714D02*
X109330311Y-103134714D01*
X108330310Y-103324714D02*
X109330311Y-103324714D01*
X108330310Y-103514714D02*
X109330311Y-103514714D01*
X108330310Y-103704714D02*
X109330311Y-103704714D01*
X108330310Y-103894714D02*
X109330311Y-103894714D01*
X108330310Y-104084714D02*
X109330311Y-104084714D01*
X108330310Y-104274714D02*
X109330311Y-104274714D01*
X108324243Y-104464714D02*
X109330311Y-104464714D01*
X108287093Y-104654714D02*
X109330311Y-104654714D01*
X108212663Y-104844714D02*
X109330311Y-104844714D01*
X108090631Y-105034714D02*
X109330311Y-105034714D01*
X107910309Y-105224714D02*
X109330311Y-105224714D01*
X107720309Y-105414714D02*
X109330311Y-105414714D01*
X107530310Y-105604714D02*
X109330311Y-105604714D01*
X107530310Y-105794714D02*
X109330311Y-105794714D01*
X107530310Y-105984714D02*
X109330311Y-105984714D01*
X107530310Y-106174714D02*
X109330311Y-106174714D01*
X107530310Y-106364714D02*
X109330311Y-106364714D01*
X107530310Y-106554714D02*
X109330311Y-106554714D01*
X107530310Y-106744714D02*
X109330311Y-106744714D01*
X107530310Y-106934714D02*
X109330311Y-106934714D01*
X107530310Y-107124714D02*
X109330311Y-107124714D01*
X107530310Y-107314714D02*
X109330311Y-107314714D01*
X107530310Y-107504714D02*
X109330311Y-107504714D01*
X107530310Y-107694714D02*
X109330311Y-107694714D01*
X107530310Y-107884714D02*
X109330311Y-107884714D01*
X107530310Y-108074714D02*
X108848523Y-108074714D01*
X107530310Y-108264714D02*
X108534776Y-108264714D01*
X107530310Y-108454714D02*
X108344776Y-108454714D01*
X107530310Y-108644714D02*
X108217186Y-108644714D01*
X107530310Y-108834714D02*
X108128018Y-108834714D01*
X107530310Y-109024714D02*
X108067403Y-109024714D01*
X107530310Y-109214714D02*
X108030310Y-109214714D01*
X107530310Y-109404714D02*
X108030310Y-109404714D01*
X107530310Y-109594714D02*
X108051742Y-109594714D01*
X107530310Y-109784714D02*
X108095406Y-109784714D01*
X107530310Y-109974714D02*
X108130310Y-109974714D01*
X107530310Y-110164714D02*
X108130310Y-110164714D01*
X107530310Y-110354714D02*
X108130310Y-110354714D01*
X107530310Y-110544714D02*
X108130310Y-110544714D01*
X107530310Y-110734714D02*
X108130310Y-110734714D01*
X107530310Y-110924714D02*
X108130310Y-110924714D01*
X107530310Y-111114714D02*
X108130310Y-111114714D01*
X107530310Y-111304714D02*
X108130310Y-111304714D01*
X107530310Y-111494714D02*
X108130310Y-111494714D01*
X107530310Y-111684714D02*
X108130310Y-111684714D01*
X107530310Y-111874714D02*
X108130310Y-111874714D01*
X107530310Y-112064714D02*
X108130310Y-112064714D01*
X107530310Y-112254714D02*
X108130310Y-112254714D01*
X107530310Y-112444714D02*
X108130310Y-112444714D01*
X107530310Y-112634714D02*
X108130310Y-112634714D01*
X107530310Y-112824714D02*
X108130310Y-112824714D01*
X107530310Y-113014714D02*
X108130310Y-113014714D01*
X107530310Y-113204714D02*
X108130310Y-113204714D01*
X107530310Y-113394714D02*
X108130310Y-113394714D01*
X107530310Y-113584714D02*
X108130310Y-113584714D01*
X107530310Y-113774714D02*
X108130310Y-113774714D01*
X107530310Y-113964714D02*
X108130310Y-113964714D01*
X107530310Y-114154714D02*
X108130310Y-114154714D01*
X107530310Y-114344714D02*
X108130310Y-114344714D01*
X107530310Y-114534714D02*
X108130310Y-114534714D01*
X107530310Y-114724714D02*
X108130310Y-114724714D01*
X107530310Y-114914714D02*
X108130310Y-114914714D01*
X107530310Y-115104714D02*
X108130310Y-115104714D01*
X107530310Y-115294714D02*
X108130310Y-115294714D01*
X107530310Y-115484714D02*
X108130310Y-115484714D01*
X107530310Y-115674714D02*
X108137362Y-115674714D01*
X107530310Y-115864714D02*
X108176561Y-115864714D01*
X107530310Y-116054714D02*
X108253301Y-116054714D01*
X107530310Y-116244714D02*
X108378196Y-116244714D01*
X107530310Y-116434714D02*
X108560310Y-116434714D01*
X107530310Y-116624714D02*
X108750310Y-116624714D01*
X107530310Y-116814714D02*
X108940310Y-116814714D01*
X107530310Y-117004714D02*
X109130310Y-117004714D01*
X107530310Y-117194714D02*
X109320310Y-117194714D01*
X107530310Y-117384714D02*
X109510310Y-117384714D01*
X107530310Y-117574714D02*
X109700310Y-117574714D01*
X107530310Y-117764714D02*
X109890310Y-117764714D01*
X107530310Y-117954714D02*
X109930310Y-117954714D01*
X107530310Y-118144714D02*
X109930310Y-118144714D01*
X107530310Y-118334714D02*
X109930310Y-118334714D01*
X107530310Y-118524714D02*
X109930310Y-118524714D01*
X107530310Y-118714714D02*
X109930310Y-118714714D01*
X107530310Y-118904714D02*
X109930310Y-118904714D01*
X107530310Y-119094714D02*
X109930310Y-119094714D01*
X107530310Y-119284714D02*
X109930310Y-119284714D01*
X107530310Y-119474714D02*
X109930310Y-119474714D01*
X107530310Y-119664714D02*
X109930310Y-119664714D01*
X107530310Y-119854714D02*
X109930310Y-119854714D01*
X107530310Y-120044714D02*
X109930310Y-120044714D01*
X107530310Y-120234714D02*
X109930310Y-120234714D01*
X107530310Y-120424714D02*
X109930310Y-120424714D01*
X107530310Y-120614714D02*
X109930310Y-120614714D01*
X107530310Y-120804714D02*
X109930310Y-120804714D01*
X107530310Y-120994714D02*
X109930310Y-120994714D01*
X107530310Y-121184714D02*
X109930310Y-121184714D01*
X107530310Y-121374714D02*
X109930310Y-121374714D01*
X107530310Y-121564714D02*
X109930310Y-121564714D01*
X107530310Y-121754714D02*
X109930310Y-121754714D01*
X107530310Y-121944714D02*
X109930310Y-121944714D01*
X107530310Y-122134714D02*
X109930310Y-122134714D01*
X107530310Y-122324714D02*
X109930310Y-122324714D01*
X107530310Y-122514714D02*
X109930310Y-122514714D01*
X107530310Y-122704714D02*
X109930310Y-122704714D01*
X107707138Y-122894714D02*
X109930310Y-122894714D01*
X108050791Y-123084714D02*
X109930310Y-123084714D01*
X108254613Y-123274714D02*
X109930310Y-123274714D01*
X108392464Y-123464714D02*
X109936377Y-123464714D01*
X108489485Y-123654714D02*
X109973527Y-123654714D01*
X108556758Y-123844714D02*
X110047956Y-123844714D01*
X108594551Y-124034714D02*
X110169989Y-124034714D01*
X108600000Y-124224714D02*
X110350310Y-124224714D01*
X108584718Y-124414714D02*
X110540310Y-124414714D01*
X105830310Y-124604714D02*
X105853074Y-124604714D01*
X108546925Y-124604714D02*
X110730310Y-124604714D01*
X105830310Y-124794714D02*
X105930989Y-124794714D01*
X108469010Y-124794714D02*
X110730310Y-124794714D01*
X105830310Y-124984714D02*
X106040563Y-124984714D01*
X108359436Y-124984714D02*
X110730310Y-124984714D01*
X105830310Y-125174714D02*
X106194815Y-125174714D01*
X108205185Y-125174714D02*
X110730310Y-125174714D01*
X105830310Y-125364714D02*
X106423184Y-125364714D01*
X107976815Y-125364714D02*
X110730310Y-125364714D01*
X105830310Y-125554714D02*
X106834442Y-125554714D01*
X107565557Y-125554714D02*
X110730310Y-125554714D01*
X105830310Y-125744714D02*
X110730310Y-125744714D01*
X105830310Y-125934714D02*
X110730310Y-125934714D01*
X105830310Y-126124714D02*
X110730310Y-126124714D01*
X105830310Y-126314714D02*
X110730310Y-126314714D01*
X105830310Y-126504714D02*
X110730310Y-126504714D01*
X105830310Y-126694714D02*
X110730310Y-126694714D01*
X105830310Y-126884714D02*
X110730310Y-126884714D01*
X105830310Y-127074714D02*
X110730310Y-127074714D01*
X105830310Y-127264714D02*
X110730310Y-127264714D01*
X105830310Y-127454714D02*
X110730310Y-127454714D01*
X105830310Y-127644714D02*
X110730310Y-127644714D01*
X105830310Y-127834714D02*
X110730310Y-127834714D01*
X105830310Y-128024714D02*
X110730310Y-128024714D01*
X105830310Y-128214714D02*
X110730310Y-128214714D01*
X105830310Y-128404714D02*
X110730310Y-128404714D01*
X105830310Y-128594714D02*
X110730310Y-128594714D01*
X105830310Y-128784714D02*
X110730310Y-128784714D01*
X105830310Y-128974714D02*
X110730310Y-128974714D01*
X105830310Y-129164714D02*
X110730310Y-129164714D01*
X105830310Y-129354714D02*
X110730310Y-129354714D01*
X105830310Y-129544714D02*
X110730310Y-129544714D01*
X105830310Y-129734714D02*
X110730310Y-129734714D01*
X99630920Y-129924714D02*
X99681747Y-129924714D01*
X105830310Y-129924714D02*
X110730310Y-129924714D01*
X99479229Y-130114714D02*
X99639416Y-130114714D01*
X105830310Y-130114714D02*
X110730310Y-130114714D01*
X95135340Y-130304714D02*
X95375340Y-130304714D01*
X99350426Y-130304714D02*
X99601622Y-130304714D01*
X105830310Y-130304714D02*
X110730310Y-130304714D01*
X95155340Y-130494714D02*
X95355340Y-130494714D01*
X99180986Y-130494714D02*
X99600000Y-130494714D01*
X105830310Y-130494714D02*
X110730310Y-130494714D01*
X95155340Y-130684714D02*
X95355340Y-130684714D01*
X98937877Y-130684714D02*
X99600000Y-130684714D01*
X105830310Y-130684714D02*
X110730310Y-130684714D01*
X95155340Y-130874714D02*
X95355340Y-130874714D01*
X96616991Y-130874714D02*
X97095369Y-130874714D01*
X98504630Y-130874714D02*
X99637312Y-130874714D01*
X105830310Y-130874714D02*
X110730310Y-130874714D01*
X95155340Y-131064714D02*
X95355340Y-131064714D01*
X96494895Y-131064714D02*
X99677367Y-131064714D01*
X105830310Y-131064714D02*
X110730310Y-131064714D01*
X95155340Y-131254714D02*
X95355340Y-131254714D01*
X96315012Y-131254714D02*
X99756067Y-131254714D01*
X105830310Y-131254714D02*
X110730310Y-131254714D01*
X95155340Y-131444714D02*
X95355340Y-131444714D01*
X96009160Y-131444714D02*
X99846127Y-131444714D01*
X105830310Y-131444714D02*
X110730310Y-131444714D01*
X94600000Y-131634714D02*
X99973081Y-131634714D01*
X105830678Y-131634714D02*
X110730310Y-131634714D01*
X94600000Y-131824714D02*
X100028281Y-131824714D01*
X105811966Y-131824714D02*
X110730310Y-131824714D01*
X94600000Y-132014714D02*
X99899965Y-132014714D01*
X105758309Y-132014714D02*
X110730310Y-132014714D01*
X94600000Y-132204714D02*
X99789442Y-132204714D01*
X105678326Y-132204714D02*
X110730310Y-132204714D01*
X94600000Y-132394714D02*
X99710742Y-132394714D01*
X105564331Y-132394714D02*
X110629041Y-132394714D01*
X94600000Y-132584714D02*
X99653339Y-132584714D01*
X105400330Y-132584714D02*
X110439041Y-132584714D01*
X94600000Y-132774714D02*
X99615546Y-132774714D01*
X105205184Y-132774714D02*
X110249041Y-132774714D01*
X94600000Y-132964714D02*
X99600000Y-132964714D01*
X105015184Y-132964714D02*
X110059041Y-132964714D01*
X94600000Y-133154714D02*
X99600000Y-133154714D01*
X104825184Y-133154714D02*
X109869041Y-133154714D01*
X94600000Y-133344714D02*
X99623388Y-133344714D01*
X104635184Y-133344714D02*
X109679041Y-133344714D01*
X94600000Y-133534714D02*
X99661181Y-133534714D01*
X104445184Y-133534714D02*
X109489041Y-133534714D01*
X94600000Y-133724714D02*
X99727072Y-133724714D01*
X104255184Y-133724714D02*
X109299041Y-133724714D01*
X94600000Y-133914714D02*
X99805773Y-133914714D01*
X104065184Y-133914714D02*
X109109041Y-133914714D01*
X94600000Y-134104714D02*
X99926309Y-134104714D01*
X103860734Y-134104714D02*
X108919041Y-134104714D01*
X94600000Y-134294714D02*
X100067709Y-134294714D01*
X103547658Y-134294714D02*
X108729041Y-134294714D01*
X94600000Y-134484714D02*
X100257709Y-134484714D01*
X102742291Y-134484714D02*
X108539041Y-134484714D01*
X94600000Y-134674714D02*
X100526613Y-134674714D01*
X102473386Y-134674714D02*
X108349041Y-134674714D01*
X94600000Y-134864714D02*
X100940310Y-134864714D01*
X102059689Y-134864714D02*
X108159041Y-134864714D01*
X94691580Y-135054714D02*
X107969041Y-135054714D01*
X94881580Y-135244714D02*
X107779041Y-135244714D01*
X95071580Y-135434714D02*
X107589041Y-135434714D01*
X95261580Y-135624714D02*
X107399041Y-135624714D01*
X95451580Y-135814714D02*
X107209041Y-135814714D01*
X95641580Y-136004714D02*
X107019041Y-136004714D01*
X95831580Y-136194714D02*
X106829041Y-136194714D01*
X96021580Y-136384714D02*
X106639041Y-136384714D01*
X96211580Y-136574714D02*
X106449041Y-136574714D01*
X110730311Y-132293443D02*
X110730311Y-132293443D01*
X110540311Y-124414714D02*
X110540311Y-132483443D01*
X110350311Y-124224714D02*
X110350311Y-132673443D01*
X110160311Y-124022920D02*
X110160311Y-132863443D01*
X109970311Y-123644109D02*
X109970311Y-133053443D01*
X109780311Y-117654714D02*
X109780311Y-133243443D01*
X109590311Y-117464714D02*
X109590311Y-133433443D01*
X109400311Y-117274714D02*
X109400311Y-133623443D01*
X109210311Y-102684715D02*
X109210311Y-107965411D01*
X109210311Y-117084714D02*
X109210311Y-133813443D01*
X109020311Y-102494715D02*
X109020311Y-108003556D01*
X109020311Y-116894714D02*
X109020311Y-134003443D01*
X108830311Y-102304715D02*
X108830311Y-108082257D01*
X108830311Y-116704714D02*
X108830311Y-134193443D01*
X108640311Y-102114715D02*
X108640311Y-108193173D01*
X108640311Y-116514714D02*
X108640311Y-134383443D01*
X108450311Y-101924715D02*
X108450311Y-108349179D01*
X108450311Y-116331957D02*
X108450311Y-123560141D01*
X108450311Y-124839860D02*
X108450311Y-134573443D01*
X108260311Y-104743002D02*
X108260311Y-108580172D01*
X108260311Y-116067827D02*
X108260311Y-123280412D01*
X108260311Y-125119588D02*
X108260311Y-134763443D01*
X108070311Y-105059475D02*
X108070311Y-109010091D01*
X108070311Y-109688066D02*
X108070311Y-123097758D01*
X108070311Y-125302243D02*
X108070311Y-134953443D01*
X107880311Y-105254713D02*
X107880311Y-122970804D01*
X107880311Y-125429197D02*
X107880311Y-135143443D01*
X107690311Y-105444713D02*
X107690311Y-122887745D01*
X107690311Y-125512256D02*
X107690311Y-135333443D01*
X107500311Y-125567693D02*
X107500311Y-135523443D01*
X107310311Y-125600000D02*
X107310311Y-135713443D01*
X107120311Y-125600000D02*
X107120311Y-135903443D01*
X106930311Y-125573783D02*
X106930311Y-136093443D01*
X106740311Y-125524939D02*
X106740311Y-136283443D01*
X106550311Y-125446239D02*
X106550311Y-136473443D01*
X106360311Y-125322703D02*
X106360311Y-136649079D01*
X106170311Y-125150210D02*
X106170311Y-136649079D01*
X105980311Y-124894540D02*
X105980311Y-136649079D01*
X105790311Y-131909220D02*
X105790311Y-136649079D01*
X105600311Y-132350671D02*
X105600311Y-136649079D01*
X105410311Y-132576524D02*
X105410311Y-136649079D01*
X105220311Y-132759587D02*
X105220311Y-136649079D01*
X105030311Y-132949587D02*
X105030311Y-136649079D01*
X104840311Y-133139587D02*
X104840311Y-136649079D01*
X104650311Y-133329587D02*
X104650311Y-136649079D01*
X104460311Y-133519587D02*
X104460311Y-136649079D01*
X104270311Y-133709587D02*
X104270311Y-136649079D01*
X104080311Y-133899587D02*
X104080311Y-136649079D01*
X103890311Y-134080442D02*
X103890311Y-136649079D01*
X103700311Y-134213120D02*
X103700311Y-136649079D01*
X103510311Y-134308196D02*
X103510311Y-136649079D01*
X103320311Y-134365831D02*
X103320311Y-136649079D01*
X103130311Y-134393940D02*
X103130311Y-136649079D01*
X102940311Y-134400894D02*
X102940311Y-136649079D01*
X102750311Y-134476694D02*
X102750311Y-136649079D01*
X102560311Y-134616633D02*
X102560311Y-136649079D01*
X102370311Y-134736051D02*
X102370311Y-136649079D01*
X102180311Y-134814751D02*
X102180311Y-136649079D01*
X101990311Y-134879695D02*
X101990311Y-136649079D01*
X101800311Y-134917488D02*
X101800311Y-136649079D01*
X101610311Y-134940000D02*
X101610311Y-136649079D01*
X101420311Y-134940000D02*
X101420311Y-136649079D01*
X101230311Y-134923578D02*
X101230311Y-136649079D01*
X101040311Y-134885785D02*
X101040311Y-136649079D01*
X100850311Y-134827434D02*
X100850311Y-136649079D01*
X100660311Y-134748734D02*
X100660311Y-136649079D01*
X100470311Y-134637093D02*
X100470311Y-136649079D01*
X100280311Y-134507316D02*
X100280311Y-136649079D01*
X100090311Y-134317316D02*
X100090311Y-136649079D01*
X99900311Y-131525805D02*
X99900311Y-132014194D01*
X99900311Y-134065805D02*
X99900311Y-136649079D01*
X99710311Y-129845323D02*
X99710311Y-129855752D01*
X99710311Y-131144247D02*
X99710311Y-132395752D01*
X99710311Y-133684247D02*
X99710311Y-136649079D01*
X99520311Y-130037857D02*
X99520311Y-136649079D01*
X99330311Y-130329226D02*
X99330311Y-136649079D01*
X99140311Y-130528096D02*
X99140311Y-136649079D01*
X98950311Y-130678068D02*
X98950311Y-136649079D01*
X98760311Y-130779626D02*
X98760311Y-136649079D01*
X98570311Y-130854791D02*
X98570311Y-136649079D01*
X98380311Y-130912426D02*
X98380311Y-136649079D01*
X98190311Y-130932544D02*
X98190311Y-136649079D01*
X98000311Y-130938380D02*
X98000311Y-136649079D01*
X97810311Y-130938380D02*
X97810311Y-136649079D01*
X97620311Y-130938380D02*
X97620311Y-136649079D01*
X97430311Y-130934574D02*
X97430311Y-136649079D01*
X97240311Y-130915860D02*
X97240311Y-136649079D01*
X97050311Y-130861045D02*
X97050311Y-136649079D01*
X96860311Y-130790648D02*
X96860311Y-136649079D01*
X96670311Y-130752385D02*
X96670311Y-136649079D01*
X96480311Y-131085698D02*
X96480311Y-136649079D01*
X96290311Y-131278526D02*
X96290311Y-136649079D01*
X96100311Y-131402868D02*
X96100311Y-136463446D01*
X95910311Y-131483550D02*
X95910311Y-136273446D01*
X95720311Y-131531156D02*
X95720311Y-136083446D01*
X95530311Y-131551840D02*
X95530311Y-135893446D01*
X95340311Y-130181840D02*
X95340311Y-135703446D01*
X95150311Y-130201840D02*
X95150311Y-130401840D01*
X95150311Y-131551840D02*
X95150311Y-135513446D01*
X94960311Y-131551840D02*
X94960311Y-135323446D01*
X94770311Y-131527547D02*
X94770311Y-135133446D01*
X95120000Y-101680000D02*
X95320000Y-101680000D01*
X95100000Y-101870000D02*
X95340000Y-101870000D01*
X95120000Y-102060000D02*
X95320000Y-102060000D01*
X95120000Y-102250000D02*
X95320000Y-102250000D01*
X95120000Y-102440000D02*
X95320000Y-102440000D01*
X95120000Y-102630000D02*
X95320000Y-102630000D01*
X95120000Y-102820000D02*
X95320000Y-102820000D01*
X94530310Y-103010000D02*
X94647663Y-103010000D01*
X95120000Y-103010000D02*
X95320000Y-103010000D01*
X94530310Y-103200000D02*
X95530003Y-103200000D01*
X94530310Y-103390000D02*
X95530311Y-103390000D01*
X94530310Y-103580000D02*
X95530311Y-103580000D01*
X94530310Y-103770000D02*
X95530311Y-103770000D01*
X94530310Y-103960000D02*
X95530311Y-103960000D01*
X94530310Y-104150000D02*
X95530311Y-104150000D01*
X94530310Y-104340000D02*
X95530311Y-104340000D01*
X94530310Y-104530000D02*
X95530311Y-104530000D01*
X94530310Y-104720000D02*
X95530311Y-104720000D01*
X94530310Y-104910000D02*
X95530311Y-104910000D01*
X94530310Y-105100000D02*
X95530311Y-105100000D01*
X94530310Y-105290000D02*
X95530311Y-105290000D01*
X94530310Y-105480000D02*
X95530311Y-105480000D01*
X94530310Y-105670000D02*
X95530311Y-105670000D01*
X94530310Y-105860000D02*
X95530311Y-105860000D01*
X94530310Y-106050000D02*
X95530311Y-106050000D01*
X94530310Y-106240000D02*
X95530311Y-106240000D01*
X94530310Y-106430000D02*
X95530311Y-106430000D01*
X94530310Y-106620000D02*
X95530311Y-106620000D01*
X94530310Y-106810000D02*
X95530311Y-106810000D01*
X94530310Y-107000000D02*
X95530003Y-107000000D01*
X94530310Y-107190000D02*
X95553895Y-107190000D01*
X94530310Y-107380000D02*
X95613366Y-107380000D01*
X94530310Y-107570000D02*
X95716878Y-107570000D01*
X94530310Y-107760000D02*
X95884479Y-107760000D01*
X94530310Y-107950000D02*
X96075597Y-107950000D01*
X94530310Y-108140000D02*
X96265597Y-108140000D01*
X94530310Y-108330000D02*
X96455597Y-108330000D01*
X94530310Y-108520000D02*
X96645597Y-108520000D01*
X94530310Y-108710000D02*
X96694661Y-108710000D01*
X95150000Y-108900000D02*
X95350000Y-108900000D01*
X96142463Y-108900000D02*
X96694661Y-108900000D01*
X95150000Y-109090000D02*
X95350000Y-109090000D01*
X96384711Y-109090000D02*
X96694661Y-109090000D01*
X95150000Y-109280000D02*
X95350000Y-109280000D01*
X96539832Y-109280000D02*
X96694661Y-109280000D01*
X95150000Y-109470000D02*
X95350000Y-109470000D01*
X96643180Y-109470000D02*
X96694661Y-109470000D01*
X95150000Y-109660000D02*
X95350000Y-109660000D01*
X95150000Y-109850000D02*
X95350000Y-109850000D01*
X95130000Y-110040000D02*
X95370000Y-110040000D01*
X96694661Y-108569064D02*
X96694661Y-108569064D01*
X96504661Y-108379064D02*
X96504661Y-109229399D01*
X96314661Y-108189064D02*
X96314661Y-109022475D01*
X96124661Y-107999064D02*
X96124661Y-108888572D01*
X95934661Y-107809064D02*
X95934661Y-108800495D01*
X95744661Y-107603852D02*
X95744661Y-108746566D01*
X95554661Y-107192521D02*
X95554661Y-108720540D01*
X95364661Y-103050000D02*
X95364661Y-108720540D01*
X95364661Y-109870540D02*
X95364661Y-110070540D01*
X95174661Y-101680000D02*
X95174661Y-110090540D01*
X94984661Y-103050000D02*
X94984661Y-108720540D01*
X94794661Y-103036445D02*
X94794661Y-108739491D01*
X94604661Y-102997280D02*
X94604661Y-108785045D01*
D21*
X109330311Y-102804715D02*
X109330310Y-107949079D01*
X109292422Y-107949079D01*
X109021945Y-108002880D01*
X108767161Y-108108415D01*
X108537862Y-108261628D01*
X108342859Y-108456631D01*
X108189646Y-108685930D01*
X108084111Y-108940714D01*
X108030310Y-109211191D01*
X108030310Y-109486967D01*
X108084111Y-109757444D01*
X108130310Y-109868978D01*
X108130311Y-115495035D01*
X108124988Y-115549079D01*
X108144413Y-115746302D01*
X108146227Y-115764717D01*
X108174389Y-115857552D01*
X108209127Y-115972067D01*
X108311268Y-116163163D01*
X108377411Y-116243757D01*
X108448730Y-116330660D01*
X108490704Y-116365107D01*
X109930310Y-117804714D01*
X109930311Y-123295035D01*
X109924988Y-123349079D01*
X109943630Y-123538348D01*
X109946227Y-123564717D01*
X109995180Y-123726090D01*
X110009127Y-123772067D01*
X110111268Y-123963163D01*
X110177411Y-124043757D01*
X110248730Y-124130660D01*
X110290704Y-124165107D01*
X110730310Y-124604714D01*
X110730311Y-132293443D01*
X106374676Y-136649079D01*
X96285945Y-136649079D01*
X94600000Y-134963135D01*
X94600000Y-131483405D01*
X94663399Y-131508313D01*
X94905340Y-131551840D01*
X95155340Y-131551840D01*
X95155340Y-130401840D01*
X95135340Y-130401840D01*
X95135340Y-130201840D01*
X95155340Y-130201840D01*
X95155340Y-130181840D01*
X95355340Y-130181840D01*
X95355340Y-130201840D01*
X95375340Y-130201840D01*
X95375340Y-130401840D01*
X95355340Y-130401840D01*
X95355340Y-131551840D01*
X95605340Y-131551840D01*
X95847281Y-131508313D01*
X96076082Y-131418422D01*
X96282950Y-131285621D01*
X96459935Y-131115014D01*
X96600235Y-130913157D01*
X96692686Y-130701051D01*
X96915517Y-130820157D01*
X97226544Y-130914505D01*
X97468948Y-130938380D01*
X98131052Y-130938380D01*
X98373456Y-130914505D01*
X98684483Y-130820157D01*
X98971126Y-130666942D01*
X99222371Y-130460751D01*
X99428562Y-130209506D01*
X99521736Y-130035191D01*
X99527653Y-130027981D01*
X99717686Y-129837948D01*
X99673016Y-129945791D01*
X99600000Y-130312866D01*
X99600000Y-130687134D01*
X99673016Y-131054209D01*
X99816242Y-131399987D01*
X100024174Y-131711179D01*
X100082995Y-131770000D01*
X100024174Y-131828821D01*
X99816242Y-132140013D01*
X99673016Y-132485791D01*
X99600000Y-132852866D01*
X99600000Y-133227134D01*
X99673016Y-133594209D01*
X99816242Y-133939987D01*
X100024174Y-134251179D01*
X100288821Y-134515826D01*
X100600013Y-134723758D01*
X100945791Y-134866984D01*
X101312866Y-134940000D01*
X101687134Y-134940000D01*
X102054209Y-134866984D01*
X102399987Y-134723758D01*
X102711179Y-134515826D01*
X102827005Y-134400000D01*
X102931231Y-134400000D01*
X103000000Y-134406773D01*
X103068769Y-134400000D01*
X103068777Y-134400000D01*
X103274448Y-134379743D01*
X103538349Y-134299690D01*
X103781562Y-134169690D01*
X103994739Y-133994739D01*
X104038584Y-133941314D01*
X105371633Y-132608265D01*
X105425048Y-132564429D01*
X105468886Y-132511013D01*
X105468892Y-132511007D01*
X105559993Y-132400000D01*
X105600000Y-132351252D01*
X105730000Y-132108039D01*
X105810053Y-131844138D01*
X105830310Y-131638467D01*
X105830310Y-131638459D01*
X105837083Y-131569690D01*
X105830310Y-131500921D01*
X105830310Y-124490267D01*
X105853801Y-124608365D01*
X105959336Y-124863149D01*
X106112549Y-125092448D01*
X106307552Y-125287451D01*
X106536851Y-125440664D01*
X106791635Y-125546199D01*
X107062112Y-125600000D01*
X107337888Y-125600000D01*
X107608365Y-125546199D01*
X107863149Y-125440664D01*
X108092448Y-125287451D01*
X108287451Y-125092448D01*
X108440664Y-124863149D01*
X108546199Y-124608365D01*
X108600000Y-124337888D01*
X108600000Y-124062112D01*
X108546199Y-123791635D01*
X108440664Y-123536851D01*
X108287451Y-123307552D01*
X108092448Y-123112549D01*
X107863149Y-122959336D01*
X107608365Y-122853801D01*
X107530310Y-122838275D01*
X107530310Y-105604713D01*
X107969916Y-105165108D01*
X108011891Y-105130660D01*
X108149352Y-104963163D01*
X108251494Y-104772067D01*
X108314394Y-104564717D01*
X108330310Y-104403115D01*
X108330310Y-104403113D01*
X108335632Y-104349079D01*
X108330310Y-104295045D01*
X108330310Y-101804714D01*
X109330311Y-102804715D01*
D19*
X108330310Y-101804714D02*
X108330310Y-101804714D01*
X108330310Y-101994714D02*
X108520310Y-101994714D01*
X108330310Y-102184714D02*
X108710310Y-102184714D01*
X108330310Y-102374714D02*
X108900310Y-102374714D01*
X108330310Y-102564714D02*
X109090310Y-102564714D01*
X108330310Y-102754714D02*
X109280310Y-102754714D01*
X108330310Y-102944714D02*
X109330311Y-102944714D01*
X108330310Y-103134714D02*
X109330311Y-103134714D01*
X108330310Y-103324714D02*
X109330311Y-103324714D01*
X108330310Y-103514714D02*
X109330311Y-103514714D01*
X108330310Y-103704714D02*
X109330311Y-103704714D01*
X108330310Y-103894714D02*
X109330311Y-103894714D01*
X108330310Y-104084714D02*
X109330311Y-104084714D01*
X108330310Y-104274714D02*
X109330311Y-104274714D01*
X108324243Y-104464714D02*
X109330311Y-104464714D01*
X108287093Y-104654714D02*
X109330311Y-104654714D01*
X108212663Y-104844714D02*
X109330311Y-104844714D01*
X108090631Y-105034714D02*
X109330311Y-105034714D01*
X107910309Y-105224714D02*
X109330311Y-105224714D01*
X107720309Y-105414714D02*
X109330311Y-105414714D01*
X107530310Y-105604714D02*
X109330311Y-105604714D01*
X107530310Y-105794714D02*
X109330311Y-105794714D01*
X107530310Y-105984714D02*
X109330311Y-105984714D01*
X107530310Y-106174714D02*
X109330311Y-106174714D01*
X107530310Y-106364714D02*
X109330311Y-106364714D01*
X107530310Y-106554714D02*
X109330311Y-106554714D01*
X107530310Y-106744714D02*
X109330311Y-106744714D01*
X107530310Y-106934714D02*
X109330311Y-106934714D01*
X107530310Y-107124714D02*
X109330311Y-107124714D01*
X107530310Y-107314714D02*
X109330311Y-107314714D01*
X107530310Y-107504714D02*
X109330311Y-107504714D01*
X107530310Y-107694714D02*
X109330311Y-107694714D01*
X107530310Y-107884714D02*
X109330311Y-107884714D01*
X107530310Y-108074714D02*
X108848523Y-108074714D01*
X107530310Y-108264714D02*
X108534776Y-108264714D01*
X107530310Y-108454714D02*
X108344776Y-108454714D01*
X107530310Y-108644714D02*
X108217186Y-108644714D01*
X107530310Y-108834714D02*
X108128018Y-108834714D01*
X107530310Y-109024714D02*
X108067403Y-109024714D01*
X107530310Y-109214714D02*
X108030310Y-109214714D01*
X107530310Y-109404714D02*
X108030310Y-109404714D01*
X107530310Y-109594714D02*
X108051742Y-109594714D01*
X107530310Y-109784714D02*
X108095406Y-109784714D01*
X107530310Y-109974714D02*
X108130310Y-109974714D01*
X107530310Y-110164714D02*
X108130310Y-110164714D01*
X107530310Y-110354714D02*
X108130310Y-110354714D01*
X107530310Y-110544714D02*
X108130310Y-110544714D01*
X107530310Y-110734714D02*
X108130310Y-110734714D01*
X107530310Y-110924714D02*
X108130310Y-110924714D01*
X107530310Y-111114714D02*
X108130310Y-111114714D01*
X107530310Y-111304714D02*
X108130310Y-111304714D01*
X107530310Y-111494714D02*
X108130310Y-111494714D01*
X107530310Y-111684714D02*
X108130310Y-111684714D01*
X107530310Y-111874714D02*
X108130310Y-111874714D01*
X107530310Y-112064714D02*
X108130310Y-112064714D01*
X107530310Y-112254714D02*
X108130310Y-112254714D01*
X107530310Y-112444714D02*
X108130310Y-112444714D01*
X107530310Y-112634714D02*
X108130310Y-112634714D01*
X107530310Y-112824714D02*
X108130310Y-112824714D01*
X107530310Y-113014714D02*
X108130310Y-113014714D01*
X107530310Y-113204714D02*
X108130310Y-113204714D01*
X107530310Y-113394714D02*
X108130310Y-113394714D01*
X107530310Y-113584714D02*
X108130310Y-113584714D01*
X107530310Y-113774714D02*
X108130310Y-113774714D01*
X107530310Y-113964714D02*
X108130310Y-113964714D01*
X107530310Y-114154714D02*
X108130310Y-114154714D01*
X107530310Y-114344714D02*
X108130310Y-114344714D01*
X107530310Y-114534714D02*
X108130310Y-114534714D01*
X107530310Y-114724714D02*
X108130310Y-114724714D01*
X107530310Y-114914714D02*
X108130310Y-114914714D01*
X107530310Y-115104714D02*
X108130310Y-115104714D01*
X107530310Y-115294714D02*
X108130310Y-115294714D01*
X107530310Y-115484714D02*
X108130310Y-115484714D01*
X107530310Y-115674714D02*
X108137362Y-115674714D01*
X107530310Y-115864714D02*
X108176561Y-115864714D01*
X107530310Y-116054714D02*
X108253301Y-116054714D01*
X107530310Y-116244714D02*
X108378196Y-116244714D01*
X107530310Y-116434714D02*
X108560310Y-116434714D01*
X107530310Y-116624714D02*
X108750310Y-116624714D01*
X107530310Y-116814714D02*
X108940310Y-116814714D01*
X107530310Y-117004714D02*
X109130310Y-117004714D01*
X107530310Y-117194714D02*
X109320310Y-117194714D01*
X107530310Y-117384714D02*
X109510310Y-117384714D01*
X107530310Y-117574714D02*
X109700310Y-117574714D01*
X107530310Y-117764714D02*
X109890310Y-117764714D01*
X107530310Y-117954714D02*
X109930310Y-117954714D01*
X107530310Y-118144714D02*
X109930310Y-118144714D01*
X107530310Y-118334714D02*
X109930310Y-118334714D01*
X107530310Y-118524714D02*
X109930310Y-118524714D01*
X107530310Y-118714714D02*
X109930310Y-118714714D01*
X107530310Y-118904714D02*
X109930310Y-118904714D01*
X107530310Y-119094714D02*
X109930310Y-119094714D01*
X107530310Y-119284714D02*
X109930310Y-119284714D01*
X107530310Y-119474714D02*
X109930310Y-119474714D01*
X107530310Y-119664714D02*
X109930310Y-119664714D01*
X107530310Y-119854714D02*
X109930310Y-119854714D01*
X107530310Y-120044714D02*
X109930310Y-120044714D01*
X107530310Y-120234714D02*
X109930310Y-120234714D01*
X107530310Y-120424714D02*
X109930310Y-120424714D01*
X107530310Y-120614714D02*
X109930310Y-120614714D01*
X107530310Y-120804714D02*
X109930310Y-120804714D01*
X107530310Y-120994714D02*
X109930310Y-120994714D01*
X107530310Y-121184714D02*
X109930310Y-121184714D01*
X107530310Y-121374714D02*
X109930310Y-121374714D01*
X107530310Y-121564714D02*
X109930310Y-121564714D01*
X107530310Y-121754714D02*
X109930310Y-121754714D01*
X107530310Y-121944714D02*
X109930310Y-121944714D01*
X107530310Y-122134714D02*
X109930310Y-122134714D01*
X107530310Y-122324714D02*
X109930310Y-122324714D01*
X107530310Y-122514714D02*
X109930310Y-122514714D01*
X107530310Y-122704714D02*
X109930310Y-122704714D01*
X107707138Y-122894714D02*
X109930310Y-122894714D01*
X108050791Y-123084714D02*
X109930310Y-123084714D01*
X108254613Y-123274714D02*
X109930310Y-123274714D01*
X108392464Y-123464714D02*
X109936377Y-123464714D01*
X108489485Y-123654714D02*
X109973527Y-123654714D01*
X108556758Y-123844714D02*
X110047956Y-123844714D01*
X108594551Y-124034714D02*
X110169989Y-124034714D01*
X108600000Y-124224714D02*
X110350310Y-124224714D01*
X108584718Y-124414714D02*
X110540310Y-124414714D01*
X105830310Y-124604714D02*
X105853074Y-124604714D01*
X108546925Y-124604714D02*
X110730310Y-124604714D01*
X105830310Y-124794714D02*
X105930989Y-124794714D01*
X108469010Y-124794714D02*
X110730310Y-124794714D01*
X105830310Y-124984714D02*
X106040563Y-124984714D01*
X108359436Y-124984714D02*
X110730310Y-124984714D01*
X105830310Y-125174714D02*
X106194815Y-125174714D01*
X108205185Y-125174714D02*
X110730310Y-125174714D01*
X105830310Y-125364714D02*
X106423184Y-125364714D01*
X107976815Y-125364714D02*
X110730310Y-125364714D01*
X105830310Y-125554714D02*
X106834442Y-125554714D01*
X107565557Y-125554714D02*
X110730310Y-125554714D01*
X105830310Y-125744714D02*
X110730310Y-125744714D01*
X105830310Y-125934714D02*
X110730310Y-125934714D01*
X105830310Y-126124714D02*
X110730310Y-126124714D01*
X105830310Y-126314714D02*
X110730310Y-126314714D01*
X105830310Y-126504714D02*
X110730310Y-126504714D01*
X105830310Y-126694714D02*
X110730310Y-126694714D01*
X105830310Y-126884714D02*
X110730310Y-126884714D01*
X105830310Y-127074714D02*
X110730310Y-127074714D01*
X105830310Y-127264714D02*
X110730310Y-127264714D01*
X105830310Y-127454714D02*
X110730310Y-127454714D01*
X105830310Y-127644714D02*
X110730310Y-127644714D01*
X105830310Y-127834714D02*
X110730310Y-127834714D01*
X105830310Y-128024714D02*
X110730310Y-128024714D01*
X105830310Y-128214714D02*
X110730310Y-128214714D01*
X105830310Y-128404714D02*
X110730310Y-128404714D01*
X105830310Y-128594714D02*
X110730310Y-128594714D01*
X105830310Y-128784714D02*
X110730310Y-128784714D01*
X105830310Y-128974714D02*
X110730310Y-128974714D01*
X105830310Y-129164714D02*
X110730310Y-129164714D01*
X105830310Y-129354714D02*
X110730310Y-129354714D01*
X105830310Y-129544714D02*
X110730310Y-129544714D01*
X105830310Y-129734714D02*
X110730310Y-129734714D01*
X99630920Y-129924714D02*
X99681747Y-129924714D01*
X105830310Y-129924714D02*
X110730310Y-129924714D01*
X99479229Y-130114714D02*
X99639416Y-130114714D01*
X105830310Y-130114714D02*
X110730310Y-130114714D01*
X95135340Y-130304714D02*
X95375340Y-130304714D01*
X99350426Y-130304714D02*
X99601622Y-130304714D01*
X105830310Y-130304714D02*
X110730310Y-130304714D01*
X95155340Y-130494714D02*
X95355340Y-130494714D01*
X99180986Y-130494714D02*
X99600000Y-130494714D01*
X105830310Y-130494714D02*
X110730310Y-130494714D01*
X95155340Y-130684714D02*
X95355340Y-130684714D01*
X98937877Y-130684714D02*
X99600000Y-130684714D01*
X105830310Y-130684714D02*
X110730310Y-130684714D01*
X95155340Y-130874714D02*
X95355340Y-130874714D01*
X96616991Y-130874714D02*
X97095369Y-130874714D01*
X98504630Y-130874714D02*
X99637312Y-130874714D01*
X105830310Y-130874714D02*
X110730310Y-130874714D01*
X95155340Y-131064714D02*
X95355340Y-131064714D01*
X96494895Y-131064714D02*
X99677367Y-131064714D01*
X105830310Y-131064714D02*
X110730310Y-131064714D01*
X95155340Y-131254714D02*
X95355340Y-131254714D01*
X96315012Y-131254714D02*
X99756067Y-131254714D01*
X105830310Y-131254714D02*
X110730310Y-131254714D01*
X95155340Y-131444714D02*
X95355340Y-131444714D01*
X96009160Y-131444714D02*
X99846127Y-131444714D01*
X105830310Y-131444714D02*
X110730310Y-131444714D01*
X94600000Y-131634714D02*
X99973081Y-131634714D01*
X105830678Y-131634714D02*
X110730310Y-131634714D01*
X94600000Y-131824714D02*
X100028281Y-131824714D01*
X105811966Y-131824714D02*
X110730310Y-131824714D01*
X94600000Y-132014714D02*
X99899965Y-132014714D01*
X105758309Y-132014714D02*
X110730310Y-132014714D01*
X94600000Y-132204714D02*
X99789442Y-132204714D01*
X105678326Y-132204714D02*
X110730310Y-132204714D01*
X94600000Y-132394714D02*
X99710742Y-132394714D01*
X105564331Y-132394714D02*
X110629041Y-132394714D01*
X94600000Y-132584714D02*
X99653339Y-132584714D01*
X105400330Y-132584714D02*
X110439041Y-132584714D01*
X94600000Y-132774714D02*
X99615546Y-132774714D01*
X105205184Y-132774714D02*
X110249041Y-132774714D01*
X94600000Y-132964714D02*
X99600000Y-132964714D01*
X105015184Y-132964714D02*
X110059041Y-132964714D01*
X94600000Y-133154714D02*
X99600000Y-133154714D01*
X104825184Y-133154714D02*
X109869041Y-133154714D01*
X94600000Y-133344714D02*
X99623388Y-133344714D01*
X104635184Y-133344714D02*
X109679041Y-133344714D01*
X94600000Y-133534714D02*
X99661181Y-133534714D01*
X104445184Y-133534714D02*
X109489041Y-133534714D01*
X94600000Y-133724714D02*
X99727072Y-133724714D01*
X104255184Y-133724714D02*
X109299041Y-133724714D01*
X94600000Y-133914714D02*
X99805773Y-133914714D01*
X104065184Y-133914714D02*
X109109041Y-133914714D01*
X94600000Y-134104714D02*
X99926309Y-134104714D01*
X103860734Y-134104714D02*
X108919041Y-134104714D01*
X94600000Y-134294714D02*
X100067709Y-134294714D01*
X103547658Y-134294714D02*
X108729041Y-134294714D01*
X94600000Y-134484714D02*
X100257709Y-134484714D01*
X102742291Y-134484714D02*
X108539041Y-134484714D01*
X94600000Y-134674714D02*
X100526613Y-134674714D01*
X102473386Y-134674714D02*
X108349041Y-134674714D01*
X94600000Y-134864714D02*
X100940310Y-134864714D01*
X102059689Y-134864714D02*
X108159041Y-134864714D01*
X94691580Y-135054714D02*
X107969041Y-135054714D01*
X94881580Y-135244714D02*
X107779041Y-135244714D01*
X95071580Y-135434714D02*
X107589041Y-135434714D01*
X95261580Y-135624714D02*
X107399041Y-135624714D01*
X95451580Y-135814714D02*
X107209041Y-135814714D01*
X95641580Y-136004714D02*
X107019041Y-136004714D01*
X95831580Y-136194714D02*
X106829041Y-136194714D01*
X96021580Y-136384714D02*
X106639041Y-136384714D01*
X96211580Y-136574714D02*
X106449041Y-136574714D01*
X110730311Y-132293443D02*
X110730311Y-132293443D01*
X110540311Y-124414714D02*
X110540311Y-132483443D01*
X110350311Y-124224714D02*
X110350311Y-132673443D01*
X110160311Y-124022920D02*
X110160311Y-132863443D01*
X109970311Y-123644109D02*
X109970311Y-133053443D01*
X109780311Y-117654714D02*
X109780311Y-133243443D01*
X109590311Y-117464714D02*
X109590311Y-133433443D01*
X109400311Y-117274714D02*
X109400311Y-133623443D01*
X109210311Y-102684715D02*
X109210311Y-107965411D01*
X109210311Y-117084714D02*
X109210311Y-133813443D01*
X109020311Y-102494715D02*
X109020311Y-108003556D01*
X109020311Y-116894714D02*
X109020311Y-134003443D01*
X108830311Y-102304715D02*
X108830311Y-108082257D01*
X108830311Y-116704714D02*
X108830311Y-134193443D01*
X108640311Y-102114715D02*
X108640311Y-108193173D01*
X108640311Y-116514714D02*
X108640311Y-134383443D01*
X108450311Y-101924715D02*
X108450311Y-108349179D01*
X108450311Y-116331957D02*
X108450311Y-123560141D01*
X108450311Y-124839860D02*
X108450311Y-134573443D01*
X108260311Y-104743002D02*
X108260311Y-108580172D01*
X108260311Y-116067827D02*
X108260311Y-123280412D01*
X108260311Y-125119588D02*
X108260311Y-134763443D01*
X108070311Y-105059475D02*
X108070311Y-109010091D01*
X108070311Y-109688066D02*
X108070311Y-123097758D01*
X108070311Y-125302243D02*
X108070311Y-134953443D01*
X107880311Y-105254713D02*
X107880311Y-122970804D01*
X107880311Y-125429197D02*
X107880311Y-135143443D01*
X107690311Y-105444713D02*
X107690311Y-122887745D01*
X107690311Y-125512256D02*
X107690311Y-135333443D01*
X107500311Y-125567693D02*
X107500311Y-135523443D01*
X107310311Y-125600000D02*
X107310311Y-135713443D01*
X107120311Y-125600000D02*
X107120311Y-135903443D01*
X106930311Y-125573783D02*
X106930311Y-136093443D01*
X106740311Y-125524939D02*
X106740311Y-136283443D01*
X106550311Y-125446239D02*
X106550311Y-136473443D01*
X106360311Y-125322703D02*
X106360311Y-136649079D01*
X106170311Y-125150210D02*
X106170311Y-136649079D01*
X105980311Y-124894540D02*
X105980311Y-136649079D01*
X105790311Y-131909220D02*
X105790311Y-136649079D01*
X105600311Y-132350671D02*
X105600311Y-136649079D01*
X105410311Y-132576524D02*
X105410311Y-136649079D01*
X105220311Y-132759587D02*
X105220311Y-136649079D01*
X105030311Y-132949587D02*
X105030311Y-136649079D01*
X104840311Y-133139587D02*
X104840311Y-136649079D01*
X104650311Y-133329587D02*
X104650311Y-136649079D01*
X104460311Y-133519587D02*
X104460311Y-136649079D01*
X104270311Y-133709587D02*
X104270311Y-136649079D01*
X104080311Y-133899587D02*
X104080311Y-136649079D01*
X103890311Y-134080442D02*
X103890311Y-136649079D01*
X103700311Y-134213120D02*
X103700311Y-136649079D01*
X103510311Y-134308196D02*
X103510311Y-136649079D01*
X103320311Y-134365831D02*
X103320311Y-136649079D01*
X103130311Y-134393940D02*
X103130311Y-136649079D01*
X102940311Y-134400894D02*
X102940311Y-136649079D01*
X102750311Y-134476694D02*
X102750311Y-136649079D01*
X102560311Y-134616633D02*
X102560311Y-136649079D01*
X102370311Y-134736051D02*
X102370311Y-136649079D01*
X102180311Y-134814751D02*
X102180311Y-136649079D01*
X101990311Y-134879695D02*
X101990311Y-136649079D01*
X101800311Y-134917488D02*
X101800311Y-136649079D01*
X101610311Y-134940000D02*
X101610311Y-136649079D01*
X101420311Y-134940000D02*
X101420311Y-136649079D01*
X101230311Y-134923578D02*
X101230311Y-136649079D01*
X101040311Y-134885785D02*
X101040311Y-136649079D01*
X100850311Y-134827434D02*
X100850311Y-136649079D01*
X100660311Y-134748734D02*
X100660311Y-136649079D01*
X100470311Y-134637093D02*
X100470311Y-136649079D01*
X100280311Y-134507316D02*
X100280311Y-136649079D01*
X100090311Y-134317316D02*
X100090311Y-136649079D01*
X99900311Y-131525805D02*
X99900311Y-132014194D01*
X99900311Y-134065805D02*
X99900311Y-136649079D01*
X99710311Y-129845323D02*
X99710311Y-129855752D01*
X99710311Y-131144247D02*
X99710311Y-132395752D01*
X99710311Y-133684247D02*
X99710311Y-136649079D01*
X99520311Y-130037857D02*
X99520311Y-136649079D01*
X99330311Y-130329226D02*
X99330311Y-136649079D01*
X99140311Y-130528096D02*
X99140311Y-136649079D01*
X98950311Y-130678068D02*
X98950311Y-136649079D01*
X98760311Y-130779626D02*
X98760311Y-136649079D01*
X98570311Y-130854791D02*
X98570311Y-136649079D01*
X98380311Y-130912426D02*
X98380311Y-136649079D01*
X98190311Y-130932544D02*
X98190311Y-136649079D01*
X98000311Y-130938380D02*
X98000311Y-136649079D01*
X97810311Y-130938380D02*
X97810311Y-136649079D01*
X97620311Y-130938380D02*
X97620311Y-136649079D01*
X97430311Y-130934574D02*
X97430311Y-136649079D01*
X97240311Y-130915860D02*
X97240311Y-136649079D01*
X97050311Y-130861045D02*
X97050311Y-136649079D01*
X96860311Y-130790648D02*
X96860311Y-136649079D01*
X96670311Y-130752385D02*
X96670311Y-136649079D01*
X96480311Y-131085698D02*
X96480311Y-136649079D01*
X96290311Y-131278526D02*
X96290311Y-136649079D01*
X96100311Y-131402868D02*
X96100311Y-136463446D01*
X95910311Y-131483550D02*
X95910311Y-136273446D01*
X95720311Y-131531156D02*
X95720311Y-136083446D01*
X95530311Y-131551840D02*
X95530311Y-135893446D01*
X95340311Y-130181840D02*
X95340311Y-135703446D01*
X95150311Y-130201840D02*
X95150311Y-130401840D01*
X95150311Y-131551840D02*
X95150311Y-135513446D01*
X94960311Y-131551840D02*
X94960311Y-135323446D01*
X94770311Y-131527547D02*
X94770311Y-135133446D01*
X95120000Y-101680000D02*
X95320000Y-101680000D01*
X95100000Y-101870000D02*
X95340000Y-101870000D01*
X95120000Y-102060000D02*
X95320000Y-102060000D01*
X95120000Y-102250000D02*
X95320000Y-102250000D01*
X95120000Y-102440000D02*
X95320000Y-102440000D01*
X95120000Y-102630000D02*
X95320000Y-102630000D01*
X95120000Y-102820000D02*
X95320000Y-102820000D01*
X94530310Y-103010000D02*
X94647663Y-103010000D01*
X95120000Y-103010000D02*
X95320000Y-103010000D01*
X94530310Y-103200000D02*
X95530003Y-103200000D01*
X94530310Y-103390000D02*
X95530311Y-103390000D01*
X94530310Y-103580000D02*
X95530311Y-103580000D01*
X94530310Y-103770000D02*
X95530311Y-103770000D01*
X94530310Y-103960000D02*
X95530311Y-103960000D01*
X94530310Y-104150000D02*
X95530311Y-104150000D01*
X94530310Y-104340000D02*
X95530311Y-104340000D01*
X94530310Y-104530000D02*
X95530311Y-104530000D01*
X94530310Y-104720000D02*
X95530311Y-104720000D01*
X94530310Y-104910000D02*
X95530311Y-104910000D01*
X94530310Y-105100000D02*
X95530311Y-105100000D01*
X94530310Y-105290000D02*
X95530311Y-105290000D01*
X94530310Y-105480000D02*
X95530311Y-105480000D01*
X94530310Y-105670000D02*
X95530311Y-105670000D01*
X94530310Y-105860000D02*
X95530311Y-105860000D01*
X94530310Y-106050000D02*
X95530311Y-106050000D01*
X94530310Y-106240000D02*
X95530311Y-106240000D01*
X94530310Y-106430000D02*
X95530311Y-106430000D01*
X94530310Y-106620000D02*
X95530311Y-106620000D01*
X94530310Y-106810000D02*
X95530311Y-106810000D01*
X94530310Y-107000000D02*
X95530003Y-107000000D01*
X94530310Y-107190000D02*
X95553895Y-107190000D01*
X94530310Y-107380000D02*
X95613366Y-107380000D01*
X94530310Y-107570000D02*
X95716878Y-107570000D01*
X94530310Y-107760000D02*
X95884479Y-107760000D01*
X94530310Y-107950000D02*
X96075597Y-107950000D01*
X94530310Y-108140000D02*
X96265597Y-108140000D01*
X94530310Y-108330000D02*
X96455597Y-108330000D01*
X94530310Y-108520000D02*
X96645597Y-108520000D01*
X94530310Y-108710000D02*
X96694661Y-108710000D01*
X95150000Y-108900000D02*
X95350000Y-108900000D01*
X96142463Y-108900000D02*
X96694661Y-108900000D01*
X95150000Y-109090000D02*
X95350000Y-109090000D01*
X96384711Y-109090000D02*
X96694661Y-109090000D01*
X95150000Y-109280000D02*
X95350000Y-109280000D01*
X96539832Y-109280000D02*
X96694661Y-109280000D01*
X95150000Y-109470000D02*
X95350000Y-109470000D01*
X96643180Y-109470000D02*
X96694661Y-109470000D01*
X95150000Y-109660000D02*
X95350000Y-109660000D01*
X95150000Y-109850000D02*
X95350000Y-109850000D01*
X95130000Y-110040000D02*
X95370000Y-110040000D01*
X96694661Y-108569064D02*
X96694661Y-108569064D01*
X96504661Y-108379064D02*
X96504661Y-109229399D01*
X96314661Y-108189064D02*
X96314661Y-109022475D01*
X96124661Y-107999064D02*
X96124661Y-108888572D01*
X95934661Y-107809064D02*
X95934661Y-108800495D01*
X95744661Y-107603852D02*
X95744661Y-108746566D01*
X95554661Y-107192521D02*
X95554661Y-108720540D01*
X95364661Y-103050000D02*
X95364661Y-108720540D01*
X95364661Y-109870540D02*
X95364661Y-110070540D01*
X95174661Y-101680000D02*
X95174661Y-110090540D01*
X94984661Y-103050000D02*
X94984661Y-108720540D01*
X94794661Y-103036445D02*
X94794661Y-108739491D01*
X94604661Y-102997280D02*
X94604661Y-108785045D01*
D21*
X95320000Y-101700000D02*
X95340000Y-101700000D01*
X95340000Y-101900000D01*
X95320000Y-101900000D01*
X95320000Y-103050000D01*
X95534747Y-103050000D01*
X95524988Y-103149079D01*
X95530311Y-103203122D01*
X95530310Y-106895045D01*
X95524988Y-106949079D01*
X95530310Y-107003113D01*
X95530310Y-107003114D01*
X95546226Y-107164716D01*
X95609126Y-107372066D01*
X95711268Y-107563163D01*
X95848729Y-107730660D01*
X95890709Y-107765112D01*
X96694661Y-108569064D01*
X96694660Y-109569960D01*
X96688244Y-109573389D01*
X96594895Y-109359223D01*
X96454595Y-109157366D01*
X96277610Y-108986759D01*
X96070742Y-108853958D01*
X95841941Y-108764067D01*
X95600000Y-108720540D01*
X95350000Y-108720540D01*
X95350000Y-109870540D01*
X95370000Y-109870540D01*
X95370000Y-110070540D01*
X95350000Y-110070540D01*
X95350000Y-110090540D01*
X95150000Y-110090540D01*
X95150000Y-110070540D01*
X95130000Y-110070540D01*
X95130000Y-109870540D01*
X95150000Y-109870540D01*
X95150000Y-108720540D01*
X94900000Y-108720540D01*
X94658059Y-108764067D01*
X94530310Y-108814257D01*
X94530310Y-102968070D01*
X94628059Y-103006473D01*
X94870000Y-103050000D01*
X95120000Y-103050000D01*
X95120000Y-101900000D01*
X95100000Y-101900000D01*
X95100000Y-101700000D01*
X95120000Y-101700000D01*
X95120000Y-101680000D01*
X95320000Y-101680000D01*
X95320000Y-101700000D01*
D19*
G04 #@! TO.N,G85V*
X130917316Y-94649079D02*
X138662074Y-94649079D01*
X130727315Y-94839079D02*
X132465648Y-94839079D01*
X133134353Y-94839079D02*
X134265648Y-94839079D01*
X134934353Y-94839079D02*
X138852073Y-94839079D01*
X130537315Y-95029079D02*
X132032474Y-95029079D01*
X133567527Y-95029079D02*
X133832474Y-95029079D01*
X135367527Y-95029079D02*
X139042073Y-95029079D01*
X130347315Y-95219079D02*
X131801022Y-95219079D01*
X135598978Y-95219079D02*
X139232073Y-95219079D01*
X130157315Y-95409079D02*
X131644711Y-95409079D01*
X135755290Y-95409079D02*
X139422073Y-95409079D01*
X129967315Y-95599079D02*
X131533561Y-95599079D01*
X135866440Y-95599079D02*
X139612073Y-95599079D01*
X129777315Y-95789079D02*
X131454860Y-95789079D01*
X135945141Y-95789079D02*
X139792825Y-95789079D01*
X129587315Y-95979079D02*
X131416517Y-95979079D01*
X135983484Y-95979079D02*
X140016015Y-95979079D01*
X129397315Y-96169079D02*
X131371833Y-96169079D01*
X136000000Y-96169079D02*
X140326887Y-96169079D01*
X151513725Y-96169079D02*
X151525001Y-96169079D01*
X129207315Y-96359079D02*
X131181833Y-96359079D01*
X135995784Y-96359079D02*
X141057312Y-96359079D01*
X151406407Y-96359079D02*
X151525001Y-96359079D01*
X129017315Y-96549079D02*
X130991833Y-96549079D01*
X135957991Y-96549079D02*
X142752471Y-96549079D01*
X151250478Y-96549079D02*
X151525001Y-96549079D01*
X128827315Y-96739079D02*
X130801833Y-96739079D01*
X135892055Y-96739079D02*
X142714678Y-96739079D01*
X151094549Y-96739079D02*
X151525001Y-96739079D01*
X128637315Y-96929079D02*
X130611833Y-96929079D01*
X135796610Y-96929079D02*
X142700000Y-96929079D01*
X150879524Y-96929079D02*
X151525001Y-96929079D01*
X128447315Y-97119079D02*
X130421833Y-97119079D01*
X135660820Y-97119079D02*
X142700000Y-97119079D01*
X150648009Y-97119079D02*
X151525001Y-97119079D01*
X128257315Y-97309079D02*
X130231833Y-97309079D01*
X135460079Y-97309079D02*
X142724256Y-97309079D01*
X146475743Y-97309079D02*
X146691897Y-97309079D01*
X150308102Y-97309079D02*
X151525001Y-97309079D01*
X128067315Y-97499079D02*
X130041833Y-97499079D01*
X135122122Y-97499079D02*
X142762049Y-97499079D01*
X146437950Y-97499079D02*
X147171204Y-97499079D01*
X149828795Y-97499079D02*
X151525001Y-97499079D01*
X127877315Y-97689079D02*
X129851833Y-97689079D01*
X134845944Y-97689079D02*
X142828881Y-97689079D01*
X146371118Y-97689079D02*
X151525001Y-97689079D01*
X127687315Y-97879079D02*
X129661833Y-97879079D01*
X134655944Y-97879079D02*
X142907581Y-97879079D01*
X146292418Y-97879079D02*
X151525001Y-97879079D01*
X127497315Y-98069079D02*
X129471833Y-98069079D01*
X134465944Y-98069079D02*
X143029225Y-98069079D01*
X146170774Y-98069079D02*
X151525001Y-98069079D01*
X127307315Y-98259079D02*
X129281833Y-98259079D01*
X134275944Y-98259079D02*
X143172074Y-98259079D01*
X146027926Y-98259079D02*
X151525001Y-98259079D01*
X127117315Y-98449079D02*
X129091833Y-98449079D01*
X134085944Y-98449079D02*
X143362074Y-98449079D01*
X145837926Y-98449079D02*
X151525001Y-98449079D01*
X126927315Y-98639079D02*
X128901833Y-98639079D01*
X133895944Y-98639079D02*
X143633146Y-98639079D01*
X145566853Y-98639079D02*
X151525001Y-98639079D01*
X126737315Y-98829079D02*
X128711833Y-98829079D01*
X133705944Y-98829079D02*
X144056323Y-98829079D01*
X145143676Y-98829079D02*
X151525001Y-98829079D01*
X126547315Y-99019079D02*
X128521833Y-99019079D01*
X133515944Y-99019079D02*
X151525001Y-99019079D01*
X126357315Y-99209079D02*
X128331833Y-99209079D01*
X133325944Y-99209079D02*
X151525001Y-99209079D01*
X126167315Y-99399079D02*
X128141833Y-99399079D01*
X133135944Y-99399079D02*
X135488945Y-99399079D01*
X136512439Y-99399079D02*
X140492262Y-99399079D01*
X141507739Y-99399079D02*
X151525001Y-99399079D01*
X125977315Y-99589079D02*
X127951833Y-99589079D01*
X132945944Y-99589079D02*
X134886821Y-99589079D01*
X137100365Y-99589079D02*
X139895696Y-99589079D01*
X142104305Y-99589079D02*
X151525001Y-99589079D01*
X125787315Y-99779079D02*
X127761833Y-99779079D01*
X132755944Y-99779079D02*
X134642188Y-99779079D01*
X137357813Y-99779079D02*
X139553970Y-99779079D01*
X142446031Y-99779079D02*
X151525001Y-99779079D01*
X125597315Y-99969079D02*
X127571833Y-99969079D01*
X132565944Y-99969079D02*
X134552473Y-99969079D01*
X137447528Y-99969079D02*
X139283256Y-99969079D01*
X142716744Y-99969079D02*
X151525001Y-99969079D01*
X125407315Y-100159079D02*
X127381833Y-100159079D01*
X132375944Y-100159079D02*
X134583343Y-100159079D01*
X137416657Y-100159079D02*
X139093256Y-100159079D01*
X142906744Y-100159079D02*
X151525001Y-100159079D01*
X125217315Y-100349079D02*
X127191833Y-100349079D01*
X132185944Y-100349079D02*
X134773343Y-100349079D01*
X137226657Y-100349079D02*
X138915983Y-100349079D01*
X143084018Y-100349079D02*
X151525001Y-100349079D01*
X125027315Y-100539079D02*
X127001833Y-100539079D01*
X131995944Y-100539079D02*
X133997445Y-100539079D01*
X134114815Y-100539079D02*
X134963343Y-100539079D01*
X137036657Y-100539079D02*
X137885185Y-100539079D01*
X138002556Y-100539079D02*
X138789029Y-100539079D01*
X143210972Y-100539079D02*
X151525001Y-100539079D01*
X124837315Y-100729079D02*
X126811833Y-100729079D01*
X131805944Y-100729079D02*
X133664682Y-100729079D01*
X134304815Y-100729079D02*
X135153343Y-100729079D01*
X136846657Y-100729079D02*
X137695185Y-100729079D01*
X138339113Y-100729079D02*
X138662075Y-100729079D01*
X143337926Y-100729079D02*
X151525001Y-100729079D01*
X124647315Y-100919079D02*
X126621833Y-100919079D01*
X131615944Y-100919079D02*
X133580461Y-100919079D01*
X134494815Y-100919079D02*
X135343343Y-100919079D01*
X136656657Y-100919079D02*
X137505185Y-100919079D01*
X138423365Y-100919079D02*
X138579394Y-100919079D01*
X143420607Y-100919079D02*
X151525001Y-100919079D01*
X124457315Y-101109079D02*
X126431833Y-101109079D01*
X131425944Y-101109079D02*
X133496240Y-101109079D01*
X134684815Y-101109079D02*
X135533343Y-101109079D01*
X136466657Y-101109079D02*
X137315185Y-101109079D01*
X138496657Y-101109079D02*
X138500693Y-101109079D01*
X143499308Y-101109079D02*
X151525001Y-101109079D01*
X124267315Y-101299079D02*
X126241833Y-101299079D01*
X131235944Y-101299079D02*
X133441404Y-101299079D01*
X134874815Y-101299079D02*
X135723343Y-101299079D01*
X136276657Y-101299079D02*
X137125185Y-101299079D01*
X143562495Y-101299079D02*
X151525001Y-101299079D01*
X124077315Y-101489079D02*
X126051833Y-101489079D01*
X131045944Y-101489079D02*
X133398739Y-101489079D01*
X135064815Y-101489079D02*
X135913343Y-101489079D01*
X136086657Y-101489079D02*
X136935185Y-101489079D01*
X143600289Y-101489079D02*
X151525001Y-101489079D01*
X123887315Y-101679079D02*
X125861833Y-101679079D01*
X130855944Y-101679079D02*
X133357080Y-101679079D01*
X135254815Y-101679079D02*
X136745185Y-101679079D01*
X143638082Y-101679079D02*
X151525001Y-101679079D01*
X123697315Y-101869079D02*
X125671833Y-101869079D01*
X130665944Y-101869079D02*
X133352416Y-101869079D01*
X135444815Y-101869079D02*
X136555185Y-101869079D01*
X143650000Y-101869079D02*
X151525001Y-101869079D01*
X123507315Y-102059079D02*
X125481833Y-102059079D01*
X130475944Y-102059079D02*
X133347752Y-102059079D01*
X135516657Y-102059079D02*
X136483343Y-102059079D01*
X143650000Y-102059079D02*
X147292898Y-102059079D01*
X147918456Y-102059079D02*
X149081545Y-102059079D01*
X149707103Y-102059079D02*
X151525001Y-102059079D01*
X123317315Y-102249079D02*
X125291833Y-102249079D01*
X130285944Y-102249079D02*
X133353621Y-102249079D01*
X135326657Y-102249079D02*
X136673343Y-102249079D01*
X143650000Y-102249079D02*
X146761492Y-102249079D01*
X148200000Y-102249079D02*
X148800000Y-102249079D01*
X150238509Y-102249079D02*
X151525001Y-102249079D01*
X123127315Y-102439079D02*
X125101833Y-102439079D01*
X130095944Y-102439079D02*
X133386589Y-102439079D01*
X135136657Y-102439079D02*
X135985185Y-102439079D01*
X136014815Y-102439079D02*
X136863343Y-102439079D01*
X143614578Y-102439079D02*
X146428197Y-102439079D01*
X148200000Y-102439079D02*
X148800000Y-102439079D01*
X150571804Y-102439079D02*
X151525001Y-102439079D01*
X122937315Y-102629079D02*
X124911833Y-102629079D01*
X129905944Y-102629079D02*
X133419558Y-102629079D01*
X134946657Y-102629079D02*
X135795185Y-102629079D01*
X136204815Y-102629079D02*
X137053343Y-102629079D01*
X143576784Y-102629079D02*
X146148951Y-102629079D01*
X148200000Y-102629079D02*
X148800000Y-102629079D01*
X150851050Y-102629079D02*
X151525001Y-102629079D01*
X122747315Y-102819079D02*
X124721833Y-102819079D01*
X129715944Y-102819079D02*
X133475630Y-102819079D01*
X134756657Y-102819079D02*
X135605185Y-102819079D01*
X136394815Y-102819079D02*
X137243343Y-102819079D01*
X143529065Y-102819079D02*
X145955225Y-102819079D01*
X148200000Y-102819079D02*
X148800000Y-102819079D01*
X151044776Y-102819079D02*
X151525001Y-102819079D01*
X122557315Y-103009079D02*
X124526502Y-103009079D01*
X129525944Y-103009079D02*
X133548922Y-103009079D01*
X134566657Y-103009079D02*
X135415185Y-103009079D01*
X136584815Y-103009079D02*
X137433343Y-103009079D01*
X138451384Y-103009079D02*
X138549634Y-103009079D01*
X143450364Y-103009079D02*
X145762015Y-103009079D01*
X148200000Y-103009079D02*
X148800000Y-103009079D01*
X151237986Y-103009079D02*
X151525001Y-103009079D01*
X122367315Y-103199079D02*
X124364084Y-103199079D01*
X129335944Y-103199079D02*
X133622488Y-103199079D01*
X134376657Y-103199079D02*
X135225185Y-103199079D01*
X136774815Y-103199079D02*
X137623343Y-103199079D01*
X138367163Y-103199079D02*
X138628335Y-103199079D01*
X143371664Y-103199079D02*
X145632376Y-103199079D01*
X148200000Y-103199079D02*
X148800000Y-103199079D01*
X151367625Y-103199079D02*
X151525001Y-103199079D01*
X122177315Y-103389079D02*
X124255583Y-103389079D01*
X129145944Y-103389079D02*
X133845295Y-103389079D01*
X134186657Y-103389079D02*
X135035185Y-103389079D01*
X136964815Y-103389079D02*
X137813343Y-103389079D01*
X138154704Y-103389079D02*
X138741025Y-103389079D01*
X143258974Y-103389079D02*
X145502736Y-103389079D01*
X148200000Y-103389079D02*
X148800000Y-103389079D01*
X151497265Y-103389079D02*
X151525001Y-103389079D01*
X121987315Y-103579079D02*
X124184053Y-103579079D01*
X128955944Y-103579079D02*
X134845185Y-103579079D01*
X137154815Y-103579079D02*
X138867979Y-103579079D01*
X143132020Y-103579079D02*
X145398545Y-103579079D01*
X148200000Y-103579079D02*
X148800000Y-103579079D01*
X121797315Y-103769079D02*
X124141750Y-103769079D01*
X128765944Y-103769079D02*
X134655185Y-103769079D01*
X137344815Y-103769079D02*
X139021414Y-103769079D01*
X142978586Y-103769079D02*
X145317674Y-103769079D01*
X148200000Y-103769079D02*
X148800000Y-103769079D01*
X121607315Y-103959079D02*
X124125004Y-103959079D01*
X128575944Y-103959079D02*
X134518550Y-103959079D01*
X137481449Y-103959079D02*
X139211414Y-103959079D01*
X142788586Y-103959079D02*
X145236803Y-103959079D01*
X148200000Y-103959079D02*
X148800000Y-103959079D01*
X121417315Y-104149079D02*
X124130311Y-104149079D01*
X128385944Y-104149079D02*
X134608264Y-104149079D01*
X137391735Y-104149079D02*
X139446450Y-104149079D01*
X142553548Y-104149079D02*
X145203342Y-104149079D01*
X148200000Y-104149079D02*
X148800000Y-104149079D01*
X121300000Y-104339079D02*
X124130311Y-104339079D01*
X128195944Y-104339079D02*
X134737562Y-104339079D01*
X137270982Y-104339079D02*
X139730805Y-104339079D01*
X142269194Y-104339079D02*
X145264423Y-104339079D01*
X148200000Y-104339079D02*
X148800000Y-104339079D01*
X121300000Y-104529079D02*
X124130311Y-104529079D01*
X128005944Y-104529079D02*
X135167631Y-104529079D01*
X136806869Y-104529079D02*
X140180953Y-104529079D01*
X141819046Y-104529079D02*
X145325505Y-104529079D01*
X148200000Y-104529079D02*
X148800000Y-104529079D01*
X121300000Y-104719079D02*
X124130311Y-104719079D01*
X127815944Y-104719079D02*
X148820000Y-104719079D01*
X121300000Y-104909079D02*
X124130311Y-104909079D01*
X127625944Y-104909079D02*
X148820000Y-104909079D01*
X121300000Y-105099079D02*
X124130311Y-105099079D01*
X127600000Y-105099079D02*
X148820000Y-105099079D01*
X121300000Y-105289079D02*
X124130311Y-105289079D01*
X127600000Y-105289079D02*
X145306809Y-105289079D01*
X148200000Y-105289079D02*
X148800000Y-105289079D01*
X121300000Y-105479079D02*
X124130311Y-105479079D01*
X127600000Y-105479079D02*
X145245728Y-105479079D01*
X148200000Y-105479079D02*
X148800000Y-105479079D01*
X121300000Y-105669079D02*
X124130311Y-105669079D01*
X127600000Y-105669079D02*
X145204176Y-105669079D01*
X148200000Y-105669079D02*
X148800000Y-105669079D01*
X121300000Y-105859079D02*
X124130311Y-105859079D01*
X127600000Y-105859079D02*
X145261557Y-105859079D01*
X148200000Y-105859079D02*
X148800000Y-105859079D01*
X121300000Y-106049079D02*
X124130311Y-106049079D01*
X127600000Y-106049079D02*
X145342427Y-106049079D01*
X148200000Y-106049079D02*
X148800000Y-106049079D01*
X121300000Y-106239079D02*
X124130311Y-106239079D01*
X127600000Y-106239079D02*
X145423298Y-106239079D01*
X148200000Y-106239079D02*
X148800000Y-106239079D01*
X121300000Y-106429079D02*
X124130311Y-106429079D01*
X127600000Y-106429079D02*
X145542417Y-106429079D01*
X148200000Y-106429079D02*
X148800000Y-106429079D01*
X121300000Y-106619079D02*
X123942444Y-106619079D01*
X127600000Y-106619079D02*
X145672057Y-106619079D01*
X148200000Y-106619079D02*
X148800000Y-106619079D01*
X121357714Y-106809079D02*
X123752444Y-106809079D01*
X127600000Y-106809079D02*
X145820797Y-106809079D01*
X148200000Y-106809079D02*
X148800000Y-106809079D01*
X121407061Y-106999079D02*
X123562444Y-106999079D01*
X127600000Y-106999079D02*
X146014523Y-106999079D01*
X148200000Y-106999079D02*
X148800000Y-106999079D01*
X121425774Y-107189079D02*
X123372444Y-107189079D01*
X127600000Y-107189079D02*
X146226673Y-107189079D01*
X148200000Y-107189079D02*
X148800000Y-107189079D01*
X121425000Y-107379079D02*
X123182444Y-107379079D01*
X127600000Y-107379079D02*
X146517092Y-107379079D01*
X148200000Y-107379079D02*
X148800000Y-107379079D01*
X121425000Y-107569079D02*
X122992444Y-107569079D01*
X127600000Y-107569079D02*
X146351771Y-107569079D01*
X148200000Y-107569079D02*
X148800000Y-107569079D01*
X121425000Y-107759079D02*
X122802444Y-107759079D01*
X127688699Y-107759079D02*
X146097971Y-107759079D01*
X148200000Y-107759079D02*
X148800000Y-107759079D01*
X121425000Y-107949079D02*
X122612444Y-107949079D01*
X127787151Y-107949079D02*
X145904245Y-107949079D01*
X148200000Y-107949079D02*
X148800000Y-107949079D01*
X121425000Y-108139079D02*
X122422444Y-108139079D01*
X127855637Y-108139079D02*
X145727899Y-108139079D01*
X148200000Y-108139079D02*
X148800000Y-108139079D01*
X121425000Y-108329079D02*
X122232444Y-108329079D01*
X127893430Y-108329079D02*
X145598260Y-108329079D01*
X148200000Y-108329079D02*
X148800000Y-108329079D01*
X121425000Y-108519079D02*
X122042444Y-108519079D01*
X127900000Y-108519079D02*
X145468621Y-108519079D01*
X148200000Y-108519079D02*
X148800000Y-108519079D01*
X121425000Y-108709079D02*
X121852444Y-108709079D01*
X127885839Y-108709079D02*
X145377263Y-108709079D01*
X148200000Y-108709079D02*
X148800000Y-108709079D01*
X121425000Y-108899079D02*
X121662444Y-108899079D01*
X127848046Y-108899079D02*
X145296392Y-108899079D01*
X148200000Y-108899079D02*
X148800000Y-108899079D01*
X121425000Y-109089079D02*
X121472444Y-109089079D01*
X125149398Y-109089079D02*
X125228654Y-109089079D01*
X127771344Y-109089079D02*
X145216340Y-109089079D01*
X148200000Y-109089079D02*
X148800000Y-109089079D01*
X124959398Y-109279079D02*
X125336798Y-109279079D01*
X127663201Y-109279079D02*
X145219416Y-109279079D01*
X148200000Y-109279079D02*
X148800000Y-109279079D01*
X124769398Y-109469079D02*
X125489180Y-109469079D01*
X127510820Y-109469079D02*
X143735794Y-109469079D01*
X145264207Y-109469079D02*
X145280498Y-109469079D01*
X148200000Y-109469079D02*
X148800000Y-109469079D01*
X124579398Y-109659079D02*
X125714750Y-109659079D01*
X127285249Y-109659079D02*
X143399831Y-109659079D01*
X148200000Y-109659079D02*
X148800000Y-109659079D01*
X124389398Y-109849079D02*
X126106113Y-109849079D01*
X126893886Y-109849079D02*
X143172995Y-109849079D01*
X148180000Y-109849079D02*
X148820000Y-109849079D01*
X124199398Y-110039079D02*
X142996660Y-110039079D01*
X148180000Y-110039079D02*
X148820000Y-110039079D01*
X124009398Y-110229079D02*
X142869706Y-110229079D01*
X148180000Y-110229079D02*
X148820000Y-110229079D01*
X117985934Y-110419079D02*
X118039065Y-110419079D01*
X123819398Y-110419079D02*
X142770684Y-110419079D01*
X117480425Y-110609079D02*
X118544574Y-110609079D01*
X120255425Y-110609079D02*
X120614160Y-110609079D01*
X123629398Y-110609079D02*
X142691984Y-110609079D01*
X116343028Y-110799079D02*
X120651953Y-110799079D01*
X123439398Y-110799079D02*
X142644331Y-110799079D01*
X116343028Y-110989079D02*
X120728655Y-110989079D01*
X123271344Y-110989079D02*
X142606538Y-110989079D01*
X116343028Y-111179079D02*
X120836798Y-111179079D01*
X123163201Y-111179079D02*
X142600000Y-111179079D01*
X116343028Y-111369079D02*
X120989180Y-111369079D01*
X123010820Y-111369079D02*
X142600000Y-111369079D01*
X116343028Y-111559079D02*
X121214750Y-111559079D01*
X122785249Y-111559079D02*
X142632396Y-111559079D01*
X116343028Y-111749079D02*
X121606113Y-111749079D01*
X122393886Y-111749079D02*
X142670189Y-111749079D01*
X116343028Y-111939079D02*
X142745831Y-111939079D01*
X116343028Y-112129079D02*
X142829614Y-112129079D01*
X116343028Y-112319079D02*
X142956568Y-112319079D01*
X116343028Y-112509079D02*
X143052995Y-112509079D01*
X116343028Y-112699079D02*
X142916478Y-112699079D01*
X116343028Y-112889079D02*
X142799679Y-112889079D01*
X116343028Y-113079079D02*
X142720979Y-113079079D01*
X116343028Y-113269079D02*
X142658255Y-113269079D01*
X116343028Y-113459079D02*
X142620462Y-113459079D01*
X116343028Y-113649079D02*
X142600000Y-113649079D01*
X116343028Y-113839079D02*
X142600000Y-113839079D01*
X116343028Y-114029079D02*
X142618472Y-114029079D01*
X116343028Y-114219079D02*
X127582838Y-114219079D01*
X128477783Y-114219079D02*
X142656265Y-114219079D01*
X117559215Y-114409079D02*
X118404988Y-114409079D01*
X120320013Y-114409079D02*
X127216507Y-114409079D01*
X128844114Y-114409079D02*
X142716836Y-114409079D01*
X120769905Y-114599079D02*
X127000411Y-114599079D01*
X129060209Y-114599079D02*
X142795536Y-114599079D01*
X121001976Y-114789079D02*
X125213843Y-114789079D01*
X126446778Y-114789079D02*
X126854360Y-114789079D01*
X129208787Y-114789079D02*
X142909795Y-114789079D01*
X121157906Y-114979079D02*
X124920411Y-114979079D01*
X126740209Y-114979079D02*
X126751064Y-114979079D01*
X129398787Y-114979079D02*
X143042995Y-114979079D01*
X121264369Y-115169079D02*
X124734542Y-115169079D01*
X129588787Y-115169079D02*
X143232995Y-115169079D01*
X121343070Y-115359079D02*
X124607588Y-115359079D01*
X129778787Y-115359079D02*
X143489626Y-115359079D01*
X121384523Y-115549079D02*
X124522068Y-115549079D01*
X129968787Y-115549079D02*
X143880645Y-115549079D01*
X145119354Y-115549079D02*
X145136108Y-115549079D01*
X121403237Y-115739079D02*
X124464546Y-115739079D01*
X130158787Y-115739079D02*
X145181571Y-115739079D01*
X121400000Y-115929079D02*
X124430310Y-115929079D01*
X130357023Y-115929079D02*
X145239207Y-115929079D01*
X121400000Y-116119079D02*
X124430310Y-116119079D01*
X130512952Y-116119079D02*
X145296843Y-116119079D01*
X121400000Y-116309079D02*
X124454599Y-116309079D01*
X130615729Y-116309079D02*
X145390062Y-116309079D01*
X121400000Y-116499079D02*
X124501356Y-116499079D01*
X130682636Y-116499079D02*
X145491619Y-116499079D01*
X121400774Y-116689079D02*
X124580057Y-116689079D01*
X130720842Y-116689079D02*
X145601799Y-116689079D01*
X121400000Y-116879079D02*
X124701132Y-116879079D01*
X130733645Y-116879079D02*
X145757728Y-116879079D01*
X121400000Y-117069079D02*
X124730310Y-117069079D01*
X130730310Y-117069079D02*
X145913657Y-117069079D01*
X121400000Y-117259079D02*
X124730310Y-117259079D01*
X130730310Y-117259079D02*
X146132660Y-117259079D01*
X121400000Y-117449079D02*
X124730310Y-117449079D01*
X130730310Y-117449079D02*
X146364175Y-117449079D01*
X121400000Y-117639079D02*
X124730310Y-117639079D01*
X130730310Y-117639079D02*
X146489549Y-117639079D01*
X121400000Y-117829079D02*
X124730310Y-117829079D01*
X130730310Y-117829079D02*
X146220201Y-117829079D01*
X121380271Y-118019079D02*
X124731882Y-118019079D01*
X130738788Y-118019079D02*
X145988685Y-118019079D01*
X121325192Y-118209079D02*
X124759684Y-118209079D01*
X130928788Y-118209079D02*
X145816688Y-118209079D01*
X121300000Y-118399079D02*
X124823564Y-118399079D01*
X131118788Y-118399079D02*
X145660759Y-118399079D01*
X121300000Y-118589079D02*
X124932536Y-118589079D01*
X131308788Y-118589079D02*
X145530020Y-118589079D01*
X121300000Y-118779079D02*
X125104675Y-118779079D01*
X131498788Y-118779079D02*
X145428463Y-118779079D01*
X121300000Y-118969079D02*
X125294675Y-118969079D01*
X131688788Y-118969079D02*
X145326906Y-118969079D01*
X121300000Y-119159079D02*
X125484675Y-119159079D01*
X131878788Y-119159079D02*
X145261001Y-119159079D01*
X121300000Y-119349079D02*
X125674675Y-119349079D01*
X132068788Y-119349079D02*
X145203366Y-119349079D01*
X121300000Y-119539079D02*
X125864675Y-119539079D01*
X132258788Y-119539079D02*
X145145730Y-119539079D01*
X121416085Y-119729079D02*
X126054675Y-119729079D01*
X132439091Y-119729079D02*
X145124472Y-119729079D01*
X121606085Y-119919079D02*
X126244675Y-119919079D01*
X132567623Y-119919079D02*
X135373682Y-119919079D01*
X136601504Y-119919079D02*
X140391715Y-119919079D01*
X141608286Y-119919079D02*
X145105758Y-119919079D01*
X121796085Y-120109079D02*
X126434675Y-120109079D01*
X132655335Y-120109079D02*
X134834973Y-120109079D01*
X137145484Y-120109079D02*
X139847412Y-120109079D01*
X142152589Y-120109079D02*
X145087045Y-120109079D01*
X121986085Y-120299079D02*
X126624675Y-120299079D01*
X132711978Y-120299079D02*
X134632744Y-120299079D01*
X137367257Y-120299079D02*
X139524038Y-120299079D01*
X142475963Y-120299079D02*
X145103606Y-120299079D01*
X122176085Y-120489079D02*
X126814675Y-120489079D01*
X132730691Y-120489079D02*
X134543030Y-120489079D01*
X137456971Y-120489079D02*
X139263256Y-120489079D01*
X142736744Y-120489079D02*
X145122319Y-120489079D01*
X122366085Y-120679079D02*
X127004675Y-120679079D01*
X132730310Y-120679079D02*
X134603343Y-120679079D01*
X137396657Y-120679079D02*
X139073256Y-120679079D01*
X142926744Y-120679079D02*
X145141033Y-120679079D01*
X122556085Y-120869079D02*
X127194675Y-120869079D01*
X132730310Y-120869079D02*
X134793343Y-120869079D01*
X137206657Y-120869079D02*
X138902620Y-120869079D01*
X143097381Y-120869079D02*
X145196739Y-120869079D01*
X122746085Y-121059079D02*
X127384675Y-121059079D01*
X132730310Y-121059079D02*
X133955089Y-121059079D01*
X134134815Y-121059079D02*
X134983343Y-121059079D01*
X137016657Y-121059079D02*
X137865185Y-121059079D01*
X138044912Y-121059079D02*
X138775666Y-121059079D01*
X143224335Y-121059079D02*
X145254375Y-121059079D01*
X122936085Y-121249079D02*
X127574675Y-121249079D01*
X132730310Y-121249079D02*
X133655816Y-121249079D01*
X134324815Y-121249079D02*
X135173343Y-121249079D01*
X136826657Y-121249079D02*
X137675185Y-121249079D01*
X138349803Y-121249079D02*
X138649810Y-121249079D01*
X143350191Y-121249079D02*
X145315230Y-121249079D01*
X123126085Y-121439079D02*
X127764675Y-121439079D01*
X132730310Y-121439079D02*
X133571596Y-121439079D01*
X134514815Y-121439079D02*
X135363343Y-121439079D01*
X136636657Y-121439079D02*
X137485185Y-121439079D01*
X138431080Y-121439079D02*
X138571109Y-121439079D01*
X143428892Y-121439079D02*
X145416787Y-121439079D01*
X123316085Y-121629079D02*
X127954675Y-121629079D01*
X132730310Y-121629079D02*
X133487375Y-121629079D01*
X134704815Y-121629079D02*
X135553343Y-121629079D01*
X136446657Y-121629079D02*
X137295185Y-121629079D01*
X143507592Y-121629079D02*
X145518345Y-121629079D01*
X151481654Y-121629079D02*
X151525000Y-121629079D01*
X123506085Y-121819079D02*
X128130310Y-121819079D01*
X132730310Y-121819079D02*
X133436913Y-121819079D01*
X134894815Y-121819079D02*
X135743343Y-121819079D01*
X136256657Y-121819079D02*
X137105185Y-121819079D01*
X143566473Y-121819079D02*
X145642832Y-121819079D01*
X151357167Y-121819079D02*
X151525000Y-121819079D01*
X123696085Y-122009079D02*
X128130310Y-122009079D01*
X132730310Y-122009079D02*
X133394248Y-122009079D01*
X135084815Y-122009079D02*
X135933343Y-122009079D01*
X136066657Y-122009079D02*
X136915185Y-122009079D01*
X143604267Y-122009079D02*
X145798761Y-122009079D01*
X151201238Y-122009079D02*
X151525000Y-122009079D01*
X123886085Y-122199079D02*
X128130310Y-122199079D01*
X132730310Y-122199079D02*
X133356589Y-122199079D01*
X135274815Y-122199079D02*
X136725185Y-122199079D01*
X143642060Y-122199079D02*
X145962069Y-122199079D01*
X151037930Y-122199079D02*
X151525000Y-122199079D01*
X124076085Y-122389079D02*
X128130310Y-122389079D01*
X132730310Y-122389079D02*
X133351925Y-122389079D01*
X135464815Y-122389079D02*
X136535185Y-122389079D01*
X143650000Y-122389079D02*
X146193585Y-122389079D01*
X150806414Y-122389079D02*
X151525000Y-122389079D01*
X124266085Y-122579079D02*
X128130310Y-122579079D01*
X132730310Y-122579079D02*
X133347261Y-122579079D01*
X135496657Y-122579079D02*
X136503343Y-122579079D01*
X143650000Y-122579079D02*
X146448684Y-122579079D01*
X150551315Y-122579079D02*
X151525000Y-122579079D01*
X124456085Y-122769079D02*
X128130310Y-122769079D01*
X132730310Y-122769079D02*
X133357092Y-122769079D01*
X135306657Y-122769079D02*
X136693343Y-122769079D01*
X143648393Y-122769079D02*
X146804149Y-122769079D01*
X150195850Y-122769079D02*
X151525000Y-122769079D01*
X124646085Y-122959079D02*
X128130310Y-122959079D01*
X132730310Y-122959079D02*
X133390060Y-122959079D01*
X135116657Y-122959079D02*
X135965185Y-122959079D01*
X136034815Y-122959079D02*
X136883343Y-122959079D01*
X143610600Y-122959079D02*
X147368998Y-122959079D01*
X149631001Y-122959079D02*
X151525000Y-122959079D01*
X124836085Y-123149079D02*
X128130310Y-123149079D01*
X132730310Y-123149079D02*
X133423028Y-123149079D01*
X134926657Y-123149079D02*
X135775185Y-123149079D01*
X136224815Y-123149079D02*
X137073343Y-123149079D01*
X143572806Y-123149079D02*
X151525000Y-123149079D01*
X125026085Y-123339079D02*
X128130310Y-123339079D01*
X132730310Y-123339079D02*
X133483345Y-123339079D01*
X134736657Y-123339079D02*
X135585185Y-123339079D01*
X136414815Y-123339079D02*
X137263343Y-123339079D01*
X143520781Y-123339079D02*
X151525000Y-123339079D01*
X125216085Y-123529079D02*
X128130310Y-123529079D01*
X132730310Y-123529079D02*
X133556637Y-123529079D01*
X134546657Y-123529079D02*
X135395185Y-123529079D01*
X136604815Y-123529079D02*
X137453343Y-123529079D01*
X138442519Y-123529079D02*
X138557919Y-123529079D01*
X143442080Y-123529079D02*
X151525000Y-123529079D01*
X125406085Y-123719079D02*
X128130310Y-123719079D01*
X132838788Y-123719079D02*
X133633178Y-123719079D01*
X134356657Y-123719079D02*
X135205185Y-123719079D01*
X136794815Y-123719079D02*
X137643343Y-123719079D01*
X138358298Y-123719079D02*
X138636620Y-123719079D01*
X143363379Y-123719079D02*
X151525000Y-123719079D01*
X125596085Y-123909079D02*
X128130310Y-123909079D01*
X133028788Y-123909079D02*
X133887652Y-123909079D01*
X134166657Y-123909079D02*
X135015185Y-123909079D01*
X136984815Y-123909079D02*
X137833343Y-123909079D01*
X138112347Y-123909079D02*
X138754389Y-123909079D01*
X143245610Y-123909079D02*
X151525000Y-123909079D01*
X125786085Y-124099079D02*
X128130310Y-124099079D01*
X133218788Y-124099079D02*
X134825185Y-124099079D01*
X137174815Y-124099079D02*
X138881343Y-124099079D01*
X143118656Y-124099079D02*
X151525000Y-124099079D01*
X125976085Y-124289079D02*
X128130310Y-124289079D01*
X133408788Y-124289079D02*
X134635185Y-124289079D01*
X137364815Y-124289079D02*
X139041414Y-124289079D01*
X142958586Y-124289079D02*
X151525000Y-124289079D01*
X126166085Y-124479079D02*
X128130310Y-124479079D01*
X133598788Y-124479079D02*
X134527993Y-124479079D01*
X137472006Y-124479079D02*
X139231414Y-124479079D01*
X142768586Y-124479079D02*
X151525000Y-124479079D01*
X126356085Y-124669079D02*
X128130310Y-124669079D01*
X133788788Y-124669079D02*
X134617708Y-124669079D01*
X137382291Y-124669079D02*
X139476383Y-124669079D01*
X142523616Y-124669079D02*
X151525000Y-124669079D01*
X126546085Y-124859079D02*
X128130310Y-124859079D01*
X133978788Y-124859079D02*
X134782681Y-124859079D01*
X137233565Y-124859079D02*
X139770537Y-124859079D01*
X142229462Y-124859079D02*
X151525000Y-124859079D01*
X126736085Y-125049079D02*
X128134837Y-125049079D01*
X134168788Y-125049079D02*
X135256696Y-125049079D01*
X136755021Y-125049079D02*
X140231634Y-125049079D01*
X141768365Y-125049079D02*
X151525000Y-125049079D01*
X126926085Y-125239079D02*
X128168785Y-125239079D01*
X134358788Y-125239079D02*
X151525000Y-125239079D01*
X127116085Y-125429079D02*
X128239599Y-125429079D01*
X134548788Y-125429079D02*
X151525000Y-125429079D01*
X127306085Y-125619079D02*
X128357157Y-125619079D01*
X134738788Y-125619079D02*
X151525000Y-125619079D01*
X127496085Y-125809079D02*
X128534675Y-125809079D01*
X134928788Y-125809079D02*
X151525000Y-125809079D01*
X127686085Y-125999079D02*
X128724675Y-125999079D01*
X135126968Y-125999079D02*
X151525000Y-125999079D01*
X127876085Y-126189079D02*
X128914675Y-126189079D01*
X135282896Y-126189079D02*
X143810444Y-126189079D01*
X145189557Y-126189079D02*
X151525000Y-126189079D01*
X128066085Y-126379079D02*
X129104675Y-126379079D01*
X135385585Y-126379079D02*
X143446107Y-126379079D01*
X145553894Y-126379079D02*
X151525000Y-126379079D01*
X128256085Y-126569079D02*
X129294675Y-126569079D01*
X135452420Y-126569079D02*
X143203916Y-126569079D01*
X145796084Y-126569079D02*
X151525000Y-126569079D01*
X128446085Y-126759079D02*
X129484675Y-126759079D01*
X135490562Y-126759079D02*
X143017320Y-126759079D01*
X145982681Y-126759079D02*
X151525000Y-126759079D01*
X128636085Y-126949079D02*
X129674675Y-126949079D01*
X135503304Y-126949079D02*
X142890366Y-126949079D01*
X146109635Y-126949079D02*
X151525000Y-126949079D01*
X128826085Y-127139079D02*
X129864675Y-127139079D01*
X135500000Y-127139079D02*
X142783492Y-127139079D01*
X146216509Y-127139079D02*
X151525000Y-127139079D01*
X129016085Y-127329079D02*
X130054675Y-127329079D01*
X135500000Y-127329079D02*
X142704792Y-127329079D01*
X146295209Y-127329079D02*
X151525000Y-127329079D01*
X129206085Y-127519079D02*
X130244675Y-127519079D01*
X135500000Y-127519079D02*
X142650482Y-127519079D01*
X146349519Y-127519079D02*
X147111346Y-127519079D01*
X149888655Y-127519079D02*
X151525000Y-127519079D01*
X129396085Y-127709079D02*
X130434675Y-127709079D01*
X135500000Y-127709079D02*
X142612689Y-127709079D01*
X146387312Y-127709079D02*
X146657927Y-127709079D01*
X150342074Y-127709079D02*
X151525000Y-127709079D01*
X129586085Y-127899079D02*
X130624675Y-127899079D01*
X135500000Y-127899079D02*
X142600000Y-127899079D01*
X150670135Y-127899079D02*
X151525000Y-127899079D01*
X129776085Y-128089079D02*
X130700000Y-128089079D01*
X135500000Y-128089079D02*
X142600000Y-128089079D01*
X150901651Y-128089079D02*
X151525000Y-128089079D01*
X129966085Y-128279079D02*
X130597939Y-128279079D01*
X135500000Y-128279079D02*
X142626245Y-128279079D01*
X151109452Y-128279079D02*
X151525000Y-128279079D01*
X130156085Y-128469079D02*
X130504566Y-128469079D01*
X135500000Y-128469079D02*
X142664039Y-128469079D01*
X151265381Y-128469079D02*
X151525000Y-128469079D01*
X130346085Y-128659079D02*
X130440386Y-128659079D01*
X135559615Y-128659079D02*
X138600681Y-128659079D01*
X151421310Y-128659079D02*
X151525000Y-128659079D01*
X135597408Y-128849079D02*
X138136670Y-128849079D01*
X151523432Y-128849079D02*
X151525000Y-128849079D01*
X135600000Y-129039079D02*
X137864339Y-129039079D01*
X135581861Y-129229079D02*
X137663305Y-129229079D01*
X135541761Y-129419079D02*
X137473305Y-129419079D01*
X135463060Y-129609079D02*
X137283305Y-129609079D01*
X135349838Y-129799079D02*
X137093305Y-129799079D01*
X135190820Y-129989079D02*
X136903305Y-129989079D01*
X134955317Y-130179079D02*
X136713305Y-130179079D01*
X151525001Y-96147985D02*
X151525001Y-103429730D01*
X151335001Y-96446089D02*
X151335001Y-103151266D01*
X151335001Y-121846089D02*
X151335001Y-128553912D01*
X151145001Y-96677605D02*
X151145001Y-102917378D01*
X151145001Y-122077605D02*
X151145001Y-128322396D01*
X150955001Y-96867138D02*
X150955001Y-102731032D01*
X150955001Y-122267138D02*
X150955001Y-128132863D01*
X150765001Y-97023067D02*
X150765001Y-102565474D01*
X150765001Y-122423067D02*
X150765001Y-127976934D01*
X150575001Y-97166419D02*
X150575001Y-102441171D01*
X150575001Y-122566419D02*
X150575001Y-127833582D01*
X150385001Y-97267976D02*
X150385001Y-102316868D01*
X150385001Y-122667976D02*
X150385001Y-127732025D01*
X150195001Y-97369534D02*
X150195001Y-102231551D01*
X150195001Y-122769534D02*
X150195001Y-127630467D01*
X150005001Y-97445628D02*
X150005001Y-102155003D01*
X150005001Y-122845628D02*
X150005001Y-127554373D01*
X149815001Y-97503264D02*
X149815001Y-102079455D01*
X149815001Y-122903264D02*
X149815001Y-127496737D01*
X149625001Y-97560900D02*
X149625001Y-102043576D01*
X149625001Y-122960900D02*
X149625001Y-127439101D01*
X149435001Y-97591188D02*
X149435001Y-102007696D01*
X149435001Y-122991188D02*
X149435001Y-127408813D01*
X149245001Y-97609901D02*
X149245001Y-101980354D01*
X149245001Y-123009901D02*
X149245001Y-127390100D01*
X149055001Y-97620000D02*
X149055001Y-102071863D01*
X149055001Y-123020000D02*
X149055001Y-127380000D01*
X148865001Y-97620000D02*
X148865001Y-102163371D01*
X148865001Y-123020000D02*
X148865001Y-127380000D01*
X148675001Y-97620000D02*
X148675001Y-110280000D01*
X148675001Y-123020000D02*
X148675001Y-127380000D01*
X148485001Y-97620000D02*
X148485001Y-110280000D01*
X148485001Y-123020000D02*
X148485001Y-127380000D01*
X148295001Y-97620000D02*
X148295001Y-110280000D01*
X148295001Y-123020000D02*
X148295001Y-127380000D01*
X148105001Y-97620000D02*
X148105001Y-102148924D01*
X148105001Y-104580000D02*
X148105001Y-105180000D01*
X148105001Y-123020000D02*
X148105001Y-127380000D01*
X147915001Y-97620000D02*
X147915001Y-102057416D01*
X147915001Y-104580000D02*
X147915001Y-105180000D01*
X147915001Y-123020000D02*
X147915001Y-127380000D01*
X147725001Y-97606946D02*
X147725001Y-101977480D01*
X147725001Y-104580000D02*
X147725001Y-105180000D01*
X147725001Y-123006946D02*
X147725001Y-127393053D01*
X147535001Y-97588232D02*
X147535001Y-102013360D01*
X147535001Y-104580000D02*
X147535001Y-105180000D01*
X147535001Y-122988232D02*
X147535001Y-127411767D01*
X147345001Y-97551799D02*
X147345001Y-102049239D01*
X147345001Y-104580000D02*
X147345001Y-105180000D01*
X147345001Y-122951799D02*
X147345001Y-127448200D01*
X147155001Y-97494163D02*
X147155001Y-102090540D01*
X147155001Y-104580000D02*
X147155001Y-105180000D01*
X147155001Y-122894163D02*
X147155001Y-127505836D01*
X146965001Y-97436527D02*
X146965001Y-102167088D01*
X146965001Y-104580000D02*
X146965001Y-105180000D01*
X146965001Y-122836527D02*
X146965001Y-127563472D01*
X146775001Y-97353498D02*
X146775001Y-102243636D01*
X146775001Y-104580000D02*
X146775001Y-105180000D01*
X146775001Y-122753498D02*
X146775001Y-127646501D01*
X146585001Y-97251941D02*
X146585001Y-102336493D01*
X146585001Y-104580000D02*
X146585001Y-105180000D01*
X146585001Y-117571941D02*
X146585001Y-117588058D01*
X146585001Y-122651941D02*
X146585001Y-127748058D01*
X146395001Y-97631423D02*
X146395001Y-102460796D01*
X146395001Y-104580000D02*
X146395001Y-105180000D01*
X146395001Y-107299203D02*
X146395001Y-107540796D01*
X146395001Y-117470384D02*
X146395001Y-117689615D01*
X146395001Y-122550384D02*
X146395001Y-127747735D01*
X146205001Y-98017856D02*
X146205001Y-102585099D01*
X146205001Y-104580000D02*
X146205001Y-105180000D01*
X146205001Y-107174900D02*
X146205001Y-107665099D01*
X146205001Y-117318447D02*
X146205001Y-117841552D01*
X146205001Y-122398447D02*
X146205001Y-127111299D01*
X146015001Y-98272004D02*
X146015001Y-102760452D01*
X146015001Y-104580000D02*
X146015001Y-105180000D01*
X146015001Y-106999547D02*
X146015001Y-107840452D01*
X146015001Y-117162518D02*
X146015001Y-117997481D01*
X146015001Y-122242518D02*
X146015001Y-126807451D01*
X145825001Y-98462004D02*
X145825001Y-102946798D01*
X145825001Y-104580000D02*
X145825001Y-105180000D01*
X145825001Y-106813201D02*
X145825001Y-108026798D01*
X145825001Y-116961051D02*
X145825001Y-118198948D01*
X145825001Y-122041051D02*
X145825001Y-126597996D01*
X145635001Y-98593545D02*
X145635001Y-103195230D01*
X145635001Y-104580000D02*
X145635001Y-105180000D01*
X145635001Y-106564769D02*
X145635001Y-108275230D01*
X145635001Y-116729535D02*
X145635001Y-118430464D01*
X145635001Y-121809535D02*
X145635001Y-126433274D01*
X145445001Y-98706534D02*
X145445001Y-103473695D01*
X145445001Y-104580000D02*
X145445001Y-105180000D01*
X145445001Y-106286304D02*
X145445001Y-108553695D01*
X145445001Y-116411861D02*
X145445001Y-118748138D01*
X145445001Y-121491861D02*
X145445001Y-126306320D01*
X145255001Y-98785235D02*
X145255001Y-103916324D01*
X145255001Y-104309768D02*
X145255001Y-105450231D01*
X145255001Y-105843675D02*
X145255001Y-108996324D01*
X145255001Y-109389767D02*
X145255001Y-109465266D01*
X145255001Y-115981142D02*
X145255001Y-119178857D01*
X145255001Y-121061142D02*
X145255001Y-126216187D01*
X145065001Y-98844729D02*
X145065001Y-104132468D01*
X145065001Y-104132468D02*
X145065001Y-109386566D01*
X145065001Y-115571593D02*
X145065001Y-126137487D01*
X144875001Y-98882523D02*
X144875001Y-104132468D01*
X144875001Y-104132468D02*
X144875001Y-109346449D01*
X144875001Y-115611710D02*
X144875001Y-126097370D01*
X144685001Y-98900000D02*
X144685001Y-104132468D01*
X144685001Y-104132468D02*
X144685001Y-109309079D01*
X144685001Y-115649079D02*
X144685001Y-126060000D01*
X144495001Y-98900000D02*
X144495001Y-104132468D01*
X144495001Y-104132468D02*
X144495001Y-109309079D01*
X144495001Y-115649079D02*
X144495001Y-126060000D01*
X144305001Y-98878544D02*
X144305001Y-104132468D01*
X144305001Y-104132468D02*
X144305001Y-109310643D01*
X144305001Y-115647514D02*
X144305001Y-126061564D01*
X144115001Y-98840750D02*
X144115001Y-104132468D01*
X144115001Y-104132468D02*
X144115001Y-109348436D01*
X144115001Y-115609721D02*
X144115001Y-126099357D01*
X143925001Y-98776951D02*
X143925001Y-104132468D01*
X143925001Y-104132468D02*
X143925001Y-109390706D01*
X143925001Y-115567451D02*
X143925001Y-126141627D01*
X143735001Y-98698250D02*
X143735001Y-104132468D01*
X143735001Y-104132468D02*
X143735001Y-109469407D01*
X143735001Y-115488750D02*
X143735001Y-126220328D01*
X143545001Y-98580182D02*
X143545001Y-101219393D01*
X143545001Y-102780608D02*
X143545001Y-104132468D01*
X143545001Y-104132468D02*
X143545001Y-109562078D01*
X143545001Y-115396079D02*
X143545001Y-121719393D01*
X143545001Y-123280608D02*
X143545001Y-126312999D01*
X143355001Y-98442006D02*
X143355001Y-100760693D01*
X143355001Y-103239308D02*
X143355001Y-104132468D01*
X143355001Y-104132468D02*
X143355001Y-109689032D01*
X143355001Y-115269125D02*
X143355001Y-121260693D01*
X143355001Y-123739308D02*
X143355001Y-126439953D01*
X143165001Y-98252006D02*
X143165001Y-100470280D01*
X143165001Y-103529721D02*
X143165001Y-104132468D01*
X143165001Y-104132468D02*
X143165001Y-109857073D01*
X143165001Y-115101085D02*
X143165001Y-120970280D01*
X143165001Y-124029721D02*
X143165001Y-126607994D01*
X142975001Y-97987925D02*
X142975001Y-100227336D01*
X142975001Y-103772664D02*
X142975001Y-104132468D01*
X142975001Y-104132468D02*
X142975001Y-110071492D01*
X142975001Y-112346665D02*
X142975001Y-112611492D01*
X142975001Y-114886665D02*
X142975001Y-120727336D01*
X142975001Y-124272664D02*
X142975001Y-126822413D01*
X142785001Y-96360000D02*
X142785001Y-96416856D01*
X142785001Y-97583143D02*
X142785001Y-100037336D01*
X142785001Y-103962664D02*
X142785001Y-104132468D01*
X142785001Y-104132468D02*
X142785001Y-110384514D01*
X142785001Y-112033643D02*
X142785001Y-112924514D01*
X142785001Y-114573643D02*
X142785001Y-120537336D01*
X142785001Y-124462664D02*
X142785001Y-127135435D01*
X142595001Y-96360000D02*
X142595001Y-99878619D01*
X142595001Y-104121382D02*
X142595001Y-104132468D01*
X142595001Y-104132468D02*
X142595001Y-120378619D01*
X142595001Y-124621382D02*
X142595001Y-128600000D01*
X142405001Y-96360000D02*
X142405001Y-99751665D01*
X142405001Y-104248336D02*
X142405001Y-120251665D01*
X142405001Y-124748336D02*
X142405001Y-128600000D01*
X142215001Y-96360000D02*
X142215001Y-99634931D01*
X142215001Y-104365070D02*
X142215001Y-120134931D01*
X142215001Y-124865070D02*
X142215001Y-128600000D01*
X142025001Y-96360000D02*
X142025001Y-99556231D01*
X142025001Y-104443770D02*
X142025001Y-120056231D01*
X142025001Y-124943770D02*
X142025001Y-128600000D01*
X141835001Y-96360000D02*
X141835001Y-99477530D01*
X141835001Y-104522471D02*
X141835001Y-119977530D01*
X141835001Y-125022471D02*
X141835001Y-128600000D01*
X141645001Y-96360000D02*
X141645001Y-99426383D01*
X141645001Y-104573618D02*
X141645001Y-119926383D01*
X141645001Y-125073618D02*
X141645001Y-128600000D01*
X141455001Y-96360000D02*
X141455001Y-99388589D01*
X141455001Y-104611412D02*
X141455001Y-119888589D01*
X141455001Y-125111412D02*
X141455001Y-128600000D01*
X141265001Y-96360000D02*
X141265001Y-99350796D01*
X141265001Y-104649205D02*
X141265001Y-119850796D01*
X141265001Y-125149205D02*
X141265001Y-128600000D01*
X141075001Y-96360820D02*
X141075001Y-99350000D01*
X141075001Y-104650000D02*
X141075001Y-119850000D01*
X141075001Y-125150000D02*
X141075001Y-128600000D01*
X140885001Y-96342107D02*
X140885001Y-99350000D01*
X140885001Y-104650000D02*
X140885001Y-119850000D01*
X140885001Y-125150000D02*
X140885001Y-128600000D01*
X140695001Y-96304438D02*
X140695001Y-99358751D01*
X140695001Y-104641248D02*
X140695001Y-119858751D01*
X140695001Y-125141248D02*
X140695001Y-128600000D01*
X140505001Y-96246802D02*
X140505001Y-99396544D01*
X140505001Y-104603455D02*
X140505001Y-119896544D01*
X140505001Y-125103455D02*
X140505001Y-128600000D01*
X140315001Y-96162725D02*
X140315001Y-99434338D01*
X140315001Y-104565661D02*
X140315001Y-119934338D01*
X140315001Y-125065661D02*
X140315001Y-128600000D01*
X140125001Y-96061168D02*
X140125001Y-99494097D01*
X140125001Y-104505902D02*
X140125001Y-119994097D01*
X140125001Y-125005902D02*
X140125001Y-128600000D01*
X139935001Y-95912591D02*
X139935001Y-99572798D01*
X139935001Y-104427201D02*
X139935001Y-120072798D01*
X139935001Y-124927201D02*
X139935001Y-128600000D01*
X139745001Y-95732006D02*
X139745001Y-99651498D01*
X139745001Y-104348501D02*
X139745001Y-120151498D01*
X139745001Y-124848501D02*
X139745001Y-128600000D01*
X139555001Y-95542006D02*
X139555001Y-99778390D01*
X139555001Y-104221609D02*
X139555001Y-120278390D01*
X139555001Y-124721609D02*
X139555001Y-128600000D01*
X139365001Y-95352006D02*
X139365001Y-99905344D01*
X139365001Y-104094655D02*
X139365001Y-120405344D01*
X139365001Y-124594655D02*
X139365001Y-128600000D01*
X139175001Y-95162006D02*
X139175001Y-100077334D01*
X139175001Y-103922666D02*
X139175001Y-120577334D01*
X139175001Y-124422666D02*
X139175001Y-128599214D01*
X138985001Y-94972006D02*
X138985001Y-100267334D01*
X138985001Y-103732666D02*
X138985001Y-120767334D01*
X138985001Y-124232666D02*
X138985001Y-128599273D01*
X138795001Y-94782006D02*
X138795001Y-100530141D01*
X138795001Y-103469858D02*
X138795001Y-121030141D01*
X138795001Y-123969858D02*
X138795001Y-128617987D01*
X138605001Y-94649079D02*
X138605001Y-100857256D01*
X138605001Y-103142744D02*
X138605001Y-121357256D01*
X138605001Y-123642744D02*
X138605001Y-128657768D01*
X138415001Y-94649079D02*
X138415001Y-100897397D01*
X138415001Y-103091160D02*
X138415001Y-121397397D01*
X138415001Y-123591160D02*
X138415001Y-128715404D01*
X138225001Y-94649079D02*
X138225001Y-100644115D01*
X138225001Y-103355886D02*
X138225001Y-121144115D01*
X138225001Y-123855886D02*
X138225001Y-128801864D01*
X138035001Y-94649079D02*
X138035001Y-100554400D01*
X138035001Y-103445601D02*
X138035001Y-121054400D01*
X138035001Y-123945601D02*
X138035001Y-128903422D01*
X137845001Y-94649079D02*
X137845001Y-100579263D01*
X137845001Y-103420737D02*
X137845001Y-121079263D01*
X137845001Y-123920737D02*
X137845001Y-129054948D01*
X137655001Y-94649079D02*
X137655001Y-100769263D01*
X137655001Y-103230737D02*
X137655001Y-121269263D01*
X137655001Y-123730737D02*
X137655001Y-129237383D01*
X137465001Y-94649079D02*
X137465001Y-100006086D01*
X137465001Y-100110735D02*
X137465001Y-100959263D01*
X137465001Y-103040737D02*
X137465001Y-103889265D01*
X137465001Y-103993915D02*
X137465001Y-120506086D01*
X137465001Y-120610735D02*
X137465001Y-121459263D01*
X137465001Y-123540737D02*
X137465001Y-124389265D01*
X137465001Y-124493915D02*
X137465001Y-129427383D01*
X137275001Y-94649079D02*
X137275001Y-99666490D01*
X137275001Y-100300735D02*
X137275001Y-101149263D01*
X137275001Y-102850737D02*
X137275001Y-103699265D01*
X137275001Y-104336932D02*
X137275001Y-120166490D01*
X137275001Y-120800735D02*
X137275001Y-121649263D01*
X137275001Y-123350737D02*
X137275001Y-124199265D01*
X137275001Y-124836932D02*
X137275001Y-129617383D01*
X137085001Y-94649079D02*
X137085001Y-99582269D01*
X137085001Y-100490735D02*
X137085001Y-101339263D01*
X137085001Y-102660737D02*
X137085001Y-103509265D01*
X137085001Y-104421791D02*
X137085001Y-120082269D01*
X137085001Y-120990735D02*
X137085001Y-121839263D01*
X137085001Y-123160737D02*
X137085001Y-124009265D01*
X137085001Y-124921791D02*
X137085001Y-129807383D01*
X136895001Y-94649079D02*
X136895001Y-99498049D01*
X136895001Y-100680735D02*
X136895001Y-101529263D01*
X136895001Y-102470737D02*
X136895001Y-103319265D01*
X136895001Y-104495083D02*
X136895001Y-119998049D01*
X136895001Y-121180735D02*
X136895001Y-122029263D01*
X136895001Y-122970737D02*
X136895001Y-123819265D01*
X136895001Y-124995083D02*
X136895001Y-129997383D01*
X136705001Y-94649079D02*
X136705001Y-99442320D01*
X136705001Y-100870735D02*
X136705001Y-101719263D01*
X136705001Y-102280737D02*
X136705001Y-103129265D01*
X136705001Y-104567269D02*
X136705001Y-119942320D01*
X136705001Y-121370735D02*
X136705001Y-122219263D01*
X136705001Y-122780737D02*
X136705001Y-123629265D01*
X136705001Y-125067269D02*
X136705001Y-130187383D01*
X136515001Y-94649079D02*
X136515001Y-99399655D01*
X136515001Y-101060735D02*
X136515001Y-101909263D01*
X136515001Y-102090737D02*
X136515001Y-102939265D01*
X136515001Y-104600237D02*
X136515001Y-119899655D01*
X136515001Y-121560735D02*
X136515001Y-122409263D01*
X136515001Y-122590737D02*
X136515001Y-123439265D01*
X136515001Y-125100237D02*
X136515001Y-130300000D01*
X136325001Y-94649079D02*
X136325001Y-99357180D01*
X136325001Y-101250735D02*
X136325001Y-102000000D01*
X136325001Y-102000000D02*
X136325001Y-102749265D01*
X136325001Y-104633205D02*
X136325001Y-119857180D01*
X136325001Y-121750735D02*
X136325001Y-122500000D01*
X136325001Y-122500000D02*
X136325001Y-123249265D01*
X136325001Y-125133205D02*
X136325001Y-130300000D01*
X136135001Y-94649079D02*
X136135001Y-99352516D01*
X136135001Y-101440735D02*
X136135001Y-102000000D01*
X136135001Y-102000000D02*
X136135001Y-102559265D01*
X136135001Y-104654112D02*
X136135001Y-119852516D01*
X136135001Y-121940735D02*
X136135001Y-122500000D01*
X136135001Y-122500000D02*
X136135001Y-123059265D01*
X136135001Y-125154112D02*
X136135001Y-130300000D01*
X135945001Y-94649079D02*
X135945001Y-95788743D01*
X135945001Y-96611258D02*
X135945001Y-99347852D01*
X135945001Y-101520737D02*
X135945001Y-102000000D01*
X135945001Y-102000000D02*
X135945001Y-102479263D01*
X135945001Y-104649448D02*
X135945001Y-119847852D01*
X135945001Y-122020737D02*
X135945001Y-122500000D01*
X135945001Y-122500000D02*
X135945001Y-122979263D01*
X135945001Y-125149448D02*
X135945001Y-130300000D01*
X135755001Y-94649079D02*
X135755001Y-95408648D01*
X135755001Y-96991353D02*
X135755001Y-99352913D01*
X135755001Y-101330737D02*
X135755001Y-102000000D01*
X135755001Y-102000000D02*
X135755001Y-102669263D01*
X135755001Y-104644784D02*
X135755001Y-119852913D01*
X135755001Y-121830737D02*
X135755001Y-122500000D01*
X135755001Y-122500000D02*
X135755001Y-123169263D01*
X135755001Y-125144784D02*
X135755001Y-130300000D01*
X135565001Y-94649079D02*
X135565001Y-95185102D01*
X135565001Y-97214898D02*
X135565001Y-99385881D01*
X135565001Y-101140737D02*
X135565001Y-101989265D01*
X135565001Y-102010735D02*
X135565001Y-102859263D01*
X135565001Y-104618310D02*
X135565001Y-119885881D01*
X135565001Y-121640737D02*
X135565001Y-122489265D01*
X135565001Y-122510735D02*
X135565001Y-123359263D01*
X135565001Y-125118310D02*
X135565001Y-128686160D01*
X135565001Y-129313841D02*
X135565001Y-130300000D01*
X135375001Y-94649079D02*
X135375001Y-95034074D01*
X135375001Y-97365927D02*
X135375001Y-99418850D01*
X135375001Y-100950737D02*
X135375001Y-101799265D01*
X135375001Y-102200735D02*
X135375001Y-103049263D01*
X135375001Y-104575644D02*
X135375001Y-119918850D01*
X135375001Y-121450737D02*
X135375001Y-122299265D01*
X135375001Y-122700735D02*
X135375001Y-123549263D01*
X135375001Y-125075644D02*
X135375001Y-126359279D01*
X135375001Y-129761421D02*
X135375001Y-130300000D01*
X135185001Y-94649079D02*
X135185001Y-94926967D01*
X135185001Y-97473034D02*
X135185001Y-99474057D01*
X135185001Y-100760737D02*
X135185001Y-101609265D01*
X135185001Y-102390735D02*
X135185001Y-103239263D01*
X135185001Y-104532979D02*
X135185001Y-119974057D01*
X135185001Y-121260737D02*
X135185001Y-122109265D01*
X135185001Y-122890735D02*
X135185001Y-123739263D01*
X135185001Y-125032979D02*
X135185001Y-126069794D01*
X135185001Y-129994898D02*
X135185001Y-130300000D01*
X134995001Y-94649079D02*
X134995001Y-94851143D01*
X134995001Y-97548858D02*
X134995001Y-99547348D01*
X134995001Y-100570737D02*
X134995001Y-101419265D01*
X134995001Y-102580735D02*
X134995001Y-103429263D01*
X134995001Y-104453193D02*
X134995001Y-120047348D01*
X134995001Y-121070737D02*
X134995001Y-121919265D01*
X134995001Y-123080735D02*
X134995001Y-123929263D01*
X134995001Y-124953193D02*
X134995001Y-125875292D01*
X134995001Y-130152564D02*
X134995001Y-130300000D01*
X134805001Y-94649079D02*
X134805001Y-94813350D01*
X134805001Y-97730023D02*
X134805001Y-99620640D01*
X134805001Y-100380737D02*
X134805001Y-101229265D01*
X134805001Y-102770735D02*
X134805001Y-103619263D01*
X134805001Y-104368972D02*
X134805001Y-120120640D01*
X134805001Y-120880737D02*
X134805001Y-121729265D01*
X134805001Y-123270735D02*
X134805001Y-124119263D01*
X134805001Y-124868972D02*
X134805001Y-125685292D01*
X134805001Y-130264750D02*
X134805001Y-130300000D01*
X134615001Y-94649079D02*
X134615001Y-94800000D01*
X134615001Y-97920023D02*
X134615001Y-99836655D01*
X134615001Y-100190737D02*
X134615001Y-101039265D01*
X134615001Y-102960735D02*
X134615001Y-103809263D01*
X134615001Y-104163344D02*
X134615001Y-120336655D01*
X134615001Y-120690737D02*
X134615001Y-121539265D01*
X134615001Y-123460735D02*
X134615001Y-124309263D01*
X134615001Y-124663344D02*
X134615001Y-125495292D01*
X134425001Y-94649079D02*
X134425001Y-94807381D01*
X134425001Y-98110023D02*
X134425001Y-100077170D01*
X134425001Y-100077170D02*
X134425001Y-100849265D01*
X134425001Y-103150735D02*
X134425001Y-103922830D01*
X134425001Y-103922830D02*
X134425001Y-120577170D01*
X134425001Y-120577170D02*
X134425001Y-121349265D01*
X134425001Y-123650735D02*
X134425001Y-124422830D01*
X134425001Y-124422830D02*
X134425001Y-125305292D01*
X134235001Y-94649079D02*
X134235001Y-94845175D01*
X134235001Y-98300023D02*
X134235001Y-100077170D01*
X134235001Y-100077170D02*
X134235001Y-100659265D01*
X134235001Y-103340735D02*
X134235001Y-103922830D01*
X134235001Y-103922830D02*
X134235001Y-120577170D01*
X134235001Y-120577170D02*
X134235001Y-121159265D01*
X134235001Y-123840735D02*
X134235001Y-124422830D01*
X134235001Y-124422830D02*
X134235001Y-125115292D01*
X134045001Y-94649079D02*
X134045001Y-94914538D01*
X134045001Y-98490023D02*
X134045001Y-100077170D01*
X134045001Y-100077170D02*
X134045001Y-100516623D01*
X134045001Y-103483376D02*
X134045001Y-103922830D01*
X134045001Y-103922830D02*
X134045001Y-120577170D01*
X134045001Y-120577170D02*
X134045001Y-121016623D01*
X134045001Y-123983376D02*
X134045001Y-124422830D01*
X134045001Y-124422830D02*
X134045001Y-124925292D01*
X133855001Y-94649079D02*
X133855001Y-95014026D01*
X133855001Y-98680023D02*
X133855001Y-100077170D01*
X133855001Y-100077170D02*
X133855001Y-100606338D01*
X133855001Y-103393661D02*
X133855001Y-103922830D01*
X133855001Y-103922830D02*
X133855001Y-120577170D01*
X133855001Y-120577170D02*
X133855001Y-121106338D01*
X133855001Y-123893661D02*
X133855001Y-124422830D01*
X133855001Y-124422830D02*
X133855001Y-124735292D01*
X133665001Y-94649079D02*
X133665001Y-95094210D01*
X133665001Y-98870023D02*
X133665001Y-100077170D01*
X133665001Y-100077170D02*
X133665001Y-100728357D01*
X133665001Y-103278616D02*
X133665001Y-103922830D01*
X133665001Y-103922830D02*
X133665001Y-120577170D01*
X133665001Y-120577170D02*
X133665001Y-121228357D01*
X133665001Y-123778616D02*
X133665001Y-124422830D01*
X133665001Y-124422830D02*
X133665001Y-124545292D01*
X133475001Y-94649079D02*
X133475001Y-94967256D01*
X133475001Y-99060023D02*
X133475001Y-100077170D01*
X133475001Y-100077170D02*
X133475001Y-101156992D01*
X133475001Y-102817445D02*
X133475001Y-103922830D01*
X133475001Y-103922830D02*
X133475001Y-120577170D01*
X133475001Y-120577170D02*
X133475001Y-121656992D01*
X133475001Y-123317445D02*
X133475001Y-124355293D01*
X133285001Y-94649079D02*
X133285001Y-94885545D01*
X133285001Y-99250023D02*
X133285001Y-100077170D01*
X133285001Y-100077170D02*
X133285001Y-102195893D01*
X133285001Y-102195893D02*
X133285001Y-103922830D01*
X133285001Y-103922830D02*
X133285001Y-120577170D01*
X133285001Y-120577170D02*
X133285001Y-122695893D01*
X133285001Y-122695893D02*
X133285001Y-124165293D01*
X133095001Y-94649079D02*
X133095001Y-94831252D01*
X133095001Y-99440023D02*
X133095001Y-100077170D01*
X133095001Y-100077170D02*
X133095001Y-102195893D01*
X133095001Y-102195893D02*
X133095001Y-103922830D01*
X133095001Y-103922830D02*
X133095001Y-120577170D01*
X133095001Y-120577170D02*
X133095001Y-122695893D01*
X133095001Y-122695893D02*
X133095001Y-123975293D01*
X132905001Y-94649079D02*
X132905001Y-94800000D01*
X132905001Y-99630023D02*
X132905001Y-100077170D01*
X132905001Y-100077170D02*
X132905001Y-102195893D01*
X132905001Y-102195893D02*
X132905001Y-103922830D01*
X132905001Y-103922830D02*
X132905001Y-120577170D01*
X132905001Y-120577170D02*
X132905001Y-122695893D01*
X132905001Y-122695893D02*
X132905001Y-123785293D01*
X132715001Y-94649079D02*
X132715001Y-94800000D01*
X132715001Y-99820023D02*
X132715001Y-100077170D01*
X132715001Y-100077170D02*
X132715001Y-102195893D01*
X132715001Y-102195893D02*
X132715001Y-103922830D01*
X132715001Y-103922830D02*
X132715001Y-120329782D01*
X132525001Y-94649079D02*
X132525001Y-94827272D01*
X132525001Y-100010023D02*
X132525001Y-100077170D01*
X132525001Y-100077170D02*
X132525001Y-102195893D01*
X132525001Y-102195893D02*
X132525001Y-103922830D01*
X132525001Y-103922830D02*
X132525001Y-119839341D01*
X132335001Y-94649079D02*
X132335001Y-94877259D01*
X132335001Y-100200022D02*
X132335001Y-102195893D01*
X132335001Y-102195893D02*
X132335001Y-103922830D01*
X132335001Y-103922830D02*
X132335001Y-119609803D01*
X132145001Y-94649079D02*
X132145001Y-94955960D01*
X132145001Y-100390022D02*
X132145001Y-102195893D01*
X132145001Y-102195893D02*
X132145001Y-103922830D01*
X132145001Y-103922830D02*
X132145001Y-119425293D01*
X131955001Y-94649079D02*
X131955001Y-95080844D01*
X131955001Y-100580022D02*
X131955001Y-102195893D01*
X131955001Y-102195893D02*
X131955001Y-103922830D01*
X131955001Y-103922830D02*
X131955001Y-119235293D01*
X131765001Y-94649079D02*
X131765001Y-95255100D01*
X131765001Y-100770022D02*
X131765001Y-102195893D01*
X131765001Y-102195893D02*
X131765001Y-103922830D01*
X131765001Y-103922830D02*
X131765001Y-119045293D01*
X131575001Y-94649079D02*
X131575001Y-95513406D01*
X131575001Y-100960022D02*
X131575001Y-102195893D01*
X131575001Y-102195893D02*
X131575001Y-103922830D01*
X131575001Y-103922830D02*
X131575001Y-118855293D01*
X131385001Y-94649079D02*
X131385001Y-96155911D01*
X131385001Y-101150022D02*
X131385001Y-102195893D01*
X131385001Y-102195893D02*
X131385001Y-103922830D01*
X131385001Y-103922830D02*
X131385001Y-118665293D01*
X131195001Y-94649079D02*
X131195001Y-96345911D01*
X131195001Y-101340022D02*
X131195001Y-102195893D01*
X131195001Y-102195893D02*
X131195001Y-103922830D01*
X131195001Y-103922830D02*
X131195001Y-118475293D01*
X131005001Y-94649079D02*
X131005001Y-96535911D01*
X131005001Y-101530022D02*
X131005001Y-102195893D01*
X131005001Y-102195893D02*
X131005001Y-103922830D01*
X131005001Y-103922830D02*
X131005001Y-118285293D01*
X130815001Y-94751394D02*
X130815001Y-96725911D01*
X130815001Y-101720022D02*
X130815001Y-102195893D01*
X130815001Y-102195893D02*
X130815001Y-103922830D01*
X130815001Y-103922830D02*
X130815001Y-118095293D01*
X130625001Y-94941394D02*
X130625001Y-96915911D01*
X130625001Y-101910022D02*
X130625001Y-102195893D01*
X130625001Y-102195893D02*
X130625001Y-103922830D01*
X130625001Y-103922830D02*
X130625001Y-116326426D01*
X130625001Y-127899404D02*
X130625001Y-128238576D01*
X130435001Y-95131394D02*
X130435001Y-97105911D01*
X130435001Y-102100022D02*
X130435001Y-102195893D01*
X130435001Y-102195893D02*
X130435001Y-103922830D01*
X130435001Y-103922830D02*
X130435001Y-116024097D01*
X130435001Y-127709404D02*
X130435001Y-128686148D01*
X130245001Y-95321394D02*
X130245001Y-97295911D01*
X130245001Y-102290022D02*
X130245001Y-103922830D01*
X130245001Y-103922830D02*
X130245001Y-115825293D01*
X130245001Y-127519404D02*
X130245001Y-128557996D01*
X130055001Y-95511394D02*
X130055001Y-97485911D01*
X130055001Y-102480022D02*
X130055001Y-103922830D01*
X130055001Y-103922830D02*
X130055001Y-115635293D01*
X130055001Y-127329404D02*
X130055001Y-128367996D01*
X129865001Y-95701394D02*
X129865001Y-97675911D01*
X129865001Y-102670022D02*
X129865001Y-103922830D01*
X129865001Y-103922830D02*
X129865001Y-115445293D01*
X129865001Y-127139404D02*
X129865001Y-128177996D01*
X129675001Y-95891394D02*
X129675001Y-97865911D01*
X129675001Y-102860022D02*
X129675001Y-103922830D01*
X129675001Y-103922830D02*
X129675001Y-115255293D01*
X129675001Y-126949404D02*
X129675001Y-127987996D01*
X129485001Y-96081394D02*
X129485001Y-98055911D01*
X129485001Y-103050022D02*
X129485001Y-103922830D01*
X129485001Y-103922830D02*
X129485001Y-115065293D01*
X129485001Y-126759404D02*
X129485001Y-127797996D01*
X129295001Y-96271394D02*
X129295001Y-98245911D01*
X129295001Y-103240022D02*
X129295001Y-103922830D01*
X129295001Y-103922830D02*
X129295001Y-114875293D01*
X129295001Y-126569404D02*
X129295001Y-127607996D01*
X129105001Y-96461394D02*
X129105001Y-98435911D01*
X129105001Y-103430022D02*
X129105001Y-103922830D01*
X129105001Y-103922830D02*
X129105001Y-114643871D01*
X129105001Y-126379404D02*
X129105001Y-127417996D01*
X128915001Y-96651394D02*
X128915001Y-98625911D01*
X128915001Y-103620022D02*
X128915001Y-103922830D01*
X128915001Y-103922830D02*
X128915001Y-114456445D01*
X128915001Y-126189404D02*
X128915001Y-127227996D01*
X128725001Y-96841394D02*
X128725001Y-98815911D01*
X128725001Y-103810022D02*
X128725001Y-103922830D01*
X128725001Y-103922830D02*
X128725001Y-114329491D01*
X128725001Y-125999404D02*
X128725001Y-127037996D01*
X128535001Y-97031394D02*
X128535001Y-99005911D01*
X128535001Y-104000022D02*
X128535001Y-114242780D01*
X128535001Y-125809404D02*
X128535001Y-126847996D01*
X128345001Y-97221394D02*
X128345001Y-99195911D01*
X128345001Y-104190022D02*
X128345001Y-114184248D01*
X128345001Y-125604266D02*
X128345001Y-126657996D01*
X128155001Y-97411394D02*
X128155001Y-99385911D01*
X128155001Y-104380022D02*
X128155001Y-114149079D01*
X128155001Y-125193639D02*
X128155001Y-126467996D01*
X127965001Y-97601394D02*
X127965001Y-99575911D01*
X127965001Y-104570022D02*
X127965001Y-114149079D01*
X127965001Y-121639404D02*
X127965001Y-126277996D01*
X127775001Y-97791394D02*
X127775001Y-99765911D01*
X127775001Y-104760022D02*
X127775001Y-107919748D01*
X127775001Y-109080253D02*
X127775001Y-114172435D01*
X127775001Y-121449404D02*
X127775001Y-126087996D01*
X127585001Y-97981394D02*
X127585001Y-99955911D01*
X127585001Y-109394898D02*
X127585001Y-114218182D01*
X127585001Y-121259404D02*
X127585001Y-125897996D01*
X127395001Y-98171394D02*
X127395001Y-100145911D01*
X127395001Y-109584898D02*
X127395001Y-114296883D01*
X127395001Y-121069404D02*
X127395001Y-125707996D01*
X127205001Y-98361394D02*
X127205001Y-100335911D01*
X127205001Y-109712700D02*
X127205001Y-114416767D01*
X127205001Y-120879404D02*
X127205001Y-125517996D01*
X127015001Y-98551394D02*
X127015001Y-100525911D01*
X127015001Y-109802029D02*
X127015001Y-114584489D01*
X127015001Y-120689404D02*
X127015001Y-125327996D01*
X126825001Y-98741394D02*
X126825001Y-100715911D01*
X126825001Y-109862782D02*
X126825001Y-114833017D01*
X126825001Y-120499404D02*
X126825001Y-125137996D01*
X126635001Y-98931394D02*
X126635001Y-100905911D01*
X126635001Y-109900000D02*
X126635001Y-114902991D01*
X126635001Y-120309404D02*
X126635001Y-124947996D01*
X126445001Y-99121394D02*
X126445001Y-101095911D01*
X126445001Y-109900000D02*
X126445001Y-114788344D01*
X126445001Y-120119404D02*
X126445001Y-124757996D01*
X126255001Y-99311394D02*
X126255001Y-101285911D01*
X126255001Y-109878694D02*
X126255001Y-114709643D01*
X126255001Y-119929404D02*
X126255001Y-124567996D01*
X126065001Y-99501394D02*
X126065001Y-101475911D01*
X126065001Y-109835166D02*
X126065001Y-114668335D01*
X126065001Y-119739404D02*
X126065001Y-124377996D01*
X125875001Y-99691394D02*
X125875001Y-101665911D01*
X125875001Y-109756466D02*
X125875001Y-114649079D01*
X125875001Y-119549404D02*
X125875001Y-124187996D01*
X125685001Y-99881394D02*
X125685001Y-101855911D01*
X125685001Y-109639200D02*
X125685001Y-114650555D01*
X125685001Y-119359404D02*
X125685001Y-123997996D01*
X125495001Y-100071394D02*
X125495001Y-102045911D01*
X125495001Y-109474900D02*
X125495001Y-114688348D01*
X125495001Y-119169404D02*
X125495001Y-123807996D01*
X125305001Y-100261394D02*
X125305001Y-102235911D01*
X125305001Y-109231491D02*
X125305001Y-114751319D01*
X125305001Y-118979404D02*
X125305001Y-123617996D01*
X125115001Y-100451394D02*
X125115001Y-102425911D01*
X125115001Y-109123476D02*
X125115001Y-114843267D01*
X125115001Y-118789404D02*
X125115001Y-123427996D01*
X124925001Y-100641394D02*
X124925001Y-102615911D01*
X124925001Y-109313476D02*
X124925001Y-114974489D01*
X124925001Y-118579896D02*
X124925001Y-123237996D01*
X124735001Y-100831394D02*
X124735001Y-102805911D01*
X124735001Y-109503476D02*
X124735001Y-115168391D01*
X124735001Y-118050737D02*
X124735001Y-123047996D01*
X124545001Y-101021394D02*
X124545001Y-102993896D01*
X124545001Y-109693476D02*
X124545001Y-115493712D01*
X124545001Y-116604445D02*
X124545001Y-122857996D01*
X124355001Y-101211394D02*
X124355001Y-103210146D01*
X124355001Y-109883476D02*
X124355001Y-122667996D01*
X124165001Y-101401394D02*
X124165001Y-103641884D01*
X124165001Y-110073476D02*
X124165001Y-122477996D01*
X123975001Y-101591394D02*
X123975001Y-106586521D01*
X123975001Y-110263476D02*
X123975001Y-122287996D01*
X123785001Y-101781394D02*
X123785001Y-106776521D01*
X123785001Y-110453476D02*
X123785001Y-122097996D01*
X123595001Y-101971394D02*
X123595001Y-106966521D01*
X123595001Y-110643476D02*
X123595001Y-121907996D01*
X123405001Y-102161394D02*
X123405001Y-107156521D01*
X123405001Y-110833476D02*
X123405001Y-121717996D01*
X123215001Y-102351394D02*
X123215001Y-107346521D01*
X123215001Y-111101557D02*
X123215001Y-121527996D01*
X123025001Y-102541394D02*
X123025001Y-107536521D01*
X123025001Y-111354898D02*
X123025001Y-121337996D01*
X122835001Y-102731394D02*
X122835001Y-107726521D01*
X122835001Y-111525836D02*
X122835001Y-121147996D01*
X122645001Y-102921394D02*
X122645001Y-107916521D01*
X122645001Y-111648182D02*
X122645001Y-120957996D01*
X122455001Y-103111394D02*
X122455001Y-108106521D01*
X122455001Y-111726882D02*
X122455001Y-120767996D01*
X122265001Y-103301394D02*
X122265001Y-108296521D01*
X122265001Y-111774716D02*
X122265001Y-120577996D01*
X122075001Y-103491394D02*
X122075001Y-108486521D01*
X122075001Y-111800000D02*
X122075001Y-120387996D01*
X121885001Y-103681394D02*
X121885001Y-108676521D01*
X121885001Y-111800000D02*
X121885001Y-120197996D01*
X121695001Y-103871394D02*
X121695001Y-108866521D01*
X121695001Y-111766759D02*
X121695001Y-120007996D01*
X121505001Y-104061394D02*
X121505001Y-109056521D01*
X121505001Y-111710314D02*
X121505001Y-119817996D01*
X121315001Y-104251394D02*
X121315001Y-106693525D01*
X121315001Y-111626064D02*
X121315001Y-115287126D01*
X121315001Y-118237875D02*
X121315001Y-119627996D01*
X121125001Y-111499110D02*
X121125001Y-114938749D01*
X120935001Y-111314900D02*
X120935001Y-114730102D01*
X120745001Y-111028541D02*
X120745001Y-114585768D01*
X120555001Y-110527223D02*
X120555001Y-114484211D01*
X120365001Y-110584858D02*
X120365001Y-114420176D01*
X120175001Y-110622591D02*
X120175001Y-114382383D01*
X119985001Y-110627834D02*
X119985001Y-114369703D01*
X119795001Y-110625000D02*
X119795001Y-114375000D01*
X119605001Y-110625000D02*
X119605001Y-114375000D01*
X119415001Y-110625000D02*
X119415001Y-114375000D01*
X119225001Y-110625000D02*
X119225001Y-114375000D01*
X119035001Y-110625000D02*
X119035001Y-114375000D01*
X118845001Y-110625000D02*
X118845001Y-114375000D01*
X118655001Y-110625000D02*
X118655001Y-114375000D01*
X118465001Y-110593958D02*
X118465001Y-114393833D01*
X118275001Y-110536323D02*
X118275001Y-114446046D01*
X118085001Y-110447723D02*
X118085001Y-114524747D01*
X117895001Y-110473181D02*
X117895001Y-114526819D01*
X117705001Y-110551882D02*
X117705001Y-114448119D01*
X117515001Y-110605674D02*
X117515001Y-114399976D01*
X117325001Y-110625000D02*
X117325001Y-114375000D01*
X117135001Y-110625000D02*
X117135001Y-114375000D01*
X116945001Y-110625000D02*
X116945001Y-114375000D01*
X116755001Y-110625000D02*
X116755001Y-114375000D01*
X116565001Y-110625000D02*
X116565001Y-114375000D01*
X116375001Y-110625000D02*
X116375001Y-114375000D01*
D21*
X139750500Y-95737506D02*
X139809997Y-95810003D01*
X139882494Y-95869500D01*
X139882496Y-95869502D01*
X139945918Y-95921551D01*
X140099309Y-96047436D01*
X140429383Y-96223864D01*
X140787535Y-96332508D01*
X141066663Y-96360000D01*
X141066671Y-96360000D01*
X141160000Y-96369192D01*
X141253329Y-96360000D01*
X142808552Y-96360000D01*
X142773016Y-96445791D01*
X142700000Y-96812866D01*
X142700000Y-97187134D01*
X142773016Y-97554209D01*
X142916242Y-97899987D01*
X143124174Y-98211179D01*
X143388821Y-98475826D01*
X143700013Y-98683758D01*
X144045791Y-98826984D01*
X144412866Y-98900000D01*
X144787134Y-98900000D01*
X145154209Y-98826984D01*
X145499987Y-98683758D01*
X145811179Y-98475826D01*
X146075826Y-98211179D01*
X146283758Y-97899987D01*
X146426984Y-97554209D01*
X146496517Y-97204646D01*
X146884849Y-97412214D01*
X147431501Y-97578039D01*
X147857540Y-97620000D01*
X149142460Y-97620000D01*
X149568499Y-97578039D01*
X150115151Y-97412214D01*
X150618949Y-97142928D01*
X151060531Y-96780531D01*
X151422928Y-96338949D01*
X151525001Y-96147985D01*
X151525001Y-103429730D01*
X151236943Y-103007551D01*
X150828664Y-102607124D01*
X150350111Y-102294042D01*
X149819674Y-102080337D01*
X149257737Y-101974221D01*
X148800000Y-102194677D01*
X148800000Y-104580000D01*
X148820000Y-104580000D01*
X148820000Y-105180000D01*
X148800000Y-105180000D01*
X148800000Y-109660000D01*
X148820000Y-109660000D01*
X148820000Y-110260000D01*
X148800000Y-110260000D01*
X148800000Y-110280000D01*
X148200000Y-110280000D01*
X148200000Y-110260000D01*
X148180000Y-110260000D01*
X148180000Y-109660000D01*
X148200000Y-109660000D01*
X148200000Y-105180000D01*
X145341876Y-105180000D01*
X145198002Y-105627532D01*
X145216779Y-105753876D01*
X145440743Y-106280064D01*
X145763057Y-106752449D01*
X146171336Y-107152876D01*
X146579641Y-107420000D01*
X146171336Y-107687124D01*
X145763057Y-108087551D01*
X145440743Y-108559936D01*
X145216779Y-109086124D01*
X145198002Y-109212468D01*
X145283001Y-109476864D01*
X145054209Y-109382095D01*
X144687134Y-109309079D01*
X144312866Y-109309079D01*
X143945791Y-109382095D01*
X143600013Y-109525321D01*
X143288821Y-109733253D01*
X143024174Y-109997900D01*
X142816242Y-110309092D01*
X142673016Y-110654870D01*
X142600000Y-111021945D01*
X142600000Y-111396213D01*
X142673016Y-111763288D01*
X142816242Y-112109066D01*
X143024174Y-112420258D01*
X143082995Y-112479079D01*
X143024174Y-112537900D01*
X142816242Y-112849092D01*
X142673016Y-113194870D01*
X142600000Y-113561945D01*
X142600000Y-113936213D01*
X142673016Y-114303288D01*
X142816242Y-114649066D01*
X143024174Y-114960258D01*
X143288821Y-115224905D01*
X143600013Y-115432837D01*
X143945791Y-115576063D01*
X144312866Y-115649079D01*
X144687134Y-115649079D01*
X145054209Y-115576063D01*
X145135452Y-115542411D01*
X145141961Y-115608499D01*
X145307786Y-116155151D01*
X145577072Y-116658949D01*
X145939469Y-117100531D01*
X146381051Y-117462928D01*
X146600000Y-117579959D01*
X146600001Y-117580041D01*
X146381051Y-117697072D01*
X145939469Y-118059469D01*
X145577072Y-118501051D01*
X145307786Y-119004849D01*
X145141961Y-119551501D01*
X145085969Y-120120000D01*
X145141961Y-120688499D01*
X145307786Y-121235151D01*
X145577072Y-121738949D01*
X145939469Y-122180531D01*
X146381051Y-122542928D01*
X146884849Y-122812214D01*
X147431501Y-122978039D01*
X147857540Y-123020000D01*
X149142460Y-123020000D01*
X149568499Y-122978039D01*
X150115151Y-122812214D01*
X150618949Y-122542928D01*
X151060531Y-122180531D01*
X151422928Y-121738949D01*
X151525000Y-121547985D01*
X151525000Y-128852014D01*
X151422928Y-128661051D01*
X151060531Y-128219469D01*
X150618949Y-127857072D01*
X150115151Y-127587786D01*
X149568499Y-127421961D01*
X149142460Y-127380000D01*
X147857540Y-127380000D01*
X147431501Y-127421961D01*
X146884849Y-127587786D01*
X146400000Y-127846944D01*
X146400000Y-127772866D01*
X146326984Y-127405791D01*
X146183758Y-127060013D01*
X145975826Y-126748821D01*
X145711179Y-126484174D01*
X145399987Y-126276242D01*
X145054209Y-126133016D01*
X144687134Y-126060000D01*
X144312866Y-126060000D01*
X143945791Y-126133016D01*
X143600013Y-126276242D01*
X143288821Y-126484174D01*
X143024174Y-126748821D01*
X142816242Y-127060013D01*
X142673016Y-127405791D01*
X142600000Y-127772866D01*
X142600000Y-128147134D01*
X142673016Y-128514209D01*
X142708552Y-128600000D01*
X139182991Y-128600000D01*
X139080310Y-128589887D01*
X138707845Y-128626571D01*
X138349694Y-128735215D01*
X138019619Y-128911644D01*
X137802806Y-129089577D01*
X137802801Y-129089582D01*
X137730307Y-129149076D01*
X137670813Y-129221571D01*
X136592384Y-130300000D01*
X134719899Y-130300000D01*
X134863149Y-130240664D01*
X135092448Y-130087451D01*
X135287451Y-129892448D01*
X135440664Y-129663149D01*
X135546199Y-129408365D01*
X135600000Y-129137888D01*
X135600000Y-128862112D01*
X135546199Y-128591635D01*
X135500000Y-128480101D01*
X135500000Y-126982629D01*
X135506290Y-126918768D01*
X135500000Y-126854905D01*
X135481190Y-126663924D01*
X135406855Y-126418873D01*
X135286140Y-126193033D01*
X135123687Y-125995082D01*
X135074079Y-125954370D01*
X133542539Y-124422830D01*
X134501434Y-124422830D01*
X134687502Y-124816889D01*
X135164724Y-125028426D01*
X135674045Y-125142797D01*
X136195893Y-125155607D01*
X136710212Y-125066364D01*
X137197238Y-124878496D01*
X137312498Y-124816889D01*
X137498566Y-124422830D01*
X136000000Y-122924264D01*
X134501434Y-124422830D01*
X133542539Y-124422830D01*
X132730310Y-123610602D01*
X132730310Y-122695893D01*
X133344393Y-122695893D01*
X133433636Y-123210212D01*
X133621504Y-123697238D01*
X133683111Y-123812498D01*
X134077170Y-123998566D01*
X135575736Y-122500000D01*
X136424264Y-122500000D01*
X137922830Y-123998566D01*
X138316889Y-123812498D01*
X138502174Y-123394499D01*
X138651601Y-123755246D01*
X138941611Y-124189276D01*
X139310724Y-124558389D01*
X139744754Y-124848399D01*
X140227024Y-125048162D01*
X140738998Y-125150000D01*
X141261002Y-125150000D01*
X141772976Y-125048162D01*
X142255246Y-124848399D01*
X142689276Y-124558389D01*
X143058389Y-124189276D01*
X143348399Y-123755246D01*
X143548162Y-123272976D01*
X143650000Y-122761002D01*
X143650000Y-122238998D01*
X143548162Y-121727024D01*
X143348399Y-121244754D01*
X143058389Y-120810724D01*
X142689276Y-120441611D01*
X142255246Y-120151601D01*
X141772976Y-119951838D01*
X141261002Y-119850000D01*
X140738998Y-119850000D01*
X140227024Y-119951838D01*
X139744754Y-120151601D01*
X139310724Y-120441611D01*
X138941611Y-120810724D01*
X138651601Y-121244754D01*
X138498603Y-121614124D01*
X138378496Y-121302762D01*
X138316889Y-121187502D01*
X137922830Y-121001434D01*
X136424264Y-122500000D01*
X135575736Y-122500000D01*
X134077170Y-121001434D01*
X133683111Y-121187502D01*
X133471574Y-121664724D01*
X133357203Y-122174045D01*
X133344393Y-122695893D01*
X132730310Y-122695893D01*
X132730310Y-120612939D01*
X132733833Y-120577170D01*
X134501434Y-120577170D01*
X136000000Y-122075736D01*
X137498566Y-120577170D01*
X137312498Y-120183111D01*
X136835276Y-119971574D01*
X136325955Y-119857203D01*
X135804107Y-119844393D01*
X135289788Y-119933636D01*
X134802762Y-120121504D01*
X134687502Y-120183111D01*
X134501434Y-120577170D01*
X132733833Y-120577170D01*
X132736600Y-120549078D01*
X132724875Y-120430037D01*
X132711500Y-120294234D01*
X132637165Y-120049183D01*
X132516450Y-119823343D01*
X132353997Y-119625392D01*
X132304389Y-119584680D01*
X130730310Y-118010602D01*
X130730310Y-116912942D01*
X130736600Y-116849079D01*
X130715362Y-116633442D01*
X130711500Y-116594234D01*
X130637165Y-116349183D01*
X130516451Y-116123343D01*
X130455417Y-116048974D01*
X130353997Y-115925392D01*
X130304384Y-115884676D01*
X129201172Y-114781464D01*
X129117761Y-114656631D01*
X128922758Y-114461628D01*
X128693459Y-114308415D01*
X128438675Y-114202880D01*
X128168198Y-114149079D01*
X127892422Y-114149079D01*
X127621945Y-114202880D01*
X127367161Y-114308415D01*
X127137862Y-114461628D01*
X126942859Y-114656631D01*
X126789646Y-114885930D01*
X126747884Y-114986754D01*
X126722758Y-114961628D01*
X126493459Y-114808415D01*
X126238675Y-114702880D01*
X125968198Y-114649079D01*
X125692422Y-114649079D01*
X125421945Y-114702880D01*
X125167161Y-114808415D01*
X124937862Y-114961628D01*
X124742859Y-115156631D01*
X124589646Y-115385930D01*
X124484111Y-115640714D01*
X124430310Y-115911191D01*
X124430310Y-116186967D01*
X124484111Y-116457444D01*
X124589646Y-116712228D01*
X124730310Y-116922747D01*
X124730311Y-117895036D01*
X124724988Y-117949079D01*
X124740160Y-118103115D01*
X124746227Y-118164717D01*
X124776147Y-118263349D01*
X124809127Y-118372067D01*
X124911268Y-118563163D01*
X124952121Y-118612942D01*
X125048730Y-118730660D01*
X125090705Y-118765108D01*
X128130310Y-121804714D01*
X128130311Y-124895036D01*
X128124988Y-124949079D01*
X128146227Y-125164716D01*
X128209127Y-125372067D01*
X128311268Y-125563163D01*
X128386146Y-125654401D01*
X128448730Y-125730660D01*
X128490704Y-125765107D01*
X130700000Y-127974404D01*
X130700000Y-128126333D01*
X130559336Y-128336851D01*
X130453801Y-128591635D01*
X130424740Y-128737734D01*
X121300000Y-119612995D01*
X121300000Y-118287327D01*
X121319751Y-118222215D01*
X121346199Y-118158365D01*
X121359682Y-118090580D01*
X121379743Y-118024448D01*
X121386517Y-117955673D01*
X121400000Y-117887888D01*
X121400000Y-117818776D01*
X121406774Y-117750000D01*
X121400000Y-117681223D01*
X121400000Y-116818777D01*
X121406774Y-116750000D01*
X121400000Y-116681223D01*
X121400000Y-115843777D01*
X121406774Y-115775000D01*
X121400000Y-115706223D01*
X121400000Y-115637112D01*
X121386517Y-115569327D01*
X121379743Y-115500552D01*
X121359682Y-115434420D01*
X121346199Y-115366635D01*
X121319751Y-115302785D01*
X121299690Y-115236651D01*
X121267111Y-115175701D01*
X121240664Y-115111851D01*
X121202269Y-115054388D01*
X121169690Y-114993438D01*
X121125847Y-114940015D01*
X121087451Y-114882552D01*
X121038580Y-114833681D01*
X120994739Y-114780261D01*
X120941317Y-114736418D01*
X120892448Y-114687549D01*
X120834985Y-114649153D01*
X120781562Y-114605310D01*
X120720612Y-114572731D01*
X120663149Y-114534336D01*
X120599299Y-114507889D01*
X120538349Y-114475310D01*
X120472215Y-114455249D01*
X120408365Y-114428801D01*
X120340580Y-114415318D01*
X120274448Y-114395257D01*
X120205673Y-114388483D01*
X120137888Y-114375000D01*
X120068777Y-114375000D01*
X120000000Y-114368226D01*
X119931223Y-114375000D01*
X118793777Y-114375000D01*
X118725000Y-114368226D01*
X118656223Y-114375000D01*
X118587112Y-114375000D01*
X118519327Y-114388483D01*
X118450552Y-114395257D01*
X118384420Y-114415318D01*
X118316635Y-114428801D01*
X118252785Y-114455249D01*
X118186651Y-114475310D01*
X118125701Y-114507889D01*
X118061851Y-114534336D01*
X118004388Y-114572731D01*
X117985623Y-114582762D01*
X117913149Y-114534336D01*
X117658365Y-114428801D01*
X117517960Y-114400873D01*
X117499447Y-114395257D01*
X117480194Y-114393361D01*
X117387888Y-114375000D01*
X117293768Y-114375000D01*
X117224999Y-114368227D01*
X117156230Y-114375000D01*
X116343028Y-114375000D01*
X116343028Y-110625000D01*
X117181223Y-110625000D01*
X117250000Y-110631774D01*
X117318777Y-110625000D01*
X117387888Y-110625000D01*
X117455673Y-110611517D01*
X117524448Y-110604743D01*
X117590580Y-110584682D01*
X117658365Y-110571199D01*
X117722215Y-110544751D01*
X117788349Y-110524690D01*
X117849299Y-110492111D01*
X117913149Y-110465664D01*
X117970612Y-110427269D01*
X118012500Y-110404879D01*
X118054388Y-110427269D01*
X118111851Y-110465664D01*
X118175701Y-110492111D01*
X118236651Y-110524690D01*
X118302785Y-110544751D01*
X118366635Y-110571199D01*
X118434420Y-110584682D01*
X118500552Y-110604743D01*
X118569327Y-110611517D01*
X118637112Y-110625000D01*
X118706223Y-110625000D01*
X118775000Y-110631774D01*
X118843777Y-110625000D01*
X119956223Y-110625000D01*
X120025000Y-110631774D01*
X120093777Y-110625000D01*
X120162888Y-110625000D01*
X120230673Y-110611517D01*
X120299448Y-110604743D01*
X120365580Y-110584682D01*
X120433365Y-110571199D01*
X120497215Y-110544751D01*
X120563349Y-110524690D01*
X120600000Y-110505100D01*
X120600000Y-110537888D01*
X120653801Y-110808365D01*
X120759336Y-111063149D01*
X120912549Y-111292448D01*
X121107552Y-111487451D01*
X121336851Y-111640664D01*
X121591635Y-111746199D01*
X121862112Y-111800000D01*
X122137888Y-111800000D01*
X122408365Y-111746199D01*
X122663149Y-111640664D01*
X122892448Y-111487451D01*
X123087451Y-111292448D01*
X123240664Y-111063149D01*
X123286863Y-110951614D01*
X125205441Y-109033036D01*
X125259336Y-109163149D01*
X125412549Y-109392448D01*
X125607552Y-109587451D01*
X125836851Y-109740664D01*
X126091635Y-109846199D01*
X126362112Y-109900000D01*
X126637888Y-109900000D01*
X126908365Y-109846199D01*
X127163149Y-109740664D01*
X127392448Y-109587451D01*
X127587451Y-109392448D01*
X127740664Y-109163149D01*
X127846199Y-108908365D01*
X127900000Y-108637888D01*
X127900000Y-108362112D01*
X127846199Y-108091635D01*
X127740664Y-107836851D01*
X127600000Y-107626333D01*
X127600000Y-104935023D01*
X128612193Y-103922830D01*
X134501434Y-103922830D01*
X134687502Y-104316889D01*
X135164724Y-104528426D01*
X135674045Y-104642797D01*
X136195893Y-104655607D01*
X136710212Y-104566364D01*
X137197238Y-104378496D01*
X137312498Y-104316889D01*
X137498566Y-103922830D01*
X136000000Y-102424264D01*
X134501434Y-103922830D01*
X128612193Y-103922830D01*
X130339130Y-102195893D01*
X133344393Y-102195893D01*
X133433636Y-102710212D01*
X133621504Y-103197238D01*
X133683111Y-103312498D01*
X134077170Y-103498566D01*
X135575736Y-102000000D01*
X136424264Y-102000000D01*
X137922830Y-103498566D01*
X138316889Y-103312498D01*
X138502174Y-102894499D01*
X138651601Y-103255246D01*
X138941611Y-103689276D01*
X139310724Y-104058389D01*
X139744754Y-104348399D01*
X140227024Y-104548162D01*
X140738998Y-104650000D01*
X141261002Y-104650000D01*
X141772976Y-104548162D01*
X142255246Y-104348399D01*
X142578409Y-104132468D01*
X145198002Y-104132468D01*
X145341876Y-104580000D01*
X148200000Y-104580000D01*
X148200000Y-102194677D01*
X147742263Y-101974221D01*
X147180326Y-102080337D01*
X146649889Y-102294042D01*
X146171336Y-102607124D01*
X145763057Y-103007551D01*
X145440743Y-103479936D01*
X145216779Y-104006124D01*
X145198002Y-104132468D01*
X142578409Y-104132468D01*
X142689276Y-104058389D01*
X143058389Y-103689276D01*
X143348399Y-103255246D01*
X143548162Y-102772976D01*
X143650000Y-102261002D01*
X143650000Y-101738998D01*
X143548162Y-101227024D01*
X143348399Y-100744754D01*
X143058389Y-100310724D01*
X142689276Y-99941611D01*
X142255246Y-99651601D01*
X141772976Y-99451838D01*
X141261002Y-99350000D01*
X140738998Y-99350000D01*
X140227024Y-99451838D01*
X139744754Y-99651601D01*
X139310724Y-99941611D01*
X138941611Y-100310724D01*
X138651601Y-100744754D01*
X138498603Y-101114124D01*
X138378496Y-100802762D01*
X138316889Y-100687502D01*
X137922830Y-100501434D01*
X136424264Y-102000000D01*
X135575736Y-102000000D01*
X134077170Y-100501434D01*
X133683111Y-100687502D01*
X133471574Y-101164724D01*
X133357203Y-101674045D01*
X133344393Y-102195893D01*
X130339130Y-102195893D01*
X132457853Y-100077170D01*
X134501434Y-100077170D01*
X136000000Y-101575736D01*
X137498566Y-100077170D01*
X137312498Y-99683111D01*
X136835276Y-99471574D01*
X136325955Y-99357203D01*
X135804107Y-99344393D01*
X135289788Y-99433636D01*
X134802762Y-99621504D01*
X134687502Y-99683111D01*
X134501434Y-100077170D01*
X132457853Y-100077170D01*
X134983973Y-97551051D01*
X135008365Y-97546199D01*
X135263149Y-97440664D01*
X135492448Y-97287451D01*
X135687451Y-97092448D01*
X135840664Y-96863149D01*
X135946199Y-96608365D01*
X136000000Y-96337888D01*
X136000000Y-96062112D01*
X135946199Y-95791635D01*
X135840664Y-95536851D01*
X135687451Y-95307552D01*
X135492448Y-95112549D01*
X135263149Y-94959336D01*
X135008365Y-94853801D01*
X134737888Y-94800000D01*
X134462112Y-94800000D01*
X134191635Y-94853801D01*
X133936851Y-94959336D01*
X133707552Y-95112549D01*
X133700000Y-95120101D01*
X133692448Y-95112549D01*
X133463149Y-94959336D01*
X133208365Y-94853801D01*
X132937888Y-94800000D01*
X132662112Y-94800000D01*
X132391635Y-94853801D01*
X132136851Y-94959336D01*
X131907552Y-95112549D01*
X131712549Y-95307552D01*
X131559336Y-95536851D01*
X131453801Y-95791635D01*
X131400000Y-96062112D01*
X131400000Y-96140912D01*
X124556232Y-102984680D01*
X124506624Y-103025392D01*
X124465913Y-103074999D01*
X124344170Y-103223344D01*
X124223455Y-103449184D01*
X124149121Y-103694235D01*
X124124020Y-103949079D01*
X124130311Y-104012949D01*
X124130310Y-106431212D01*
X121448386Y-109113137D01*
X121425000Y-109122823D01*
X121425000Y-108293777D01*
X121431774Y-108225000D01*
X121425000Y-108156223D01*
X121425000Y-107318777D01*
X121431774Y-107250000D01*
X121425000Y-107181223D01*
X121425000Y-107112112D01*
X121411517Y-107044327D01*
X121404743Y-106975552D01*
X121384682Y-106909420D01*
X121371199Y-106841635D01*
X121344751Y-106777785D01*
X121324690Y-106711651D01*
X121300000Y-106665459D01*
X121300000Y-104266394D01*
X130917316Y-94649079D01*
X138662074Y-94649079D01*
X139750500Y-95737506D01*
G04 #@! TD*
M02*
